<svg id="Layer_2" data-name="Layer 2" xmlns="http://www.w3.org/2000/svg" viewBox="0 0 280.92 51.72">
  <defs>
    <style>
      .cls-1 {
        fill: #181818;
      }
    </style>
  </defs>
  <g id="Layer_1-2" data-name="Layer 1">
    <g>
      <path class="cls-1" d="M280.92,40.25c-2.25.01-4.5-.05-6.74.06-1.17.06-1.85-.32-2.51-1.29-2.01-2.95-4.15-5.81-6.22-8.72-.3-.42-.5-.52-.93-.14-.66.58-1.37,1.11-2.08,1.64-.3.22-.41.47-.41.84.01,2.3,0,4.6,0,6.9,0,.74,0,.75-.73.75-1.95,0-3.91-.01-5.86.01-.51,0-.66-.16-.66-.66.01-11.75.01-23.5,0-35.26,0-.52.18-.67.67-.67,1.97.02,3.94.02,5.91,0,.49,0,.68.14.68.66-.02,5.22.02,10.45-.03,15.67-.01,1.78-.21,3.56-.31,5.34,0,.11,0,.22,0,.33.22.04.26-.14.34-.24,2.84-3.96,6.34-7.35,9.57-10.98.32-.36.66-.51,1.15-.51,2.25.02,4.5,0,6.74.01.19,0,.46-.09.55.14.07.18-.16.31-.28.44-3.2,3.48-6.4,6.97-9.6,10.45-.24.26-.3.44-.07.75,3.59,4.76,7.16,9.53,10.74,14.3.02.03.05.05.08.08v.11Z"/>
      <path class="cls-1" d="M140.86,51.72q-1.04-.27-1.04-1.36c0-1.34.01-2.69,0-4.03,0-.49.13-.64.64-.56,1.02.17,2.04.26,3.08.11,1.44-.2,2.52-.97,3.37-2.11.77-1.03,1.19-2.23,1.62-3.43.1-.28-.04-.5-.13-.74-2.91-7.23-5.82-14.46-8.73-21.7-.45-1.11-.88-2.22-1.34-3.32-.17-.41-.13-.62.37-.62,2.3,0,4.61,0,6.91,0,.28,0,.5.06.6.37,1.77,5.3,3.63,10.57,5.28,15.91.24.79.34,1.62.37,2.45,0,.16,0,.33.08.44.96-4.98,2.95-9.66,4.44-14.51.42-1.37.91-2.72,1.33-4.09.13-.43.35-.58.79-.57,2.17.02,4.35,0,6.52,0,.64,0,.68.06.45.66-3.53,9.34-7.06,18.68-10.57,28.02-.75,1.99-1.59,3.92-3,5.55-1.54,1.8-3.48,2.92-5.79,3.41-.13.03-.25.06-.37.1h-4.86Z"/>
      <path class="cls-1" d="M23.08,0c.25.06.38.25.53.4,3.23,3.22,6.46,6.45,9.69,9.67,4.16,4.15,8.31,8.29,12.47,12.44q.57.57.02,1.12c-6.19,6.18-12.37,12.35-18.56,18.52-1.25,1.25-2.53,2.47-3.77,3.72-.29.29-.47.29-.76,0C15.21,38.39,7.72,30.92.22,23.45c-.32-.32-.28-.51.01-.8,4.29-4.27,8.57-8.55,12.86-12.83,3.17-3.16,6.35-6.3,9.52-9.45.14-.14.27-.31.45-.37Z"/>
      <path class="cls-1" d="M169.78,23.11c0-5.44,0-10.88,0-16.33,0-.78,0-.78.79-.78,3.81,0,7.63-.05,11.44.03,3.05.07,5.99.72,8.69,2.22,3.7,2.06,5.99,5.2,7.02,9.27.97,3.84.91,7.7-.19,11.49-1.6,5.56-5.3,9.03-10.9,10.48-2,.52-4.05.77-6.12.78-3.33.02-6.67,0-10,0-.73,0-.73,0-.73-.74,0-5.48,0-10.96,0-16.44ZM177.16,23.01c0,3.48,0,6.95,0,10.43,0,.32-.03.65.45.64,1.77-.03,3.54.12,5.3-.16,3.37-.53,5.81-2.28,6.92-5.57,1.08-3.2,1.08-6.48.32-9.74-.84-3.6-3.1-5.8-6.8-6.43-1.83-.31-3.68-.11-5.51-.18-.54-.02-.69.17-.68.69.02,3.44.01,6.88.01,10.32Z"/>
      <path class="cls-1" d="M90.74,5.79c1.29,0,2.58.02,3.87,0,.47-.01.68.17.83.6,2.8,7.94,5.61,15.88,8.42,23.81,1.12,3.15,2.23,6.31,3.35,9.46.21.6.19.63-.43.63-2.25,0-4.49,0-6.74.01-.45,0-.66-.14-.78-.57-.7-2.32-1.44-4.63-2.15-6.95-.13-.42-.32-.59-.77-.59-3.74.01-7.48.02-11.22,0-.46,0-.64.18-.77.59-.7,2.3-1.44,4.6-2.13,6.9-.13.44-.32.62-.8.62-2.21-.02-4.42,0-6.63-.01-.74,0-.76-.02-.5-.75,2.11-5.96,4.22-11.92,6.33-17.88,1.79-5.06,3.59-10.12,5.36-15.18.18-.52.44-.71,1-.69,1.25.04,2.5.01,3.76.01ZM90.81,11.69c-.18.1-.19.24-.22.36-1.32,4.45-2.63,8.91-3.97,13.36-.15.51.01.59.47.59,2.48-.01,4.97,0,7.45,0,.63,0,.64,0,.45-.61-1.18-3.86-2.37-7.72-3.55-11.59-.21-.69-.42-1.39-.63-2.1Z"/>
      <path class="cls-1" d="M66.65,23.05c-.05.21-.23.33-.37.47-3,2.99-5.99,5.98-8.99,8.97-4.39,4.38-8.78,8.76-13.17,13.15q-.54.54-1.07.01c-1.41-1.38-2.81-2.76-4.23-4.12-.37-.35-.37-.55,0-.91,5.69-5.66,11.37-11.33,17.05-17q.58-.58-.02-1.18c-5.63-5.59-11.26-11.17-16.9-16.76-.65-.64-.63-.52.02-1.17,1.39-1.39,2.8-2.77,4.18-4.18.34-.35.55-.34.89,0,7.43,7.43,14.87,14.86,22.31,22.28.13.13.29.23.31.44Z"/>
      <path class="cls-1" d="M111.11,27.21c0-4.12,0-8.24,0-12.35,0-.75.02-.77.78-.77,1.4,0,2.8.01,4.2,0,.42,0,.64.14.74.56.21.84.46,1.67.69,2.5.04.14.06.31.25.32.15.01.22-.11.29-.22,1.73-2.51,4.29-3.4,7.18-3.59,1.2-.08,2.39.02,3.57.28,3.59.8,5.78,3.15,6.31,6.78.14.96.22,1.93.22,2.91,0,5.28,0,10.55,0,15.83,0,.83,0,.84-.81.84-1.92,0-3.83-.02-5.75.01-.53,0-.69-.15-.69-.69.02-4.78.01-9.56,0-14.34,0-.96-.08-1.91-.33-2.84-.53-2-1.72-2.92-3.79-2.93-.55,0-1.1,0-1.65.13-1.52.35-2.57,1.23-3.13,2.68-.48,1.25-.71,2.55-.77,3.88-.2,4.41-.06,8.82-.1,13.23,0,.97,0,.97-1,.97-1.84,0-3.68-.02-5.52.01-.56,0-.73-.18-.72-.73.02-4.15,0-8.31,0-12.47Z"/>
      <path class="cls-1" d="M217.65,29.01c-2.6,0-5.19.01-7.79,0-.51,0-.65.11-.59.65.25,2.01.94,3.74,2.79,4.81.83.48,1.73.73,2.68.79,3.26.2,6.38-.4,9.35-1.75.53-.24.59-.21.59.39,0,1.49,0,2.98,0,4.47,0,.39-.15.6-.49.76-1.65.78-3.39,1.23-5.19,1.43-2.59.29-5.18.36-7.74-.26-4.67-1.13-7.68-4-8.79-8.68-.89-3.75-.73-7.49.72-11.1,1.54-3.84,4.42-6.11,8.53-6.76,2.56-.41,5.12-.34,7.57.56,3.56,1.31,5.62,3.96,6.49,7.58.52,2.17.41,4.38.42,6.58,0,.51-.31.53-.7.53-2.62,0-5.23,0-7.85,0ZM214.44,24.1c1.49,0,2.98,0,4.48,0,.24,0,.51.04.47-.35-.07-.7-.13-1.39-.39-2.05-1.02-2.51-3.02-3.27-5.61-2.88-1.47.22-2.51,1.07-3.14,2.42-.34.72-.5,1.49-.66,2.27-.09.44.03.6.49.59,1.46-.02,2.91,0,4.37,0Z"/>
      <path class="cls-1" d="M230.47,36.36c0-.79,0-1.58,0-2.37,0-.61.03-.62.58-.4,1.99.84,4.05,1.48,6.18,1.82,1.53.24,3.08.34,4.59-.16,1.23-.41,1.73-1.43,1.32-2.56-.19-.51-.6-.83-1.02-1.14-.67-.49-1.42-.86-2.17-1.21-1.6-.75-3.22-1.46-4.81-2.22-1.33-.63-2.5-1.49-3.41-2.66-.61-.79-.98-1.68-1.15-2.66-.75-4.49,1.47-7.8,5.94-8.73,4.51-.94,8.9-.45,13.12,1.4.4.18.46.37.3.76-.61,1.4-1.2,2.81-1.77,4.22-.16.4-.36.46-.75.3-1.56-.64-3.12-1.33-4.81-1.61-1.21-.2-2.42-.28-3.62.05-1.44.39-1.77,1.68-.69,2.73.65.63,1.49.94,2.29,1.3,1.96.89,4.02,1.57,5.9,2.64.69.39,1.31.88,1.9,1.41,1.69,1.51,2.08,3.51,2,5.62-.1,2.95-1.38,5.22-4.09,6.58-1.36.69-2.83,1.07-4.34,1.22-3.55.34-7.06.26-10.47-.95-.03-.01-.07-.02-.11-.03q-.94-.32-.94-1.3c0-.68,0-1.36,0-2.04Z"/>
    </g>
  </g>
</svg>