<?xml version="1.0" encoding="UTF-8"?>
<svg id="Layer_2" data-name="Layer 2" xmlns="http://www.w3.org/2000/svg" viewBox="0 0 186.25 67.1">
  <defs>
    <style>
      .cls-1 {
        fill: #181818;
      }
    </style>
  </defs>
  <g id="Layer_1-2" data-name="Layer 1">
    <g>
      <path class="cls-1" d="M153.37,0c1.95,3.06,3.9,6.13,5.86,9.19,7.62,11.88,15.25,23.76,22.88,35.64,1.24,1.94,2.49,3.87,3.73,5.81.12.2.39.39.27.63-.14.28-.48.13-.73.16-.07,0-.15,0-.22,0-21.21,0-42.42.01-63.63.01-.35,0-.84.18-1.02-.14-.21-.37.24-.69.43-.99,7.35-11.45,14.71-22.9,22.06-34.35,3.42-5.32,6.82-10.64,10.23-15.96.05,0,.1,0,.15,0Z"/>
      <path class="cls-1" d="M0,51c1.25-1.67,2.3-3.47,3.43-5.21,7.29-11.29,14.57-22.59,21.84-33.89.3-.47.66-.63,1.2-.62,2.35.02,4.7,0,7.05,0q1.13,0,1.13,1.12c0,10.55,0,21.11,0,31.66,0,2.15-.02,4.31,0,6.46,0,.68-.21.95-.92.94-2.59-.03-5.19-.03-7.78,0-.64,0-.85-.24-.83-.86.03-1.33-.01-2.66.02-3.99.01-.58-.14-.81-.77-.81-3.18.03-6.35.02-9.53,0-.51,0-.8.19-1.05.6-.92,1.48-1.87,2.94-2.8,4.42-.23.36-.46.64-.96.64-3.34-.02-6.69-.02-10.04-.03v-.44ZM25.77,26.87c-.18.12-.23.14-.26.18-2.15,3.42-4.29,6.84-6.44,10.26-.28.44-.19.59.33.58,1.69-.05,3.39-.11,5.08-.1.73,0,.93-.31.94-.95.02-1.04.07-2.08.1-3.11.08-2.24.16-4.48.25-6.85Z"/>
      <path class="cls-1" d="M69.22,51.46c-1.62,0-3.25-.02-4.87.01-.66.01-1.06-.2-1.41-.77-2.18-3.61-4.4-7.19-6.6-10.78-.45-.74-.46-.74-.89,0-2.02,3.51-4.05,7-6.03,10.53-.42.75-.91,1.05-1.78,1.03-2.91-.05-5.82-.01-8.73-.03-.37,0-.88.2-1.07-.18-.19-.36.24-.69.44-1.01,3.83-6.26,7.66-12.52,11.54-18.75.52-.84.51-1.47,0-2.3-3.4-5.64-6.74-11.32-10.1-16.98-.53-.89-.5-.94.52-.94,3.2,0,6.4.01,9.6-.01.55,0,.88.17,1.16.65,1.94,3.32,3.91,6.63,5.88,9.94q.54.91,1.11-.02c1.99-3.27,3.99-6.53,5.96-9.81.35-.58.75-.77,1.4-.76,2.91.03,5.82,0,8.73.02.29,0,.69-.16.86.18.14.29-.16.53-.31.77-3.77,6.13-7.54,12.25-11.34,18.36-.4.64-.36,1.1.02,1.71,3.79,6.05,7.57,12.12,11.34,18.19.15.24.46.48.32.77-.17.34-.57.18-.86.19-1.62.01-3.25,0-4.87,0Z"/>
      <path class="cls-1" d="M99.46,51.46c-2.41,0-4.38-.02-6.34.01-.63,0-.87-.21-.86-.84.02-2.32.02-4.65,0-6.97,0-.68.28-.85.92-.85,3.64.02,7.27.01,10.91.01,1.69,0,2.66-.6,3.16-1.93.54-1.45.13-3.14-1.01-4.11-.77-.66-1.67-1.06-2.59-1.45-2.15-.9-4.35-1.66-6.36-2.86-2.67-1.58-4.71-3.66-5.37-6.8-1.29-6.21,1.75-12.84,9.86-14.24,1.41-.24,2.84-.29,4.27-.28,2.74.02,5.48.02,8.22,0,.64,0,.85.23.84.85-.02,2.45-.02,4.89,0,7.34,0,.67-.25.89-.9.88-2.86-.02-5.72,0-8.58,0-.61,0-1.22,0-1.79.22-.84.32-1.49.84-1.64,1.78-.16,1,.2,1.82,1.05,2.38,1.39.91,2.97,1.41,4.46,2.11,1.71.8,3.39,1.66,4.98,2.71,4.69,3.1,5.95,8.07,4.37,13.07-1.64,5.2-5.71,8.4-11.08,8.89-2.33.21-4.65.03-6.53.11Z"/>
      <path class="cls-1" d="M87.21,31.33c0,6.34,0,12.69,0,19.03,0,.97,0,.98-.96.98-2.57,0-5.14-.02-7.71.01-.66,0-.88-.21-.88-.87.01-12.76.01-25.52,0-38.28,0-.69.22-.93.92-.92,2.59.03,5.19.03,7.78,0,.67,0,.87.22.87.88-.02,6.39-.01,12.78-.01,19.18Z"/>
      <path class="cls-1" d="M49.75,62.72c0,1.13-.02,2.27,0,3.4.02.66-.15.97-.89.94-1.62-.06-1.46.17-1.47-1.5,0-1.89.01-3.77,0-5.66,0-.59.2-.79.8-.81.76-.03,1.35.15,1.82.78.44.57.98,1.07,1.45,1.63.29.34.52.35.81,0,.52-.63,1.08-1.24,1.62-1.86.4-.46,1.5-.71,2.06-.48.26.11.26.33.26.54,0,2.27,0,4.55,0,6.82,0,.35-.14.51-.51.54-1.53.15-1.6.1-1.6-1.44,0-.99,0-1.98,0-3.08-.64.49-1.06,1.07-1.53,1.59-.6.68-.68.68-1.29.01-.45-.49-.9-.99-1.35-1.49-.06.03-.13.05-.19.08Z"/>
      <path class="cls-1" d="M80.76,62.44c0,1.21,0,2.41,0,3.62,0,.89-.07.94-1.04.94-1.07,0-1.14-.04-1.14-.91,0-2.08.01-4.16-.01-6.25,0-.66.25-.86.9-.89.8-.03,1.35.23,1.87.85,1.06,1.26,2.19,2.45,3.44,3.84,0-1.35-.01-2.5,0-3.64,0-.33-.2-.82.28-.95.53-.14,1.11-.17,1.64.05.22.09.18.38.18.59,0,2.18,0,4.36,0,6.54,0,.28.06.67-.31.72-.61.07-1.27.27-1.78-.29-1.07-1.19-2.13-2.38-3.2-3.58-.22-.25-.45-.48-.67-.73-.06.03-.12.06-.18.1Z"/>
      <path class="cls-1" d="M33.22,62.36c0,1.4,0,2.6,0,3.79,0,.88,0,.88-1.05.88-1.05,0-1.06,0-1.06-.88,0-2.08.02-4.16-.01-6.24,0-.64.22-.82.85-.84.74-.03,1.3.17,1.76.76.46.59,1.01,1.11,1.5,1.68.29.33.5.29.75-.04.49-.63,1-1.25,1.5-1.87.37-.46,1.53-.71,2.05-.47.25.12.25.34.25.55,0,2.25,0,4.5,0,6.75,0,.44-.2.57-.62.6-1.49.08-1.49.09-1.49-1.39,0-.99,0-1.98-.01-2.98,0-.04-.05-.07-.12-.17-.52.59-1.04,1.15-1.53,1.74-.39.48-.71.48-1.1,0-.48-.59-1.01-1.14-1.67-1.87Z"/>
      <path class="cls-1" d="M168.09,62.11c0,1.48,0,2.76,0,4.04,0,.83-.05.83-1.11.86-.64.01-1.04-.06-1.02-.88.05-2.1.04-4.21,0-6.32,0-.63.21-.83.84-.85.76-.03,1.32.18,1.83.78,1.07,1.27,2.21,2.48,3.47,3.86,0-1.37,0-2.55,0-3.72,0-.88.04-.9,1.06-.9,1.03,0,1.06.02,1.06.89,0,1.98.02,3.97-.01,5.95,0,.39.27.99-.33,1.12-.61.13-1.29.24-1.81-.37-.88-1.03-1.79-2.03-2.7-3.05-.37-.41-.74-.83-1.27-1.41Z"/>
      <path class="cls-1" d="M19.56,67.03c-1.63.03-3.01-.5-3.95-1.87-1.74-2.52.08-5.97,3.26-6.2.75-.05,1.5-.06,2.23.16,2,.6,3.29,2.39,3.08,4.29-.22,1.95-1.96,3.51-4.03,3.62-.19.01-.39,0-.58,0ZM19.57,60.77c-1.5,0-2.4.82-2.4,2.21,0,1.39.9,2.24,2.38,2.24,1.49,0,2.4-.84,2.41-2.21,0-1.39-.9-2.23-2.38-2.23Z"/>
      <path class="cls-1" d="M155.51,58.95c2.35-.01,4.23,1.37,4.57,3.33.41,2.35-1.37,4.53-3.88,4.73-.77.06-1.54.06-2.3-.18-1.92-.6-3.24-2.41-3.02-4.18.24-1.98,1.95-3.57,3.98-3.7.22-.01.44,0,.65,0ZM155.48,65.21c1.46.01,2.5-.92,2.48-2.24-.01-1.28-.99-2.18-2.37-2.2-1.52-.02-2.48.82-2.48,2.2,0,1.36.91,2.23,2.37,2.24Z"/>
      <path class="cls-1" d="M63.26,61.75c0-.73,0-1.45,0-2.18,0-.39.16-.59.56-.59.05,0,.1,0,.15,0,1.41-.08,1.42-.07,1.42,1.34,0,1.02,0,2.03,0,3.05.01,1.19.62,1.81,1.76,1.85,1.24.04,2.03-.63,2.07-1.82.04-1.21.04-2.42,0-3.63-.02-.63.19-.85.83-.84,1.41.02,1.43-.01,1.41,1.42-.01,1.21.09,2.42-.07,3.62-.22,1.76-1.07,2.68-2.83,2.99-.96.17-1.93.16-2.88-.11-1.48-.41-2.36-1.53-2.41-3.07-.02-.68,0-1.35,0-2.03Z"/>
      <path class="cls-1" d="M123.86,67c-.75.19-1.2-.23-1.41-1.03-.1-.41-.38-.57-.81-.56-.7.02-1.41.03-2.11,0-.54-.03-.87.14-1.01.69-.09.33-.12.78-.57.85-.57.1-1.16.11-1.73-.01-.26-.06-.17-.31-.1-.49.99-2.37,1.98-4.73,2.97-7.1.11-.26.3-.37.57-.37.02,0,.05,0,.07,0,1.84-.16,1.85-.16,2.6,1.52.8,1.79,1.58,3.59,2.37,5.38q.49,1.12-.84,1.12ZM120.41,61.17c-.35.85-.62,1.49-.88,2.14-.09.22-.12.46.22.47.43.02.87.02,1.31,0,.34-.01.31-.25.23-.47-.26-.65-.53-1.29-.88-2.14Z"/>
      <path class="cls-1" d="M107.8,58.95c.89-.04,1.7.05,2.46.42.42.21.71,1.52.41,1.88-.23.27-.45.03-.65-.06-.95-.41-1.91-.71-2.96-.45-1.37.33-2.06,1.15-1.98,2.37.07,1.11,1.03,1.97,2.33,2.09.92.09,1.79-.08,2.61-.49.54-.27.78-.21.78.46,0,1.19,0,1.24-1.12,1.58-1.41.42-2.83.46-4.21-.07-1.56-.6-2.5-1.75-2.61-3.44-.1-1.7.72-2.91,2.19-3.71.88-.47,1.82-.66,2.76-.59Z"/>
      <path class="cls-1" d="M5.27,58.95c.48.01.96,0,1.44.11,1.31.32,1.43.51,1.35,1.84-.03.49-.2.51-.59.33-.98-.45-1.99-.76-3.09-.48-1.24.32-2.06,1.24-1.99,2.26.08,1.14,1.08,2.07,2.35,2.19.97.09,1.88-.1,2.75-.53.51-.26.68-.1.7.45.03,1.12,0,1.22-1.05,1.57-1.42.48-2.87.54-4.27,0-1.54-.59-2.54-1.69-2.62-3.41-.09-1.77.78-3.14,2.4-3.87.83-.38,1.71-.53,2.62-.46Z"/>
      <path class="cls-1" d="M183.19,58.93c.74-.03,1.45.14,2.14.38.46.16.78,1.29.47,1.67-.19.22-.4.07-.6,0-.71-.26-1.44-.43-2.2-.37-.32.03-.66.06-.75.45-.09.4.23.55.52.67.6.25,1.23.45,1.82.73,1.37.64,1.94,1.72,1.53,2.9-.31.88-.99,1.36-1.87,1.55-1.27.29-2.5.16-3.68-.42-.4-.2-.68-1.4-.41-1.74.2-.26.4-.04.57.06.7.42,1.42.73,2.26.69.43-.02.89-.08.98-.56.1-.49-.36-.64-.71-.79-.58-.25-1.18-.45-1.75-.72-1.2-.57-1.71-1.43-1.55-2.51.15-.98,1.06-1.76,2.28-1.93.31-.04.63-.03.94-.05Z"/>
      <path class="cls-1" d="M132.97,59.1c1.09,0,2.18.02,3.27,0,.59-.02.74.25.74.79,0,.56-.18.81-.75.77-.51-.03-1.02.02-1.53-.01-.51-.03-.68.2-.68.69.02,1.6-.03,3.2.02,4.79.02.8-.35.92-1.02.9-1.11-.03-1.17-.04-1.18-.88-.01-1.5,0-3,0-4.5,0-.99,0-.99-1.02-.99-.29,0-.58-.01-.87,0-.57.03-.96-.03-.95-.79.01-.72.37-.77.92-.76,1.02.02,2.04,0,3.06,0Z"/>
      <path class="cls-1" d="M144.97,62.98c0,1.09-.02,2.18,0,3.26.02.58-.22.8-.77.76-.1,0-.19,0-.29,0-1.05,0-1.06,0-1.06-1.04,0-2.06.02-4.11-.01-6.16,0-.64.23-.89.85-.83.14.01.29.01.44,0,.61-.06.88.17.85.82-.04,1.06-.01,2.13-.01,3.19Z"/>
      <path class="cls-1" d="M94.38,62.91c0-1.06.02-2.13,0-3.19-.02-.58.22-.8.77-.75.1,0,.19,0,.29,0,1.05,0,1.06,0,1.06,1.04,0,2.03-.02,4.06.01,6.09.01.7-.24.98-.93.9-.14-.02-.29-.01-.44,0-.55.04-.79-.18-.77-.75.03-1.11,0-2.22,0-3.33Z"/>
      <path class="cls-1" d="M122.85,17.92c-1.92,0-3.42-1.47-3.43-3.37,0-1.94,1.49-3.45,3.43-3.45,1.88,0,3.41,1.53,3.41,3.42,0,1.88-1.52,3.4-3.42,3.4ZM122.85,17.4c1.62-.01,2.87-1.3,2.85-2.94-.02-1.6-1.27-2.81-2.89-2.81-1.62,0-2.89,1.3-2.87,2.92.02,1.55,1.34,2.84,2.91,2.83Z"/>
      <path class="cls-1" d="M121.5,14.4c0-.34,0-.68,0-1.01,0-1,.06-1.05,1.08-1.03.36,0,.73.04,1.07.14.71.21,1.1,1.05.65,1.61-.48.6-.37,1.06-.08,1.63.1.19.32.48.03.63-.33.18-.45-.16-.56-.39-.13-.26-.24-.53-.36-.79-.17-.39-.51-.41-.86-.35-.36.06-.3.37-.34.62-.05.32.19.9-.29.89-.52,0-.29-.6-.33-.94-.04-.33,0-.67,0-1.01ZM122.78,14.18c.43-.04.96-.02.96-.62,0-.55-.51-.55-.92-.58-.41-.03-.7.04-.69.57,0,.47.18.68.66.63Z"/>
    </g>
  </g>
</svg>