<?xml version="1.0" encoding="UTF-8"?>
<svg id="Layer_2" data-name="Layer 2" xmlns="http://www.w3.org/2000/svg" viewBox="0 0 170.84 60.7">
  <defs>
    <style>
      .cls-1 {
        fill: #181818;
      }
    </style>
  </defs>
  <g id="Layer_1-2" data-name="Layer 1">
    <g>
      <path class="cls-1" d="M170.84,15.23c-.89.81-1.7,1.69-2.54,2.54-.97.97-1.93,1.96-2.88,2.94-2.55,2.62-5.12,5.23-7.64,7.89-.22.23-.42.48-.64.7-.19.19-.19.36-.07.61,1.39,2.75,2.76,5.51,4.15,8.26,1.26,2.49,2.49,4.99,3.8,7.45.14.27.11.34-.18.32-1.71-.1-3.42-.03-5.13-.05-1.44-.02-2.88,0-4.31-.04-.31-.01-.41-.19-.51-.41-1.28-2.64-2.58-5.26-3.92-7.87-.16-.31-.34-.61-.5-.92-.1-.2-.18-.19-.33-.04-2.28,2.31-4.58,4.61-6.86,6.92-.67.68-1.33,1.38-1.99,2.07-.14.14-.28.22-.48.22-3.05,0-6.1,0-9.16,0-.08,0-.19.03-.24-.06-.04-.1.05-.15.11-.22.05-.06.11-.11.16-.16,3.44-3.45,6.89-6.89,10.33-10.34,1.58-1.59,3.13-3.21,4.71-4.81.18-.19.23-.34.11-.59-1.61-3.31-3.24-6.61-4.91-9.89q-.18-.35-.51-.12c-1.8,1.26-3.63,2.44-5.51,3.58-.28.17-.42.37-.48.68-.6,2.72-1.22,5.44-1.82,8.16-.56,2.53-1.02,5.08-1.51,7.62-.38,1.94-.74,3.89-1.1,5.84-.05.26-.16.34-.41.34-2.86,0-5.71,0-8.57,0-.17,0-.33.03-.25-.26.81-2.66,1.38-5.38,1.99-8.08.61-2.72,1.19-5.44,1.78-8.17.01-.05.02-.1.03-.15-.12-.09-.2,0-.28.04-1.62.85-3.24,1.71-4.86,2.56-.17.09-.26.21-.3.4-.9,4.11-1.83,8.22-2.67,12.35-.07.34-.14.68-.19,1.03-.04.26-.18.34-.42.34-.74,0-1.48,0-2.22,0-1.91,0-3.82,0-5.72,0-.53,0-.52,0-.41-.5.65-2.73,1.3-5.46,1.95-8.2.03-.12.05-.23.07-.35-.09-.07-.15,0-.21.03-1.53.71-3.08,1.39-4.64,2.04-.23.09-.37.25-.5.45-1.7,2.47-3.81,4.47-6.53,5.79-1.57.76-3.23,1.21-4.97,1.41-2.19.24-4.33.08-6.42-.61-.18-.06-.32,0-.47.06-3.41,1.14-6.84,2.23-10.28,3.27-4.66,1.41-9.35,2.72-14.07,3.93-6.47,1.67-12.98,3.16-19.54,4.41-3.55.68-7.12,1.28-10.7,1.78-2.53.35-5.07.66-7.62.88-2.31.2-4.62.34-6.94.4-2.66.07-5.31-.03-7.95-.41-1.8-.26-3.55-.67-5.17-1.55-.59-.32-1.13-.71-1.53-1.25-.65-.86-.66-1.85-.42-2.84.26-1.08.87-1.98,1.58-2.83,1-1.18,2.18-2.16,3.42-3.07.22-.16.21-.23-.02-.38-3.97-2.42-6.28-5.97-7.14-10.5-.44-2.33-.47-4.67-.21-7.02.26-2.38.72-4.72,1.54-6.97,1.4-3.82,3.38-7.31,6.08-10.37,3.92-4.46,8.83-7.33,14.52-8.93,2.51-.7,5.08-1.12,7.68-1.32,1.83-.15,3.66-.16,5.49-.1,3.06.11,6.1.49,9.09,1.18.56.13.55.14.48.7-.25,1.97-.5,3.95-.74,5.93-.05.43-.1.86-.16,1.29-.06.38-.07.39-.43.26-1.22-.44-2.47-.79-3.74-1.05-1.85-.39-3.71-.6-5.6-.68-2-.09-3.99.03-5.96.35-2.89.47-5.52,1.6-7.91,3.26-3.26,2.27-5.76,5.2-7.55,8.74-1.13,2.24-1.83,4.6-2.02,7.12-.21,2.79.1,5.48,1.32,8.02,1.03,2.14,2.59,3.77,4.74,4.82.25.12.48.14.74.02,1.36-.64,2.73-1.27,4.09-1.9,3.21-1.47,6.45-2.87,9.71-4.24,4.25-1.79,8.52-3.51,12.81-5.21.39-.15.75-.33,1.1-.56,1.74-1.17,3.69-1.87,5.68-2.46,1.04-.31,2.12-.54,3.13-.93,1.02-.39,2.03-.79,3.04-1.18,2.34-.89,4.69-1.78,7.03-2.66.28-.1.42-.27.52-.53.59-1.64-.07-3.08-1.71-3.71-.59-.22-1.19-.32-1.82-.33-3.57-.06-7.05.5-10.47,1.5-.97.28-1.94.58-2.9.9-.09.03-.19.1-.27.01-.06-.07,0-.17.02-.25.58-1.69,1.16-3.38,1.73-5.07.08-.24.25-.3.46-.35,1.63-.41,3.27-.73,4.93-1,3.09-.49,6.21-.75,9.34-.65,2.13.06,4.24.27,6.22,1.18,1.04.47,1.95,1.11,2.64,2.03.5.66.77,1.41.87,2.23.05.37.07.39.42.25,1.62-.62,3.24-1.24,4.86-1.84.25-.09.36-.23.41-.48.83-3.84,1.7-7.67,2.35-11.55.07-.44.13-.88.17-1.33.02-.26.13-.36.39-.36,2.76,0,5.51,0,8.27-.02.33,0,.29.16.24.37-.39,1.55-.78,3.1-1.17,4.66-.4,1.62-.81,3.23-1.21,4.85-.02.08-.03.17-.05.27.31-.03.56-.16.83-.25,5.04-1.76,10.04-3.65,15.12-5.28,4.12-1.33,8.26-2.59,12.44-3.69.3-.08.53-.18.53-.54,0-.23.16-.25.34-.25.61,0,1.22-.01,1.83,0,.29,0,.55-.07.83-.14,3.93-.99,7.88-1.87,11.87-2.61,2.36-.43,4.72-.82,7.09-1.15,1.84-.25,3.69-.47,5.55-.62.87-.07,1.74-.13,2.6-.2.06,0,.12-.03.19-.04.76,0,1.53,0,2.29,0,.1.02.19.04.29.05,1.12.12,2.19.38,3.18.92,1.63.89,2.3,2.48,1.8,4.26-.24.86-.62,1.65-1.14,2.38-1.93,2.71-4.24,5.08-6.72,7.28-.05.05-.15.06-.11.19.58,0,1.17.02,1.76,0,.33-.01.51.1.66.4,1.2,2.43,2.42,4.85,3.64,7.28.19.38.19.39.49.09,1.55-1.56,3.1-3.12,4.65-4.68.94-.94,1.87-1.89,2.75-2.88.13-.15.28-.19.46-.19.62,0,1.24,0,1.86,0,2.41,0,4.82,0,7.23.01v.13ZM79.31,18.93c-.1.02-.14.02-.18.04-1.66.63-3.32,1.26-4.98,1.89-.17.06-.23.16-.24.34-.03.57-.09,1.13-.21,1.68-1.03,4.9-2.16,9.78-3.24,14.67-.59,2.63-1.19,5.27-1.77,7.9-.06.25-.13.4-.44.39-2.64-.01-5.28,0-7.91,0-.35,0-.37-.03-.29-.39.15-.65.31-1.29.47-1.94,1.06-4.38,2.12-8.76,3.18-13.14.02-.1.12-.22,0-.3-.09-.05-.18.06-.26.1-1.16.65-2.36,1.23-3.65,1.59-1.61.44-3.22.85-4.81,1.38-1.36.45-2.71.92-3.88,1.78-1.08.79-1.97,1.71-2.26,3.09-.24,1.13-.02,2.1.95,2.82.91.67,1.96.89,3.05.91,1.79.04,3.54-.16,5.25-.72.07-.02.15-.09.21-.02.06.07,0,.14-.04.21-.71,1.55-1.41,3.09-2.11,4.64-.09.2-.22.29-.44.32-2.1.27-4.21.42-6.32.37-1.45-.03-2.89-.17-4.3-.57-2.57-.74-4.39-2.89-4.61-5.56-.17-2.14.38-4.1,1.55-5.89.35-.53.75-1.03,1.22-1.54-.08.02-.12.02-.14.03-5.06,2.14-10.09,4.34-15.04,6.72-2.59,1.25-5.17,2.53-7.68,3.94-.15.09-.32.17-.44.34,1.08.23,2.14.35,3.21.41,1.32.09,2.63.09,3.95.02,1.33-.07,2.65-.19,3.97-.37,2.24-.31,4.44-.76,6.62-1.36.09-.02.2-.1.27-.01.07.08,0,.19-.03.28-.18.55-.37,1.09-.56,1.64-.69,2-1.39,3.99-2.08,5.99-.07.21-.19.32-.41.35-.86.12-1.72.27-2.58.39-2.81.4-5.62.66-8.46.7-2.13.02-4.25-.01-6.36-.27-1.97-.24-3.92-.61-5.8-1.26-.17-.06-.34-.15-.49.06-.28.41-.54.82-.68,1.3-.2.67-.06,1.23.45,1.73.66.64,1.45,1.04,2.3,1.34,2.34.83,4.78,1.06,7.23,1.18,1.45.07,2.89.09,4.34.04,2.05-.07,4.09-.17,6.13-.34,2.39-.2,4.77-.47,7.14-.78,3.98-.53,7.92-1.22,11.85-2,5.15-1.03,10.26-2.24,15.34-3.58,3.98-1.05,7.94-2.19,11.88-3.39.11-.03.22-.08.33-.11-1.39-.06-2.77-.06-4.14-.06-.38,0-.4-.03-.31-.4.18-.74.36-1.48.54-2.22,1.67-6.84,3.29-13.7,4.87-20.56.28-1.24.56-2.48.86-3.78ZM84.44,34.31c-.08,1.93.64,3.54,2.14,4.72,2.03,1.6,4.32,1.73,6.68.88,2.22-.8,3.78-2.4,4.98-4.38,1.4-2.33,2.21-4.87,2.51-7.56.18-1.58-.09-3.11-.96-4.48-1.26-1.99-3.12-2.9-5.43-2.96-2.49-.05-4.92.39-7.33.97-.27.06-.37.2-.42.45-.47,2.3-.95,4.6-1.41,6.91-.37,1.8-.74,3.6-.75,5.45ZM89,15.29v.05c.08,0,.14,0,.2-.02,2.82-.61,5.66-.96,8.56-.83,1.73.07,3.42.33,5.07.85,3.37,1.06,5.43,3.34,6.28,6.74.51,2.04.47,4.1.22,6.17-.24,2.01-.72,3.96-1.46,5.85-.03.08-.12.19-.01.27.08.06.17-.02.24-.06,1.07-.54,2.14-1.08,3.21-1.62.15-.08.21-.19.25-.35.86-3.75,1.73-7.49,2.58-11.24,1.02-4.53,2.09-9.06,2.89-13.64.08-.44.08-.45-.36-.35-4.95,1.17-9.88,2.41-14.73,3.96-3.66,1.17-7.34,2.3-10.98,3.55-.65.23-1.31.45-1.96.67ZM134.05,15.15c1.16,0,2.1,0,3.04,0,.26,0,.33.08.24.33-.18.51-.26,1.06-.39,1.58-.02.08-.07.18.02.24.08.05.14-.04.19-.09,1.04-.85,2.03-1.75,3-2.67,1.16-1.11,2.23-2.29,3.26-3.52.62-.75,1.19-1.53,1.54-2.45.6-1.58.11-2.92-1.36-3.75-1.32-.74-2.78-.94-4.25-1.01-1.53-.08-3.05.06-4.57.21-2.6.25-5.19.61-7.77,1.05-.81.14-.68-.03-.88.83-.84,3.57-1.66,7.14-2.48,10.72-.8,3.48-1.59,6.96-2.38,10.44-.02.11-.12.25,0,.33.1.07.2-.05.29-.1,1.59-.86,3.16-1.76,4.72-2.67.18-.11.28-.24.32-.46.59-2.89,1.2-5.77,1.79-8.66.07-.32.19-.42.52-.42,1.79,0,3.57.11,5.13.07ZM82.25,41.03c-.08.35-.16.69-.24,1.04-.16.78-.32,1.55-.48,2.33-.03.14-.04.28.18.21.71-.23,1.43-.47,2.14-.7.14-.04.14-.11.05-.21-.73-.77-1.22-1.69-1.65-2.67ZM64.06,24.59c-1.98.77-3.96,1.55-5.93,2.32.22,0,.43-.04.64-.07,1.48-.26,2.9-.7,4.25-1.34.42-.2.79-.48,1.04-.91Z"/>
      <path class="cls-1" d="M167.42,11.34c.23-.87.44-1.65.64-2.44.2-.77.13-.61.81-.63.11,0,.22,0,.33,0q.53,0,.53.51c0,1.26,0,2.53,0,3.79,0,.44,0,.44-.43.45-.55,0-.56,0-.56-.55,0-.9,0-1.81-.05-2.72-.22.92-.44,1.85-.67,2.77-.04.17-.01.42-.22.47-.25.07-.52.06-.78,0-.16-.04-.15-.22-.19-.35-.22-.9-.43-1.8-.65-2.7-.02-.08-.04-.17-.11-.25,0,.96,0,1.92,0,2.88,0,.15.07.37-.13.42-.24.06-.5.07-.74-.02-.09-.03-.07-.15-.07-.24,0-1.39,0-2.79,0-4.18,0-.21.09-.29.29-.28.28,0,.57.01.85,0,.24-.01.35.08.41.31.21.81.43,1.62.65,2.43.02.08.05.16.1.33Z"/>
      <path class="cls-1" d="M162.19,11.05c0-.54,0-1.09,0-1.63,0-.24-.09-.33-.33-.32-.27.01-.54,0-.82,0-.16,0-.23-.07-.24-.24-.05-.55-.02-.59.54-.59.97,0,1.94.01,2.91,0,.34,0,.36.17.36.42,0,.27-.04.45-.37.41-.24-.02-.48.01-.72,0-.27-.02-.33.1-.33.34,0,1.07,0,2.13,0,3.2,0,.3-.09.4-.39.39-.63-.01-.63,0-.63-.61,0-.46,0-.91,0-1.37Z"/>
      <path class="cls-1" d="M135.81,4.83c1.07,0,2.13,0,3.2,0,.38,0,.4.02.32.39-.35,1.62-.71,3.23-1.05,4.85-.05.25-.16.35-.43.36-2.29.05-4.57.04-6.86.06-.34,0-.67.04-1.01.05-.5,0-.51,0-.41-.49.29-1.41.56-2.82.87-4.22.24-1.11-.02-.89,1.14-.94,1.41-.05,2.83-.03,4.25-.05Z"/>
    </g>
  </g>
</svg>