<?xml version="1.0" encoding="UTF-8"?>
<svg id="Layer_2" data-name="Layer 2" xmlns="http://www.w3.org/2000/svg" viewBox="0 0 139.48 73.57">
  <defs>
    <style>
      .cls-1 {
        fill: #181818;
      }
    </style>
  </defs>
  <g id="Layer_1-2" data-name="Layer 1">
    <g>
      <path class="cls-1" d="M113.77,73.57c-.28-.11-.58-.09-.87-.12-2.17-.18-4.17-.83-5.98-2.03-2.59-1.71-4.32-4.07-5.13-7.07-.79-2.93-.6-5.81.62-8.59,1.09-2.49,2.85-4.4,5.22-5.74,1.52-.86,3.16-1.37,4.89-1.56,3.23-.35,6.26.25,8.98,2.06,2.13,1.41,3.67,3.33,4.61,5.71.46,1.15.72,2.35.83,3.58.18,2.09-.12,4.1-.92,6.03-.59,1.44-1.44,2.7-2.52,3.83-1.34,1.38-2.91,2.38-4.7,3.04-1.07.39-2.17.63-3.31.73-.33.03-.66.01-.98.12h-.74ZM120.43,60.26c-.06-1.78-1.07-3.7-3.26-4.92-1.22-.68-2.55-.87-3.93-.68-1.61.22-2.94.95-3.96,2.21-1.15,1.43-1.57,3.07-1.35,4.87.28,2.24,1.43,3.9,3.45,4.91,1.17.59,2.44.74,3.74.55,1.37-.2,2.57-.78,3.53-1.78,1.19-1.24,1.78-2.75,1.77-5.16Z"/>
      <path class="cls-1" d="M59.84,73.57c-.06-.04-.13-.06-.21-.06-.67-.03-1.35-.08-2.02-.14-1.15-.1-2.3-.26-3.43-.46-.3-.05-.33-.11-.33-.47,0-1.44,0-2.88,0-4.32,0-.18,0-.37,0-.55,0-.32.04-.35.35-.27.78.21,1.58.38,2.38.53,1.39.26,2.79.32,4.19.24.6-.03,1.2-.14,1.77-.35.29-.11.56-.24.81-.43.95-.7.96-2.06.04-2.8-.64-.51-1.38-.79-2.15-1.03-1.21-.38-2.42-.75-3.54-1.36-1.15-.62-2.17-1.4-2.89-2.52-.51-.79-.82-1.65-.95-2.58-.16-1.17-.06-2.31.29-3.43.62-1.95,1.92-3.32,3.75-4.2,1.14-.55,2.36-.83,3.62-.95.79-.08,1.57-.09,2.36-.04,1.23.07,2.45.22,3.65.46.31.06.63.13.94.2.35.09.38.12.38.48,0,.49,0,.98,0,1.48,0,.9,0,1.8,0,2.7,0,.07,0,.15,0,.22,0,.42-.03.43-.46.33-.31-.07-.62-.15-.94-.21-1.34-.28-2.69-.48-4.06-.39-.79.05-1.57.18-2.26.6-1,.61-1.13,1.74-.29,2.55.35.34.79.55,1.23.72.81.32,1.66.56,2.49.82,1.27.4,2.46.94,3.49,1.8,1.39,1.15,2.25,2.59,2.45,4.4.2,1.9-.14,3.68-1.24,5.27-.86,1.26-2.06,2.1-3.44,2.7-1.27.54-2.59.84-3.97.95-.3.02-.62,0-.91.12h-1.11Z"/>
      <path class="cls-1" d="M25.12,73.57c-.29-.12-.61-.09-.91-.12-2.23-.19-4.29-.86-6.16-2.09-2.96-1.95-4.71-4.7-5.27-8.19-.37-2.32-.2-4.61.63-6.83.52-1.39,1.26-2.64,2.25-3.74,1.99-2.23,4.49-3.5,7.41-4.02,1.1-.19,2.2-.25,3.31-.19,1.49.08,2.96.32,4.39.76.37.11.39.14.4.51,0,1.91,0,3.82,0,5.72,0,.04,0,.07,0,.11-.02.25-.07.29-.29.18-.32-.16-.65-.3-.98-.43-1.5-.59-3.07-.82-4.67-.7-1.57.12-2.97.71-4.1,1.82-.85.84-1.4,1.87-1.64,3.04-.41,1.99-.11,3.85,1.13,5.5,1.02,1.36,2.42,2.11,4.08,2.36,2.09.31,4.09-.06,6-.96.46-.22.48-.21.48.31,0,1.85,0,3.69,0,5.54,0,.05,0,.1,0,.15-.01.3-.03.33-.31.42-.53.17-1.07.29-1.61.4-1,.21-2.01.33-3.03.38-.1,0-.2,0-.28.07h-.81Z"/>
      <path class="cls-1" d="M88.95,73.57c-.27-.12-.56-.09-.83-.11-2.25-.18-4.34-.86-6.24-2.08-1.82-1.17-3.22-2.72-4.18-4.67-.75-1.52-1.14-3.13-1.26-4.82-.13-1.91.12-3.76.78-5.54.8-2.17,2.13-3.95,3.98-5.35,1.83-1.38,3.9-2.17,6.16-2.48.92-.13,1.84-.17,2.76-.12,1.53.08,3.03.31,4.49.77.32.1.33.11.33.43,0,1.94,0,3.89,0,5.83,0,.04,0,.07,0,.11-.02.19-.06.22-.23.15-.08-.03-.15-.07-.23-.11-1.12-.52-2.3-.87-3.53-1-1.21-.12-2.41-.1-3.57.32-2.44.88-3.84,2.61-4.19,5.18-.16,1.21-.01,2.39.47,3.51.76,1.79,2.1,2.94,3.96,3.49,1.41.42,2.84.36,4.27.1.94-.17,1.83-.48,2.69-.9.03-.02.07-.03.1-.05.22-.09.26-.07.28.16,0,.07,0,.15,0,.22,0,1.83,0,3.67,0,5.5,0,.07,0,.15,0,.22-.01.28-.04.32-.29.4-.83.24-1.67.43-2.52.57-.72.11-1.44.18-2.16.22-.07,0-.15.02-.21.06h-.81Z"/>
      <path class="cls-1" d="M37.01,0c.35.14.73.22,1.05.43.96.64,1.47,1.52,1.47,2.69,0,10.67-.01,21.35.01,32.02,0,1.59-1.32,3.29-3.36,3.12-1.47-.12-2.7-1.3-2.81-2.86,0-.11,0-.22,0-.33,0-10.64,0-21.27,0-31.91,0-.91.31-1.68.95-2.32.35-.34.76-.58,1.23-.73.12-.04.23-.08.35-.12.37,0,.74,0,1.11,0Z"/>
      <path class="cls-1" d="M103.73,0c.27.11.56.18.82.32,1.06.58,1.61,1.48,1.68,2.68,0,.1,0,.2,0,.3,0,10.57,0,21.14,0,31.71,0,.58-.1,1.12-.37,1.64-.84,1.6-2.96,2.13-4.45,1.1-.9-.63-1.34-1.51-1.34-2.61,0-8.25,0-16.49,0-24.74,0-2.38.03-4.75-.01-7.12-.03-1.58,1-2.9,2.4-3.21.05-.01.09-.04.14-.05.37,0,.74,0,1.11,0Z"/>
      <path class="cls-1" d="M0,22.31c.1-.09.12-.21.15-.33.36-1.21,1.38-2.17,2.89-2.24.77-.04,1.48.23,2.07.75.75.66,1.1,1.48,1.09,2.48-.01,2.05-.01,4.11,0,6.16,0,1.42-1.01,2.68-2.33,3.01-1.61.4-3.26-.54-3.73-2.15-.04-.13-.06-.27-.15-.37v-7.31Z"/>
      <path class="cls-1" d="M139.48,29.84c-.16.62-.47,1.15-.94,1.59-.92.86-2.44,1.06-3.53.42-1.06-.62-1.6-1.53-1.6-2.76,0-2.1,0-4.21,0-6.31,0-1.42.99-2.65,2.37-2.96,1.52-.35,2.89.46,3.51,1.74.09.19.13.4.19.59v7.68Z"/>
      <path class="cls-1" d="M139.48,73.05s-.1.02-.15.01c-.26-.01-.3-.04-.31-.3,0-.34,0-.69,0-1.03,0-.32,0-.64,0-1.02-.13.15-.16.27-.2.39-.2.54-.4,1.09-.6,1.63-.04.11-.08.24-.19.3-.19.11-.41.02-.5-.22-.2-.52-.38-1.04-.57-1.56-.04-.12-.08-.25-.22-.43,0,.2,0,.32,0,.44,0,.5,0,1.01,0,1.51,0,.16-.04.29-.25.29-.2,0-.27-.06-.27-.3,0-.87,0-1.75,0-2.62,0-.24.05-.27.29-.29.4-.03.45,0,.6.39.21.58.42,1.16.63,1.73.04.1.08.2.12.31.14-.06.14-.19.17-.28.21-.58.41-1.16.61-1.74.14-.41.15-.41.58-.4.09,0,.17.01.26.02v3.18Z"/>
      <path class="cls-1" d="M45.67,60.93c0,3.85,0,7.7,0,11.55q0,.58-.59.58c-1.69,0-3.37,0-5.06,0-.05,0-.1,0-.15,0-.39,0-.41-.03-.42-.42,0-.09,0-.17,0-.26,0-7.63,0-15.26,0-22.89,0-.81,0-.69.71-.69,1.62,0,3.25,0,4.87,0,.05,0,.1,0,.15,0,.49,0,.49,0,.49.5,0,3.8,0,7.6,0,11.41,0,.07,0,.15,0,.22Z"/>
      <path class="cls-1" d="M116.73,21.83c0-2.44,0-4.87,0-7.31,0-1.45.91-2.63,2.3-3.02,1.74-.49,3.64.77,3.85,2.58.03.31.05.61.05.92,0,4.63,0,9.25,0,13.88,0,.57-.08,1.13-.34,1.65-.64,1.27-2.09,1.96-3.47,1.63-1.43-.34-2.39-1.53-2.39-2.98,0-2.45,0-4.9,0-7.35Z"/>
      <path class="cls-1" d="M22.9,21.81c0,2.25,0,4.5,0,6.75,0,.31-.02.61-.05.92-.18,1.99-2.34,3.4-4.37,2.45-1.15-.53-1.74-1.5-1.78-2.77-.03-.95,0-1.89,0-2.84,0-3.91,0-7.83,0-11.74,0-1.33.6-2.32,1.8-2.9,1.87-.9,4.02.34,4.33,2.3.05.29.07.58.07.88,0,2.31,0,4.63,0,6.94Z"/>
      <path class="cls-1" d="M50.08,21.81c0-2.46.02-4.92,0-7.38-.02-1.34,1.06-2.71,2.49-2.98,1.98-.37,3.66,1.23,3.66,3,0,4.92,0,9.84,0,14.76,0,1.54-1.23,2.87-2.76,3.01-1.61.14-3.04-.89-3.35-2.44-.04-.18-.04-.37-.04-.55,0-2.47,0-4.95,0-7.42Z"/>
      <path class="cls-1" d="M83.4,21.83c0-2.39,0-4.78,0-7.16,0-.66.12-1.27.48-1.83.61-.94,1.49-1.45,2.59-1.45,1.3,0,2.42.78,2.88,2,.14.38.21.78.21,1.19,0,4.81,0,9.62,0,14.44,0,.76-.19,1.46-.68,2.06-.76.92-1.75,1.3-2.92,1.11-1.47-.24-2.49-1.43-2.55-2.93-.03-.86-.01-1.72-.01-2.58,0-1.61,0-3.22,0-4.84Z"/>
      <path class="cls-1" d="M72.86,25.99c0,1.06,0,2.12,0,3.17,0,1.59-1.22,2.94-2.74,3.05-1.67.13-3.08-.95-3.35-2.56-.03-.18-.05-.36-.05-.55,0-2.08,0-4.16,0-6.24,0-1.36.82-2.52,2.1-2.96,1.99-.69,4.02.81,4.04,2.83.01,1.08,0,2.16,0,3.25Z"/>
      <path class="cls-1" d="M134.45,71.65c0-.37,0-.74,0-1.11,0-.24-.04-.27-.28-.28-.2,0-.39,0-.59,0-.11,0-.19-.06-.19-.18,0-.13.06-.21.19-.21.09,0,.17,0,.26,0,.57,0,1.13,0,1.7,0,.07,0,.15,0,.22,0,.13,0,.25.02.26.19,0,.19-.13.21-.28.21-.12,0-.25,0-.37,0-.36,0-.38.03-.39.38,0,.63,0,1.25,0,1.88,0,.1,0,.2,0,.29,0,.16-.08.25-.25.25-.19,0-.26-.05-.27-.27-.01-.38,0-.76,0-1.14h0Z"/>
    </g>
  </g>
</svg>