<?xml version="1.0" encoding="UTF-8"?>
<svg id="Layer_2" data-name="Layer 2" xmlns="http://www.w3.org/2000/svg" viewBox="0 0 228.42 68.14">
  <defs>
    <style>
      .cls-1 {
        fill: #181818;
      }
    </style>
  </defs>
  <g id="Layer_1-2" data-name="Layer 1">
    <g>
      <path class="cls-1" d="M48.94,0c.2.09.42.06.63.07,3.52.02,6.96.59,10.29,1.73,4,1.38,7.54,3.51,10.39,6.66,2.81,3.1,4.55,6.74,5.41,10.82.24,1.17.35,2.36.46,3.57.11-.06.12-.17.14-.25,2.24-6.99,4.48-13.99,6.71-20.98.1-.32.25-.46.6-.46,4.36.01,8.72,0,13.07,0,.52,0,.54.03.37.56-1.74,5.39-3.47,10.79-5.21,16.18-2.17,6.75-4.34,13.5-6.51,20.24-1.32,4.1-3.72,7.44-7.16,10.01-2.83,2.11-6.02,3.4-9.54,3.81-2.29.27-4.56.08-6.81-.36-.15-.03-.38,0-.43-.19-.04-.18.17-.26.3-.36,4.07-3.39,7.31-7.43,9.45-12.29,1.39-3.15,2.2-6.45,2.53-9.88.3-3.15.18-6.25-.66-9.3-1-3.59-2.93-6.6-5.67-9.12-3.48-3.2-7.66-4.91-12.24-5.71-3.53-.62-7.06-.58-10.61-.06-4.61.68-8.96,2.14-13.11,4.21-3.57,1.79-6.85,4.04-9.85,6.68-3.15,2.78-5.89,5.91-8.11,9.48-2.34,3.76-4,7.79-4.74,12.18-.64,3.8-.49,7.56.69,11.24.86,2.7,2.24,5.11,4.16,7.21,3.67,4.01,8.31,6.14,13.58,7.07,2.29.4,4.59.54,6.91.43,3.85-.18,7.58-.94,11.22-2.21,2.28-.8,4.47-1.76,6.61-2.88.56-.29.59-.28.59.35,0,.59-.01,1.18,0,1.77,0,.29-.1.47-.35.62-3.48,2.04-7.13,3.71-10.99,4.93-2.56.81-5.16,1.43-7.82,1.78-2.56.34-5.14.46-7.74.34-2.88-.13-5.68-.65-8.42-1.49-3.55-1.09-6.73-2.83-9.5-5.32-3.28-2.95-5.49-6.57-6.71-10.79-.43-1.5-.63-3.04-.81-4.59-.02-.15-.05-.3-.07-.44,0-.94,0-1.87,0-2.81.02-.15.06-.3.07-.45.05-2.13.42-4.21.96-6.26,1.22-4.68,3.32-8.98,6.05-12.96,2.77-4.03,6.07-7.59,9.88-10.69,5.28-4.29,11.09-7.58,17.56-9.71,3.65-1.21,7.38-1.95,11.22-2.25.77-.06,1.54.01,2.3-.14h.91Z"/>
      <path class="cls-1" d="M112.34,20.12c.36-.33.62-.6.9-.84,3.23-2.9,7.03-4.53,11.35-4.98,2.01-.21,4-.2,5.9.54,2.85,1.12,4.58,3.21,5.18,6.22.31,1.57.08,3.12-.39,4.6-2.39,7.56-4.84,15.11-7.27,22.66-.35,1.09-.71,2.18-1.04,3.28-.1.34-.25.49-.63.49-4.39-.01-8.78,0-13.16,0-.52,0-.54-.04-.37-.56,1.87-5.76,3.74-11.53,5.61-17.29.51-1.58,1.03-3.16,1.53-4.74.39-1.21.34-2.36-.54-3.36-.88-1.01-2-1.38-3.31-1.12-3.85.76-6.38,3.01-7.57,6.75-1.53,4.79-3.05,9.59-4.57,14.38-.58,1.83-1.17,3.66-1.73,5.49-.11.36-.29.47-.65.47-4.33,0-8.65,0-12.98,0-.57,0-.6-.04-.42-.61,2.47-7.76,4.93-15.52,7.4-23.28,2.81-8.84,5.62-17.68,8.42-26.53.14-.44.32-.62.81-.62,4.27.02,8.53.01,12.8.01q.68,0,.48.65c-1.88,6-3.76,12-5.64,17.99-.03.1-.05.2-.11.41Z"/>
      <path class="cls-1" d="M42.3,47.03c-.75.61-1.52,1.12-2.32,1.6-3.05,1.84-6.34,2.99-9.89,3.34-2.61.26-5.23.25-7.79-.48-3.03-.87-5.28-3.69-5.54-6.84-.19-2.34.49-4.46,1.72-6.4,1.87-2.98,4.66-4.8,7.91-6,2.65-.97,5.42-1.49,8.19-1.97,3.97-.69,7.89-1.55,11.76-2.64.31-.09.6-.23.91-.28.92-.15,1.27-.79,1.42-1.59.1-.56.23-1.13.1-1.71-.05-.21-.13-.35-.32-.45-2.76-1.48-5.57-1.48-8.38-.18-1.32.61-2.41,1.57-3.21,2.79-.26.4-.56.51-1.02.45-2.09-.25-4.17-.47-6.26-.7-2.01-.22-4.03-.43-6.04-.64-.4-.04-.31-.21-.17-.44.73-1.17,1.54-2.28,2.46-3.3,3.4-3.73,7.53-6.15,12.51-7.1,2.99-.57,6-.65,9.03-.57,2.16.06,4.32.19,6.46.48,1.67.23,3.33.53,4.78,1.44,2.68,1.67,4.31,4.04,4.7,7.21.21,1.7-.07,3.33-.59,4.95-2.1,6.48-4.22,12.96-6.26,19.46-.34,1.09-.43,2.16-.1,3.25.1.33-.02.39-.31.39-4.25,0-8.5,0-12.76,0-.3,0-.43-.14-.55-.37-.54-1.05-.64-2.16-.43-3.31.02-.1.07-.2-.02-.39ZM46.06,34.13c-.13-.09-.21-.03-.29,0-1.67.53-3.37.95-5.08,1.36-2.06.49-4.11,1.03-6.07,1.85-1.63.68-2.83,1.79-3.29,3.55-.34,1.31.62,2.77,1.94,3.08,1.22.29,2.41.11,3.6-.11,2.22-.41,4.14-1.42,5.75-2.99,1.22-1.19,2.06-2.64,2.68-4.22.32-.83.55-1.68.77-2.53Z"/>
      <path class="cls-1" d="M207.34,47.05c-.26.2-.51.4-.78.59-3.14,2.15-6.55,3.63-10.33,4.18-2.88.42-5.76.45-8.6-.26-3.18-.8-5.49-3.59-5.8-6.85-.26-2.74.67-5.12,2.25-7.27,2.16-2.94,5.22-4.56,8.63-5.62,2.61-.81,5.3-1.23,7.97-1.73,4.09-.76,8.15-1.61,12.11-2.9.33-.11.52-.29.67-.6.4-.83.4-1.69.37-2.57,0-.23-.12-.35-.32-.45-3.97-2.03-8.78-1.09-11.23,2.21-.52.71-1.03.99-1.95.85-2.1-.32-4.23-.49-6.35-.73-1.76-.19-3.51-.38-5.27-.56-.47-.05-.49-.08-.26-.47,2.42-4,5.79-6.95,10.04-8.86,2.33-1.04,4.8-1.63,7.34-1.9,2.85-.31,5.71-.26,8.56-.13,2.31.1,4.62.3,6.87.88,3.95,1.02,6.74,4.34,7.13,8.39.13,1.4-.08,2.74-.5,4.06-2.17,6.84-4.34,13.68-6.5,20.52-.3.95-.29,1.91.04,2.85.12.35.02.42-.31.42-4.24,0-8.47,0-12.71,0-.31,0-.47-.12-.59-.38-.52-1.05-.67-2.15-.43-3.3.02-.09.03-.18.04-.27,0-.02-.03-.05-.07-.11ZM211.11,34.06c-.15.04-.25.06-.35.09-1.92.59-3.88,1.05-5.83,1.54-2.08.52-4.18,1.02-6.08,2.06-1.23.67-2.12,1.65-2.45,3.06-.38,1.62.85,3.28,2.51,3.35,2.91.12,5.53-.72,7.82-2.5,2.47-1.91,3.71-4.55,4.37-7.59Z"/>
      <path class="cls-1" d="M159.59,46.42c-1.28,1.07-2.6,2.04-4.01,2.86-1.92,1.13-3.98,1.88-6.16,2.36-1.53.34-3.07.51-4.63.44-2.8-.12-5.26-.99-6.98-3.35-1.44-1.98-1.9-4.18-1.43-6.61.55-2.89,1.64-5.62,2.52-8.41,1.99-6.29,4.04-12.57,6.07-18.85q.23-.71.96-.71c4.22,0,8.44,0,12.66,0,.69,0,.69,0,.48.65-2.31,7.22-4.62,14.45-6.94,21.67-.35,1.08-.51,2.15.06,3.21.61,1.14,1.6,1.74,2.85,1.66,3.74-.25,6.98-2.65,8.15-6.28,2.18-6.77,4.36-13.55,6.53-20.32.14-.44.34-.59.8-.59,4.3.02,8.59,0,12.89,0,.67,0,.67,0,.47.62-2.56,7.87-5.12,15.75-7.69,23.62-1.31,4.04-2.63,8.07-3.92,12.12-.14.44-.33.61-.82.61-4.24-.02-8.47-.01-12.71-.01-.64,0-.64,0-.44-.63.43-1.35.86-2.7,1.29-4.05Z"/>
      <path class="cls-1" d="M100.72,61.97c0,1.9,0,3.65,0,5.4,0,.59,0,.59-.61.6q-1.23,0-1.23-1.22c0-2.54,0-5.08,0-7.61,0-.66.01-.6.65-.68.82-.1,1.28.23,1.71.91,1.07,1.67,2.22,3.28,3.34,4.91.06.08.12.17.19.26.11-.16.06-.31.06-.45,0-1.69.01-3.38,0-5.08,0-.41.13-.55.55-.55,1.31,0,1.31,0,1.31,1.32,0,2.52,0,5.05,0,7.57,0,.61-.02.56-.6.63-.89.12-1.42-.23-1.9-.99-.99-1.57-2.1-3.07-3.16-4.6-.08-.11-.16-.21-.32-.43Z"/>
      <path class="cls-1" d="M145.11,65.45c0,.71-.01,1.42,0,2.13,0,.33-.12.47-.45.46-.26-.01-.51,0-.77,0-.14,0-.31,0-.33-.17-.06-.45-.3-.24-.51-.16-1.75.69-3.4.55-4.94-.57-.7-.51-1.09-1.25-1.36-2.04-.46-1.35-.42-2.71.09-4.04.75-1.94,2.68-3.04,4.75-2.74.77.11,1.52.23,2.15.74.57.46.95,1.04,1.16,1.74.07.25.02.42-.27.44-.12.01-.24.04-.35.07-.57.19-.93.13-1.29-.49-.53-.91-1.52-.96-2.47-.81-1.16.19-1.85.93-2.04,2.08-.18,1.07-.22,2.14.35,3.13.32.55.79.93,1.41,1.05,1.05.2,2.08.16,3-.47.25-.17.4-.97.23-1.19-.1-.13-.24-.1-.38-.1-.56,0-1.12-.01-1.68,0-.29,0-.4-.12-.42-.4-.1-1.29-.11-1.29,1.16-1.29.82,0,1.63.01,2.45,0,.37,0,.52.11.51.49-.02.71,0,1.42,0,2.13Z"/>
      <path class="cls-1" d="M130.35,58.31c2.55,0,4.71,2.01,4.68,4.99-.02,2.76-2.02,4.86-4.69,4.82-2.83-.04-4.75-2.02-4.66-4.96.08-2.53,1.64-4.88,4.67-4.85ZM132.99,63.19c.01-.76-.18-1.43-.55-2.06-.76-1.3-2.99-1.47-3.93-.3-1.05,1.3-1.09,2.72-.42,4.17.76,1.65,3.11,1.89,4.2.46.51-.67.72-1.45.7-2.27Z"/>
      <path class="cls-1" d="M108.38,63.3c.06-2.49,1.66-5.06,4.72-5.01,2.65.05,4.68,2.17,4.67,4.98,0,2.74-2.05,4.85-4.69,4.85-2.66,0-4.7-2.09-4.7-4.83ZM110.41,63.02c0,1.08.22,1.89.84,2.59.93,1.06,2.82,1.05,3.68-.06.96-1.24,1.06-2.62.45-4.01-.79-1.77-3.06-2.04-4.28-.55-.52.63-.69,1.39-.68,2.03Z"/>
      <path class="cls-1" d="M70.27,63.18c0-1.39,0-2.78,0-4.17,0-.41.13-.55.55-.55,1.95.02,3.9.02,5.85,0,.39,0,.54.12.53.52-.03,1.39.16,1.16-1.18,1.18-1.09.01-2.18.01-3.27,0-.35,0-.48.1-.49.46-.03,1.49-.04,1.49,1.45,1.49.88,0,1.75.01,2.63,0,.38,0,.52.14.49.51-.02.23-.03.46,0,.68.05.46-.16.57-.58.56-1.15-.02-2.3,0-3.45-.01-.42,0-.57.14-.54.55.03.44.03.88,0,1.31-.03.43.11.58.56.58,1.32-.03,2.63,0,3.95-.02.44,0,.62.11.61.58-.04,1.31.14,1.1-1.11,1.11-1.78.01-3.57,0-5.35,0-.64,0-.64,0-.65-.66,0-1.38,0-2.75,0-4.13Z"/>
      <path class="cls-1" d="M96.77,63.23c0,1.39-.01,2.78,0,4.17,0,.42-.12.62-.57.57-.28-.03-.58-.03-.86,0-.41.04-.52-.14-.51-.53.02-1.03,0-2.06.01-3.08,0-.38-.13-.49-.5-.49-1.04.02-2.09.02-3.13,0-.42-.01-.51.15-.5.53.02,1-.02,2,.02,2.99.02.47-.16.62-.6.58-.27-.03-.55-.02-.82,0-.4.03-.56-.1-.56-.53.01-2.81.01-5.62,0-8.43,0-.41.13-.58.55-.54.33.03.67.02,1,0,.31-.01.43.11.42.42-.01.94.01,1.87,0,2.81,0,.37.1.51.49.5,1.06-.02,2.12-.02,3.18,0,.36,0,.48-.11.47-.47-.02-.94,0-1.87-.01-2.81,0-.33.11-.47.44-.45.33.02.67.02,1,0,.39-.03.5.15.49.51,0,1.42,0,2.84,0,4.26Z"/>
      <path class="cls-1" d="M80.36,63.28c.02.95.25,1.81.96,2.5,1.09,1.04,2.8.74,3.44-.61q.35-.75,1.13-.51c.26.08.52.17.78.23.32.07.39.26.28.53-.53,1.38-1.44,2.33-2.94,2.61-1.36.26-2.68.14-3.81-.7-1.45-1.09-1.95-2.63-1.85-4.4.03-.59.15-1.16.34-1.72,1.08-3.2,5.44-3.72,7.44-1.73.4.4.6.9.81,1.4.08.19,0,.28-.18.33-.51.12-1.03.24-1.54.37-.2.05-.27-.05-.34-.21-.36-.92-1.07-1.3-2.03-1.29-1.03,0-1.71.52-2.13,1.42-.26.56-.43,1.16-.38,1.8Z"/>
      <path class="cls-1" d="M149.82,62.12c.58-1.02,1.16-1.94,1.64-2.91.28-.56.62-.84,1.26-.74.3.04.6,0,.91,0,.44,0,.47.06.24.43-.69,1.15-1.33,2.35-2.11,3.44-.78,1.09-1.12,2.23-.98,3.56.05.49,0,1,.01,1.5.02.42-.1.63-.56.58-.33-.03-.67-.02-1,0-.34.02-.45-.14-.45-.46,0-1.01,0-2.03,0-3.04,0-.36-.08-.67-.27-.98-.93-1.5-1.85-3.02-2.77-4.53-.08-.12-.23-.25-.16-.4.08-.16.27-.09.41-.09.56.01,1.19-.18,1.65.07.47.25.61.91.9,1.39.42.7.81,1.41,1.25,2.19Z"/>
      <path class="cls-1" d="M63.89,64.06c0-1.09,0-2.18,0-3.27q0-.63-.66-.63c-.54,0-1.09,0-1.63,0-.28,0-.42-.11-.42-.4.01-1.6-.17-1.28,1.19-1.29,1.85-.02,3.69,0,5.54,0,.66,0,.67,0,.66.64-.01,1.2.15,1.04-1.07,1.05-.32,0-.64,0-.95,0q-.7,0-.7.68c0,2.15,0,4.29,0,6.44q0,.68-.66.69-1.3,0-1.3-1.28c0-.88,0-1.75,0-2.63Z"/>
      <path class="cls-1" d="M119.1,63.25c0-1.39,0-2.78,0-4.17,0-.38.11-.56.52-.53.35.03.7.02,1.04,0,.34-.02.46.14.45.45,0,.89,0,1.78,0,2.67,0,1.34.01,2.69,0,4.03,0,.42.11.59.56.58,1.01-.03,2.02,0,3.04-.01.38,0,.55.09.54.51-.04,1.41.19,1.17-1.16,1.18-1.44.01-2.87,0-4.31,0q-.66,0-.67-.69c0-1.34,0-2.69,0-4.03Z"/>
    </g>
  </g>
</svg>