<?xml version="1.0" encoding="UTF-8"?>
<svg id="Layer_2" data-name="Layer 2" xmlns="http://www.w3.org/2000/svg" viewBox="0 0 120.89 47.8">
  <defs>
    <style>
      .cls-1 {
        fill: #181818;
      }
    </style>
  </defs>
  <g id="Layer_1-2" data-name="Layer 1">
    <g>
      <path class="cls-1" d="M120.89,23.12v4.01c-.04.64-.09,1.28-.13,1.93-.14,2.06-.4,4.1-.86,6.11-.38,1.66-.85,3.3-1.69,4.79-1.2,2.14-2.9,3.83-4.95,5.16-2.8,1.82-5.88,2.67-9.21,2.67-29.02,0-58.04,0-87.06,0-1.18,0-2.36-.09-3.52-.31-2.98-.58-5.61-1.87-7.88-3.9-2.07-1.85-3.43-4.13-4.18-6.8C.48,33.48.13,30.09.03,26.68c-.07-2.38,0-4.76.27-7.14.22-2.01.54-4,1.11-5.95.38-1.29.81-2.56,1.53-3.7,1.75-2.77,4.17-4.76,7.16-6.07,2.21-.97,4.54-1.37,6.94-1.37,28.3,0,56.59,0,84.89,0,.91,0,1.82,0,2.74.02,1.87.05,3.68.38,5.42,1.03,3.32,1.25,5.99,3.33,7.88,6.35.85,1.37,1.35,2.89,1.75,4.44.64,2.48.95,5.02,1.09,7.57.02.42.05.83.08,1.24ZM39.76,43.77c7.58,0,15.16,0,22.73,0q.41,0,.41-.4c0-12.15,0-24.3,0-36.45q0-.42-.41-.42c-14.89,0-29.78,0-44.66,0-.49,0-.98.02-1.46.08-1.91.26-3.71.85-5.39,1.77-1.11.61-2.14,1.33-2.98,2.28-1.38,1.55-2.25,3.36-2.85,5.32-.73,2.4-1,4.88-1.08,7.38-.07,2.36-.04,4.72.27,7.06.27,2.04.71,4.03,1.56,5.91.75,1.67,1.73,3.19,3.19,4.33,2.64,2.06,5.65,3.12,8.99,3.13,7.23.02,14.46,0,21.69,0ZM81.88,26.04c2.22,0,4.44,0,6.66,0,.32,0,.33,0,.33-.33,0-1-.02-2-.09-2.99-.07-1.13-.22-2.25-.52-3.35-.64-2.34-2.11-3.84-4.48-4.45-1.34-.34-2.7-.47-4.06-.5-.97-.03-1.95-.02-2.93.04-1.28.08-2.54.23-3.76.61-1.93.6-3.25,1.83-3.9,3.75-.53,1.55-.67,3.15-.72,4.76-.04,1.2-.04,2.41.03,3.61.07,1.13.2,2.25.48,3.35.62,2.4,2.09,3.98,4.49,4.67,1.56.45,3.16.56,4.76.6,1.25.03,2.5-.02,3.75-.14,1.15-.11,2.29-.32,3.38-.75,1.58-.63,2.64-1.74,3.16-3.37.24-.76.35-1.55.39-2.34.01-.3.01-.32-.28-.32-1.93,0-3.86,0-5.78,0-.24,0-.33.09-.36.32-.14,1.16-.75,1.82-1.89,2.05-.97.19-1.96.21-2.94.07-1.49-.22-2.16-.87-2.48-2.35-.18-.84-.19-1.69-.21-2.53-.01-.39,0-.4.39-.4,2.2,0,4.39,0,6.59,0ZM104.6,27.55c0-2.62,0-5.24,0-7.85q0-.44.45-.44c1.36,0,2.72,0,4.08,0,.37,0,.38,0,.38-.39,0-1.35,0-2.7,0-4.06,0-.35,0-.36-.35-.36-5.26,0-10.51,0-15.77,0-.35,0-.36.01-.36.36,0,1.35,0,2.7,0,4.06,0,.37.01.39.38.39,1.35,0,2.69,0,4.04,0q.49,0,.49.49c0,5.23,0,10.46,0,15.69,0,.37,0,.37.37.37,1.97,0,3.93,0,5.9,0,.38,0,.38,0,.38-.38,0-2.63,0-5.25,0-7.88Z"/>
      <path class="cls-1" d="M116.03,0c.51.07.97.23,1.39.54,1.34.98,1.25,2.91,0,3.89-.81.64-1.92.71-2.76.18-.94-.59-1.4-1.62-1.17-2.65.22-.99,1.09-1.8,2.09-1.93.07,0,.14-.03.21-.04.08,0,.16,0,.24,0ZM114.15,2.45c0,1.07.8,1.93,1.81,1.93,1.01,0,1.86-.85,1.86-1.89,0-1.03-.84-1.91-1.82-1.91-1.01,0-1.84.84-1.84,1.88Z"/>
      <path class="cls-1" d="M26.68,26.29c-2.2,0-4.39,0-6.59,0-.37,0-.38,0-.38.39,0,.83.02,1.65.2,2.46.3,1.39.98,2.03,2.39,2.22.95.13,1.9.1,2.84-.08,1.18-.23,1.76-.88,1.86-2.08.02-.25.12-.32.35-.32,1.99,0,3.98,0,5.97,0,.29,0,.32.03.31.31-.03.98-.15,1.94-.49,2.87-.61,1.63-1.8,2.65-3.43,3.2-1.09.37-2.21.55-3.35.66-.82.08-1.65.1-2.47.11-1.95.02-3.89-.04-5.78-.59-1.68-.48-3.06-1.38-3.92-2.96-.52-.95-.8-1.98-.97-3.04-.3-1.93-.33-3.87-.25-5.81.05-1.31.16-2.6.48-3.88.21-.84.51-1.63,1-2.36.73-1.09,1.75-1.79,2.97-2.22,1.09-.39,2.22-.56,3.37-.66,1.26-.12,2.53-.11,3.8-.08,1.32.04,2.63.17,3.92.51,2.39.63,3.87,2.15,4.52,4.51.36,1.31.5,2.65.57,4.01.04.83.04,1.65.04,2.48,0,.31-.02.33-.34.33-2.21,0-4.42,0-6.63,0ZM23.29,22.65c1.08,0,2.17,0,3.25,0,.02,0,.03,0,.05,0,.22.02.31-.07.3-.3,0-.5-.04-.99-.16-1.47-.23-.95-.81-1.54-1.79-1.71-1.04-.18-2.08-.19-3.12-.02-1.2.19-1.73.74-1.97,1.93-.08.39-.12.79-.13,1.19,0,.37,0,.38.36.38,1.07,0,2.14,0,3.21,0Z"/>
      <path class="cls-1" d="M41.42,29.43c.99,0,1.98,0,2.97,0,.24,0,.38.05.38.31,0,.09.03.19.05.28.21.98.84,1.49,1.79,1.67.34.07.68.11,1.03.11,1.02,0,2.05.06,3.06-.1,1.1-.16,1.47-.59,1.49-1.69,0-.32.01-.64-.05-.96-.16-.75-.6-1.23-1.36-1.39-.5-.11-1-.13-1.5-.13-1.16,0-2.33.02-3.49-.06-1.64-.11-3.28-.27-4.83-.88-1.31-.52-2.24-1.41-2.63-2.8-.14-.49-.21-.99-.24-1.49-.06-1.18-.04-2.36.24-3.52.51-2.17,1.9-3.42,4.03-3.93.92-.22,1.86-.32,2.8-.37,1.6-.09,3.19-.06,4.79-.04,1.43.01,2.85.12,4.23.52.99.29,1.89.73,2.58,1.53.61.71.89,1.56.98,2.48.04.39.04.78.04,1.18,0,.2-.06.3-.29.3-1.94,0-3.87,0-5.81,0-.14,0-.26,0-.3-.19-.21-.97-.87-1.44-1.8-1.54-1.29-.14-2.58-.11-3.85.12-.03,0-.06.01-.09.02-.7.18-.95.46-1.01,1.17-.03.34-.02.67.02,1.01.07.48.32.81.75,1.01.56.27,1.16.35,1.76.39,1.19.1,2.39.08,3.58.15,1.54.09,3.08.17,4.57.61,1.43.42,2.53,1.21,3.06,2.66.2.54.31,1.1.38,1.68.12,1.09.12,2.18-.09,3.26-.42,2.16-1.7,3.59-3.75,4.37-1.15.43-2.35.63-3.57.74-1.36.12-2.72.14-4.08.12-1.23-.03-2.47.02-3.7-.16-.78-.12-1.55-.28-2.28-.58-1.34-.54-2.26-1.49-2.74-2.85-.31-.88-.44-1.78-.46-2.71,0-.29.01-.31.3-.31,1.02,0,2.03,0,3.05,0Z"/>
      <path class="cls-1" d="M78.6,22.7c-1.08,0-2.17,0-3.25,0-.43,0-.42,0-.41-.42.01-.46.05-.91.14-1.36.25-1.25.81-1.81,2.09-1.98,1.04-.14,2.09-.13,3.12.04,1.15.19,1.74.84,1.94,2.09.07.41.11.83.1,1.24,0,.38,0,.39-.38.39-1.12,0-2.23,0-3.35,0Z"/>
      <path class="cls-1" d="M114.98,2.42c0-.32,0-.64,0-.97,0-.17.06-.25.24-.24.35,0,.69,0,1.04,0,.3,0,.66.24.72.45.09.3-.04.68-.32.87-.12.08-.12.14-.04.24.18.2.35.4.52.61.05.06.14.11.1.2-.04.07-.13.04-.19.05-.37.05-.66-.04-.86-.38-.07-.12-.18-.22-.27-.32-.06-.06-.11-.15-.21-.12-.11.03-.08.14-.09.22,0,.13,0,.25,0,.38,0,.24-.17.22-.33.22-.16,0-.31,0-.3-.22,0-.33,0-.66,0-.99ZM115.61,1.93c-.01.14,0,.29.25.28.26-.01.35-.09.35-.3,0-.21-.14-.33-.39-.34-.25,0-.22.17-.22.36Z"/>
    </g>
  </g>
</svg>