<?xml version="1.0" encoding="UTF-8"?>
<svg id="Layer_2" data-name="Layer 2" xmlns="http://www.w3.org/2000/svg" viewBox="0 0 270.49 31.01">
  <defs>
    <style>
      .cls-1 {
        fill: #181818;
      }
    </style>
  </defs>
  <g id="Layer_1-2" data-name="Layer 1">
    <g>
      <path class="cls-1" d="M64.58,0c0,2.56,0,5.12.03,7.68,0,.43-.24.48-.58.48-1.79,0-3.58,0-5.37,0-1.88,0-3.76,0-5.63,0-.39,0-.59-.1-.58-.54.02-2.54.02-5.09.02-7.63h12.12Z"/>
      <path class="cls-1" d="M75.43,0c3.22,1.37,4.41,4.1,4.88,7.29.12.8.02.87-.81.87-3.63,0-7.26,0-10.9,0-.72,0-.74-.02-.74-.75,0-2.47,0-4.95.01-7.42h7.55Z"/>
      <path class="cls-1" d="M49.17,0c0,2.54,0,5.08.02,7.62,0,.42-.18.55-.57.55-3.74,0-7.47,0-11.21,0-.46,0-.65-.17-.6-.62.33-3.37,1.59-6.13,4.92-7.55h7.44Z"/>
      <path class="cls-1" d="M85.64,15.48c0-4.77,0-9.54,0-14.3q0-.87.89-.88c7.33,0,14.67,0,22,0,2.06,0,4.11.09,6.09.74,3,.99,4.57,3.14,4.93,6.21.22,1.9.24,3.81.04,5.71-.17,1.56-.95,2.86-2.02,4-.13.14-.4.25-.04.46,1.29.77,1.78,2.02,1.81,3.4.06,3.11.02,6.22.03,9.32,0,.4-.17.52-.54.52-2.05-.01-4.11-.02-6.16,0-.49,0-.59-.19-.59-.63.01-3.11,0-6.22,0-9.32,0-1.27-.39-1.71-1.65-1.86-.39-.05-.78-.07-1.16-.07-5.12,0-10.24,0-15.36,0-.7,0-.7,0-.7.71,0,3.48,0,6.96,0,10.44,0,.73,0,.73-.74.73-2.04,0-4.07,0-6.11,0-.69,0-.71-.01-.71-.72,0-4.82,0-9.64,0-14.46ZM101.94,12.17h0c2.41,0,4.82,0,7.23,0,.57,0,1.13.01,1.69-.09.75-.14,1.26-.63,1.3-1.38.04-.7.04-1.41,0-2.12-.04-.68-.54-1.21-1.18-1.32-.37-.06-.74-.11-1.11-.11-5.37,0-10.74,0-16.1-.01-.45,0-.58.15-.57.58.02,1.27.03,2.54,0,3.81-.01.52.17.66.67.65,2.69-.02,5.39,0,8.08,0Z"/>
      <path class="cls-1" d="M207.01,15.53c0-4.82,0-9.64,0-14.47,0-.75,0-.76.78-.76,9.46,0,18.92,0,28.38,0,.78,0,.78,0,.78.8,0,1.78-.02,3.57.01,5.35,0,.54-.17.69-.7.69-6.98-.02-13.96-.01-20.94,0q-.82,0-.82.8c0,1.17,0,2.33,0,3.5,0,.74,0,.74.73.74,4.68,0,9.35,0,14.03,0q.86,0,.86.84c0,1.7-.02,3.39,0,5.09,0,.53-.15.7-.7.7-4.73-.02-9.46-.01-14.19-.01q-.74,0-.74.72c0,1.22.03,2.44-.01,3.66-.02.55.18.68.7.68,7-.01,14,0,20.99,0q.94,0,.94.93c0,1.75,0,3.5,0,5.25,0,.66-.05.71-.68.71-9.6,0-19.2,0-28.81.01-.53,0-.65-.21-.65-.69.01-4.84,0-9.68,0-14.52Z"/>
      <path class="cls-1" d="M167.89,15.48c0-4.82,0-9.64,0-14.47,0-.71,0-.72.7-.72,7.8,0,15.59-.02,23.39.02,2.46.01,4.77.65,6.71,2.26,1.58,1.32,2.36,3.1,2.85,5.03.29,1.17.41,2.37.41,3.57.01,6.24,0,12.47,0,18.71,0,.77,0,.78-.76.78-2.02,0-4.04,0-6.06,0-.75,0-.75,0-.75-.78,0-6.45,0-12.89,0-19.34,0-.51,0-1.02-.11-1.53-.25-1.21-1.02-1.88-2.26-1.89-1.91-.01-3.83,0-5.74,0-3.4,0-6.8.01-10.2-.01-.54,0-.69.15-.69.69.02,7.35.01,14.7.01,22.04q0,.82-.81.82c-1.97,0-3.93,0-5.9,0q-.8,0-.8-.83c0-4.79,0-9.57,0-14.36Z"/>
      <path class="cls-1" d="M16.81.3c5.32,0,10.63,0,15.95,0q.82,0,.82.82c0,1.7,0,3.39,0,5.09q0,.93-.91.93c-8.1,0-16.19,0-24.29,0q-.86,0-.86.86c0,1.17.03,2.33-.01,3.5-.02.54.16.69.69.69,6.93-.02,13.86-.01,20.78-.01.19,0,.39,0,.58,0,.26,0,.38.14.38.4,0,1.94,0,3.89,0,5.83,0,.27-.14.38-.4.38-.18,0-.35,0-.53,0-6.91,0-13.82,0-20.73,0q-.78,0-.78.79c0,3.43,0,6.85,0,10.28q0,.8-.78.8c-2.04,0-4.08-.01-6.11,0-.46,0-.62-.13-.62-.6C.01,20.35.01,10.64,0,.92,0,.37.24.29.71.29c5.37.01,10.74,0,16.11,0Z"/>
      <path class="cls-1" d="M137.47.3c4.37,0,8.75,0,13.12,0,.77,0,.77,0,.77.77,0,1.77,0,3.53,0,5.3,0,.77,0,.77-.76.77-3.9,0-7.79,0-11.69,0-1.04,0-.96-.12-.96.98,0,7.22,0,14.44,0,21.67q0,.88-.86.88c-1.97,0-3.93,0-5.9,0q-.81,0-.81-.83c0-7.17,0-14.34,0-21.51,0-.16,0-.32,0-.48,0-.71,0-.72-.7-.72-1.72,0-3.44,0-5.15,0-1.24,0-1.09.14-1.09-1.11,0-1.68.02-3.36-.01-5.03,0-.54.16-.7.7-.7,4.45.02,8.89,0,13.34,0Z"/>
      <path class="cls-1" d="M254.55.3c4.39,0,8.79,0,13.18,0,.76,0,.77,0,.77.77,0,1.8-.01,3.6,0,5.4,0,.5-.16.67-.67.67-4.02-.02-8.04,0-12.06,0q-.73,0-.74.72c0,7.33,0,14.66,0,21.99q0,.82-.8.82c-1.91,0-3.83,0-5.74,0q-.96,0-.96-.94c0-7.26,0-14.52,0-21.78q0-.82-.8-.82c-1.86,0-3.72-.01-5.58,0-.5,0-.64-.17-.64-.64.02-1.84,0-3.67,0-5.51,0-.66.03-.69.69-.69,4.45,0,8.89,0,13.34,0Z"/>
      <path class="cls-1" d="M162.42,15.53c0,4.8,0,9.61,0,14.41,0,.78,0,.79-.81.79-2,0-4-.01-6,0-.52,0-.7-.15-.7-.69.02-9.68.01-19.35.01-29.03,0-.69.01-.71.72-.71,2.02,0,4.04,0,6.06,0,.72,0,.73.01.73.76,0,4.82,0,9.64,0,14.46Z"/>
      <path class="cls-1" d="M74.14,11.43c1.84,0,3.69.01,5.53,0,.51,0,.68.16.67.67-.02,2.28-.02,4.56,0,6.84,0,.5-.16.69-.67.69-3.72-.01-7.44-.01-11.16,0-.48,0-.65-.18-.65-.66.02-2.3.02-4.59,0-6.89,0-.48.15-.65.64-.64,1.88.02,3.76,0,5.63,0Z"/>
      <path class="cls-1" d="M42.97,19.53c-1.84,0-3.68-.01-5.52,0-.49,0-.64-.15-.64-.64.02-2.29.02-4.59,0-6.88,0-.47.17-.6.62-.6,3.72.01,7.44.01,11.15,0,.46,0,.62.15.62.61-.02,2.29-.02,4.59,0,6.88,0,.49-.18.64-.65.63-1.86-.02-3.72,0-5.58,0Z"/>
      <path class="cls-1" d="M58.47,30.97c-1.79,0-3.58-.02-5.36,0-.52,0-.67-.17-.67-.67.02-2.26.02-4.52,0-6.78,0-.55.19-.69.71-.68,3.59.02,7.19.02,10.78,0,.54,0,.69.18.69.7-.02,2.24,0,4.48-.01,6.72,0,.69,0,.7-.72.7-1.81,0-3.61,0-5.42,0Z"/>
      <path class="cls-1" d="M74.1,22.8c1.84,0,3.68,0,5.52,0,.65,0,.75.07.69.69-.27,2.79-1.24,5.24-3.64,6.93-.56.39-1.18.58-1.89.57-2.09-.04-4.18-.03-6.27,0-.52,0-.67-.18-.66-.68.02-2.26,0-4.52,0-6.78,0-.7.04-.73.77-.73,1.82,0,3.65,0,5.47,0Z"/>
      <path class="cls-1" d="M43.06,22.8c1.79,0,3.58,0,5.36,0,.73,0,.76.04.76.73,0,2.26-.01,4.52,0,6.78,0,.5-.15.68-.67.67-1.91-.02-3.83-.09-5.73.02-1.41.08-2.5-.46-3.41-1.4-1.61-1.66-2.45-3.69-2.58-5.99-.04-.8,0-.81.78-.81,1.82,0,3.65,0,5.47,0Z"/>
      <path class="cls-1" d="M266.75,30.66c-2.05,0-3.7-1.67-3.71-3.72,0-2.04,1.7-3.74,3.72-3.72,2.03.02,3.75,1.74,3.72,3.74-.03,2.05-1.69,3.7-3.74,3.7ZM266.76,30.1c1.8,0,3.21-1.41,3.2-3.19-.01-1.73-1.47-3.14-3.22-3.14-1.76,0-3.13,1.4-3.13,3.19,0,1.81,1.34,3.14,3.15,3.14Z"/>
      <path class="cls-1" d="M265.31,26.82c0-.51,0-1.02,0-1.53,0-.34.11-.53.49-.52.53.02,1.06-.01,1.59.01.98.04,1.47.94.96,1.76-.14.22-.17.36-.03.6.28.47.16,1.03.26,1.55.03.17-.1.21-.23.22-.17.02-.32-.02-.38-.2-.09-.29-.12-.59-.12-.89,0-.44-.24-.63-.66-.66-1.19-.09-1.19-.1-1.2,1.1,0,.07,0,.14,0,.21,0,.23-.03.44-.33.43-.3,0-.32-.23-.32-.45,0-.55,0-1.09,0-1.64,0,0,0,0,0,0ZM266.82,25.37h0c-.14-.01-.28,0-.42-.02-.46-.03-.44.29-.44.6,0,.31-.07.67.44.65.33-.01.67,0,1-.02.35-.03.44-.3.45-.6,0-.32-.1-.56-.45-.6-.19-.02-.39,0-.58,0Z"/>
    </g>
  </g>
</svg>