<?xml version="1.0" encoding="UTF-8"?>
<svg id="Layer_2" data-name="Layer 2" xmlns="http://www.w3.org/2000/svg" viewBox="0 0 260.5 54.34">
  <defs>
    <style>
      .cls-1 {
        fill: #181818;
      }
    </style>
  </defs>
  <g id="Layer_1-2" data-name="Layer 1">
    <g>
      <g>
        <path class="cls-1" d="M101.38,19.99c-1.98,5-3.96,10.01-5.95,15.01-.96,2.42-2,4.82-2.86,7.28-.47,1.33-1.2,1.85-2.6,1.8-1.41-.05-2.57-.02-3.24-1.73-2.81-7.23-5.77-14.41-8.69-21.61-.15-.37-.1-.88-.81-1.11,0,3.16,0,6.24,0,9.32,0,4.35-.05,8.7.02,13.05.02,1.52-.49,2.07-2.04,2.07-3.7,0-3.7.06-3.7-3.56,0-9.26.05-18.51-.04-27.77-.02-1.9.59-2.45,2.45-2.43,6.13.05,6.15-.02,8.4,5.64,2.27,5.71,4.51,11.44,6.77,17.16.15.38.15.87.87,1.08,1.19-2.89,2.4-5.78,3.59-8.69,1.83-4.48,3.69-8.96,5.45-13.47.49-1.25,1.19-1.75,2.5-1.69,1.49.08,2.98.06,4.47,0,1.32-.05,1.83.45,1.94,1.82.32,4.04.15,8.07.18,12.11.04,5.72.02,11.43,0,17.15-.01,2.46-.2,2.61-2.67,2.63q-3.62.02-3.62-3.65c0-6.77,0-13.53,0-20.3-.14-.04-.28-.07-.42-.11Z"/>
        <path class="cls-1" d="M240.6,34.43c0,2.61-.03,5.22.01,7.83.02,1.24-.45,1.8-1.75,1.79-4.98-.06-4.28.41-4.31-4.06-.03-4.29-.05-8.58.01-12.87.02-1.53-.15-2.55-2.1-2.25-1.76.27-2.05-.91-1.99-2.34.05-1.36-.26-2.97,1.92-2.79,1.8.15,2.23-.7,2.17-2.32-.16-3.93,1.22-7.08,5-8.78,1.55-.7,3.21-.84,4.92-.75,1.89.1,2.58.96,2.47,2.85-.13,2.41-.03,2.45-2.4,2.27-1.42-.1-2.61.23-3.34,1.53-.8,1.44-.74,2.99-.42,4.53.12.58.74.61,1.24.61,1.74.02,3.48,0,5.22.02,1.01,0,1.39-.49,1.47-1.48.33-4.09.37-4.05,4.31-5.15,1.2-.33,1.82-.16,1.73,1.2-.01.19,0,.37,0,.56.08,1.42-.48,3.05.25,4.22.87,1.39,2.63.47,3.99.66.9.13,1.29.5,1.39,1.4.35,3.16.06,3.51-3.16,3.53-2.46.02-2.47.02-2.47,2.52,0,3.05-.03,6.09.02,9.14.04,2.66,1.19,3.66,3.78,3.14,1.46-.29,1.85.13,1.85,1.54,0,2.9-.13,3.13-2.99,3.6-5.06.84-8.59-2.02-8.69-7.12-.06-3.54-.1-7.09.01-10.63.06-1.76-.6-2.35-2.27-2.19-1.36.13-2.74.24-4.09.13-1.63-.13-1.82.69-1.78,2,.07,2.55.02,5.1.02,7.65h0Z"/>
        <path class="cls-1" d="M159.9,31.87c-.28-12.04,11.33-14.8,19.25-11.2,1.76.8,3.06,2.32,4.03,4.02,2.71,4.72,1.85,12.57-1.78,16.39-3.64,3.83-10.43,4.9-15.55,2.22-4.44-2.32-6.09-6.3-5.95-11.43ZM178.56,32.1c.09-1.2-.1-2.36-.43-3.5-.76-2.63-2.62-4.18-5.2-4.34-2.86-.17-5.14,1.07-6.14,3.6-1.09,2.75-1.18,5.59.02,8.35,1.04,2.4,3.29,3.56,6.27,3.37,2.66-.17,4.31-1.53,5.07-4.18.31-1.08.51-2.18.42-3.31Z"/>
        <path class="cls-1" d="M218.37,19.28c7.45.02,12.06,4.64,12.1,12.16.05,8.09-5.02,13.33-12.83,13.28-7.53-.05-12.21-4.95-12.18-12.77.03-7.9,4.91-12.69,12.91-12.67ZM224.14,32.11c0-1.05-.04-2.1-.29-3.14-.75-3.06-2.74-4.69-5.81-4.72-3.07-.03-5.31,1.74-6.06,4.72-.5,1.97-.49,3.91-.02,5.88.83,3.48,3.98,5.44,7.48,4.66,3.27-.74,4.7-2.98,4.7-7.4Z"/>
        <path class="cls-1" d="M196.39,19.26c.62.03,1.24.02,1.86.09,3.79.43,3.98.7,3.92,4.46-.02,1.44-.34,2.01-1.82,1.22-1.52-.82-3.2-.95-4.9-.81-1.01.09-1.83.53-2.11,1.54-.3,1.08.13,1.95,1.05,2.57,1.2.8,2.54,1.29,3.85,1.86,3.78,1.65,5.32,4,5.05,7.61-.23,3.15-2.54,5.56-6.24,6.54-1.77.47-3.56.48-5.36.26-.25-.03-.49-.09-.73-.14-3.73-.67-4.71-2.18-3.81-5.82.27-1.08.84-.64,1.38-.37,1.8.89,3.63,1.66,5.69,1.52,1.27-.08,2.59-.22,2.93-1.75.33-1.5-.67-2.29-1.86-2.86-1.45-.7-2.95-1.31-4.38-2.06-4.88-2.55-5.19-9.27-.56-12.28,1.82-1.19,3.86-1.68,6.03-1.59Z"/>
        <path class="cls-1" d="M122.61,32.36c0-10.35,8.41-14.78,17.24-12.56,1.34.33,2.02,1.12,1.88,2.55-.04.37,0,.74,0,1.12q0,2.68-2.47,1.6c-3.55-1.56-6.99-.79-9.01,2.01-2.09,2.9-1.98,7.76.23,10.28,2.11,2.41,5.84,2.9,9.26,1.22,1.93-.95,1.96-.93,1.99,1.24.04,3.55-.16,3.79-3.67,4.54-7.36,1.56-13.39-1.83-15.14-8.48-.31-1.16-.29-2.33-.3-3.51Z"/>
        <path class="cls-1" d="M151.61,23.08c1.6-2.58,3.55-3.92,6.33-3.72,1.21.08,2.05.53,1.81,1.97-.03.18-.02.37-.03.56-.05,1.05.26,2.34-.24,3.09-.67,1.02-1.9-.11-2.92-.07-2.37.1-4.18,1.55-4.72,4.2-.76,3.69-.26,7.43-.36,11.14-.1,4.1.49,3.71-3.82,3.82-1.79.05-2.24-.75-2.23-2.34.04-5.21.01-10.43.01-15.64,0-.87,0-1.74,0-2.61,0-3.71,1.19-4.6,4.88-3.68q1.02.25,1.28,3.29Z"/>
        <path class="cls-1" d="M119.01,31.98c0,3.35-.04,6.7.02,10.06.02,1.37-.36,2.05-1.89,2.02-4.63-.09-4.15.44-4.16-4.03-.02-5.96-.01-11.92,0-17.88,0-2.24.18-2.39,2.47-2.42q3.56-.05,3.56,3.51c0,2.92,0,5.84,0,8.75Z"/>
        <path class="cls-1" d="M116.13,16.42c-1.97.01-3.54-1.42-3.57-3.26-.03-1.94,1.57-3.53,3.56-3.54,1.91-.01,3.52,1.48,3.58,3.32.06,1.9-1.55,3.47-3.57,3.48Z"/>
      </g>
      <g>
        <rect class="cls-1" width="25.16" height="25.16"/>
        <rect class="cls-1" x="29.16" width="25.16" height="25.16"/>
        <rect class="cls-1" x="0" y="29.19" width="25.16" height="25.16"/>
        <rect class="cls-1" x="29.16" y="29.19" width="25.16" height="25.16"/>
      </g>
    </g>
  </g>
</svg>