<?xml version="1.0" encoding="UTF-8"?>
<svg id="Layer_2" data-name="Layer 2" xmlns="http://www.w3.org/2000/svg" viewBox="0 0 242.75 58.83">
  <defs>
    <style>
      .cls-1 {
        fill: #181818;
      }
    </style>
  </defs>
  <g id="Layer_1-2" data-name="Layer 1">
    <g>
      <path class="cls-1" d="M0,57.28c1.02-3.15,1.74-6.39,2.58-9.59,2.44-9.28,4.86-18.56,7.26-27.85.2-.77.54-1.1,1.36-1.07,1.48.06,2.98.06,4.46,0,.87-.04,1.21.28,1.38,1.12,1.52,7.45,3.08,14.89,4.63,22.34.71,3.43,1.42,6.86,2.14,10.29.06.29,0,.73.38.79.3.05.42-.33.59-.56,8.12-11.04,16.25-22.08,24.35-33.13.44-.6.92-.86,1.66-.84,1.49.04,2.97,0,4.46.01,1.11,0,1.15.05.87,1.14-1.53,5.96-3.08,11.92-4.61,17.87-1.63,6.32-3.28,12.65-4.87,18.98-.22.89-.64,1.19-1.51,1.12-.79-.06-1.58-.04-2.37,0-.76.04-.93-.24-.72-.96,1.19-4.26,2.34-8.52,3.51-12.78,1.82-6.63,3.64-13.27,5.44-19.91.09-.32.28-.64.1-1.14-.84,1.12-1.63,2.17-2.4,3.22-7.5,10.2-15.01,20.4-22.49,30.62-.5.68-1.04,1.01-1.9.94-.79-.07-1.58-.05-2.37,0-.78.05-1.12-.25-1.28-1.02-1.49-7.17-3.01-14.33-4.52-21.49-.83-3.92-1.65-7.84-2.49-11.76-.07-.32-.07-.68-.32-.98-.32.25-.3.62-.38.93-2.72,10.96-5.43,21.93-8.15,32.89-.35,1.4-.35,1.41-1.83,1.4-.98,0-1.96-.03-2.94-.05,0-.19,0-.38,0-.57Z"/>
      <path class="cls-1" d="M217.74,37.73c2.79-2.42,5.4-4.61,7.93-6.89,1.08-.98,2.16-1.51,3.7-1.46,4.11.12,8.22.04,12.33.05.33,0,.69-.1,1.05.15-.18.4-.56.58-.87.81-4.43,3.31-8.86,6.63-13.31,9.9-.64.47-.74.84-.37,1.55,2.57,4.96,5.09,9.95,7.63,14.92.57,1.11.56,1.14-.65,1.14-3.99,0-7.97-.02-11.96.02-.82,0-1.24-.28-1.56-1.03-1.19-2.75-2.48-5.46-3.65-8.22-.37-.86-.65-.79-1.36-.35-1.46.91-2.31,2.09-2.58,3.82-.25,1.61-.8,3.18-1.16,4.78-.16.71-.48.99-1.22.98-3.73-.03-7.46-.03-11.2,0-.83,0-.95-.31-.77-1.03,3.1-12.36,6.18-24.73,9.25-37.1.19-.75.54-1.01,1.31-1.01,3.64.03,7.27.01,10.91.02,1.14,0,1.2.07.92,1.21-1.34,5.45-2.69,10.9-4.04,16.36-.09.36-.17.73-.32,1.37Z"/>
      <path class="cls-1" d="M166.95,18.79c6.3,0,12.59,0,18.89,0,1.44,0,1.45.01,1.09,1.44-.7,2.79-1.41,5.57-2.08,8.36-.18.77-.49,1.09-1.34,1.09-12.84-.02-25.69-.02-38.53,0-.8,0-1.06-.18-.84-1.03.77-2.93,1.48-5.87,2.17-8.82.18-.79.55-1.06,1.37-1.06,6.42.03,12.84.02,19.27.02Z"/>
      <path class="cls-1" d="M162.94,34.73c2.12,0,4.24.02,6.36-.01.73,0,.96.21.78.95-1.8,7.13-3.59,14.25-5.36,21.39-.16.64-.48.86-1.12.86-4.24-.02-8.47-.02-12.71,0-.73,0-.95-.23-.77-.96,1.79-7.13,3.56-14.26,5.32-21.39.16-.65.52-.84,1.15-.84,2.12.02,4.24,0,6.36,0Z"/>
      <path class="cls-1" d="M126.09,58.83c-3.04-.13-5.88-.49-8.45-1.99-3.16-1.84-4.92-4.64-5.25-8.21-.51-5.61,1.15-10.57,5.17-14.58,3.34-3.33,7.49-4.94,12.19-5.21,2.74-.16,5.42.07,8.02,1.04,4.87,1.81,7.52,6.25,6.99,11.42-.36,3.56-1.29,6.87-3.32,9.84-3.14,4.57-7.59,6.9-13.03,7.5-.82.09-1.64.14-2.32.2ZM140.46,41.83c.01-5.26-1.91-8.18-5.48-9.35-2.67-.87-5.41-.92-8.12-.17-6.75,1.88-10.75,9.06-10.23,15.41.25,3.09,1.61,5.6,4.57,6.89,3.49,1.52,7.12,1.62,10.58.03,5.93-2.73,8.23-7.83,8.68-12.82Z"/>
      <path class="cls-1" d="M187.65,57.9c-1.87,0-3.73-.02-5.6.01-.81.02-.97-.29-.78-1.03,1.77-7.07,3.53-14.14,5.27-21.21.18-.73.55-.95,1.26-.95,3.7.02,7.4.03,11.1,0,.88,0,1,.32.81,1.09-1.77,7.07-3.53,14.14-5.26,21.22-.16.64-.44.89-1.1.89-1.9-.03-3.79,0-5.69,0Z"/>
      <path class="cls-1" d="M71.45,43.05c.41.1.58-.12.78-.26,6-4.16,11.99-8.32,17.98-12.5.68-.47,1.35-.74,2.19-.7,1.37.05,2.75.01,4.12.01.02.08.04.15.07.23-.52.38-1.04.77-1.58,1.13-4.37,2.96-8.74,5.91-13.11,8.87-1.06.72-1.06.72-.41,1.82,2.99,5.05,5.98,10.11,8.96,15.16.58.99.53,1.07-.61,1.08-.76,0-1.52-.06-2.28.02-.9.09-1.37-.32-1.8-1.05-2.56-4.39-5.15-8.76-7.74-13.14-.6-1.01-.6-1.01-1.61-.32-1.82,1.26-3.62,2.54-5.45,3.79-.51.35-.78.77-.92,1.36-.69,2.79-1.44,5.56-2.12,8.35-.18.74-.51,1.08-1.3,1.01-.69-.06-1.39,0-2.09-.01-1.13,0-1.17-.05-.89-1.12.85-3.33,1.7-6.66,2.55-9.99,1.37-5.35,2.76-10.69,4.09-16.05.22-.87.59-1.23,1.49-1.15.69.07,1.39.04,2.09,0,.81-.04.98.28.78,1.03-.76,2.83-1.49,5.67-2.23,8.51-.34,1.3-.65,2.61-.98,3.91Z"/>
      <path class="cls-1" d="M101.76,35.52c.26-.34.5-.65.74-.96,3.26-4.2,7.64-5.69,12.8-5.32.48.03.71.21.57.72-.02.06-.03.12-.04.19q-.56,2.69-3.29,2.71c-6.1.05-10.79,3.77-12.45,9.97-1.24,4.63-2.43,9.28-3.59,13.93-.21.85-.55,1.26-1.47,1.17-.69-.07-1.39-.05-2.09,0-.84.05-1.03-.21-.81-1.05,1.29-4.88,2.54-9.77,3.8-14.66.99-3.82,2-7.63,2.94-11.46.21-.84.54-1.27,1.47-1.17.62.07,1.26.04,1.9.01.69-.03.81.29.65.88-.39,1.46-.77,2.93-1.15,4.39-.04.17-.17.35.02.64Z"/>
      <path class="cls-1" d="M194.66,29.68c-1.83,0-3.67-.02-5.5.01-.79.02-1.1-.18-.87-1.03.78-2.99,1.53-5.99,2.26-8.99.15-.62.45-.89,1.11-.89,3.76.02,7.53.02,11.29,0,.71,0,.97.2.78.95-.78,3.02-1.53,6.06-2.25,9.09-.15.64-.48.87-1.12.86-1.9-.03-3.79,0-5.69,0h0Z"/>
      <path class="cls-1" d="M55.27,57.9q-2.1,0-1.57-2.05c2.17-8.36,4.35-16.71,6.48-25.08.23-.91.64-1.27,1.56-1.18.63.06,1.26,0,1.89.01,1.09.01,1.15.09.87,1.15-.96,3.69-1.91,7.38-2.87,11.08-1.26,4.85-2.52,9.7-3.77,14.55q-.39,1.52-1.93,1.52c-.22,0-.44,0-.66,0Z"/>
      <path class="cls-1" d="M83.52,24.53c-4.98,2.28-13,1.68-18.92-4.05-5.83-5.65-6.64-13.54-4.72-18.62,1.9,13.91,9.82,21.36,23.64,22.67Z"/>
      <path class="cls-1" d="M85.35,18.1c-4.45,2.11-11.29,1.08-15.74-3.52-4.12-4.26-4.97-10.69-3.38-14.58.88,4.95,2.35,9.45,5.99,12.94,3.66,3.51,8.25,4.69,13.14,5.16Z"/>
    </g>
  </g>
</svg>