<?xml version="1.0" encoding="UTF-8"?>
<svg id="Layer_2" data-name="Layer 2" xmlns="http://www.w3.org/2000/svg" viewBox="0 0 193.24 41.89">
  <defs>
    <style>
      .cls-1 {
        fill: #181818;
      }
    </style>
  </defs>
  <g id="Layer_1-2" data-name="Layer 1">
    <g>
      <path class="cls-1" d="M0,.02C.62.02,1.23,0,1.84,0c9.29,0,18.59-.02,27.88.01,2.6,0,5.07.62,7.33,1.95,2.65,1.57,4.31,3.91,5.27,6.79.1.29.2.58.26.87.05.28.17.37.46.37,3.04-.01,6.09,0,9.13,0,.44,0,.44,0,.6.4,1.41,3.63,2.83,7.27,4.24,10.9,1.2,3.08,2.39,6.15,3.59,9.23.05.12.07.26.24.41,0-.2,0-.34,0-.49,0-6.71,0-13.42-.01-20.12,0-.27.1-.33.35-.33,3.95,0,7.9,0,11.85,0,.22,0,.36.05.44.29.94,2.64,1.9,5.29,2.85,7.93.39,1.09.79,2.19,1.19,3.28.02.07.05.13.14.2,0-.15,0-.3,0-.45,0-3.61,0-7.23,0-10.84,0-.39,0-.4.38-.4,2.75,0,5.5,0,8.24,0,.41,0,.41,0,.41.39,0,10.4,0,20.8,0,31.21,0,.1-.01.2-.02.29h-11.8c-.03-.09-.06-.19-.1-.28-.33-.79-.66-1.58-.99-2.38-1.21-2.89-2.41-5.77-3.63-8.66-.03-.07-.03-.18-.14-.21-.06.08-.04.18-.04.26,0,3.65,0,7.29,0,10.94,0,.11,0,.22.04.32h-15.57s-.02-.09-.03-.13c-.72-1.78-1.44-3.56-2.15-5.35-.08-.2-.19-.26-.4-.26-1.55-.02-3.1.02-4.65-.03-1.57-.05-3.14,0-4.71-.01-.22,0-.33.08-.39.27-.1.29-.22.57-.32.85-.59,1.55-1.19,3.1-1.78,4.66h-10.61c.2-.3.29-.65.43-.98,1.77-4.36,3.54-8.72,5.3-13.08.06-.14.22-.32.1-.44-.09-.09-.28.04-.43.08-1.59.51-3.22.79-4.89.79-3.57,0-7.14,0-10.72,0q-.39,0-.39.4c0,4.27,0,8.55,0,12.82,0,.13-.01.27-.02.4-6.17,0-12.34,0-18.51,0-.2,0-.25-.05-.25-.25C0,27.77,0,13.9,0,.02ZM19.68,13.87h0c0,.43,0,.86,0,1.29,0,1.97,0,3.93,0,5.9,0,.18.02.31.26.31,1.01,0,2.01.02,3.02,0,1.24-.03,2.08-.88,2.09-2.1,0-3.55,0-7.1,0-10.65,0-.41-.09-.8-.26-1.17-.29-.62-.76-1.04-1.47-1.06-1.14-.03-2.28,0-3.42-.01-.15,0-.22.06-.21.21,0,.11,0,.21,0,.32,0,2.33,0,4.65,0,6.98ZM48.91,29.47c.48,0,.97,0,1.45,0,.28,0,.3-.03.2-.3-.08-.23-.17-.45-.26-.68-.89-2.39-1.78-4.78-2.67-7.16-.03-.08-.03-.2-.14-.2-.09,0-.09.12-.12.19-.23.61-.47,1.22-.7,1.83-.75,1.99-1.5,3.98-2.25,5.97-.1.26-.07.3.21.29,1.43-.04,2.85.07,4.28.06Z"/>
      <path class="cls-1" d="M90.69,41.88c0-.62,0-1.23,0-1.85,0-9.82,0-19.64,0-29.46,0-.8,0-.8.8-.8,6.16,0,12.32,0,18.48,0,1.01,0,2.01.08,2.96.47,1.81.75,2.77,2.08,2.84,4.04,0,.12,0,.23,0,.35,0,7.51,0,15.02,0,22.54,0,.63-.05,1.27-.24,1.88-.42,1.41-1.44,2.17-2.82,2.52-.4.1-.81.14-1.23.19.04.1.14.06.18.11h-20.96ZM102.01,25.24h0c0,2.77,0,5.54,0,8.32,0,.37,0,.37.38.37.78,0,1.56,0,2.34,0,.77,0,1.21-.3,1.45-1.03.16-.46.17-.95.17-1.43,0-4.12,0-8.24,0-12.37,0-.3-.02-.59-.05-.88-.09-.72-.68-1.55-1.58-1.62-.78-.06-1.56-.01-2.34-.03-.36,0-.36,0-.37.37,0,2.76,0,5.53,0,8.29Z"/>
      <path class="cls-1" d="M124.58,41.88c.1-.08.23-.04.38-.12-.64-.08-1.2-.26-1.74-.48-1.41-.57-2.58-1.45-3.33-2.8-.5-.9-.75-1.88-.76-2.9-.01-3.92,0-7.84,0-11.75,0-4.52,0-9.03,0-13.55,0-.33.01-.35.35-.35,3.3,0,6.59,0,9.89,0,.17,0,.26.01.26.23-.01,5.04,0,10.07-.03,15.11-.02,2.3-.03,4.6-.04,6.89,0,.53.02,1.05.11,1.58.12.74.5,1.05,1.25,1.05.73,0,1.45,0,2.18,0,.56,0,.84-.2,1.02-.73.1-.29.14-.59.14-.9,0-1.26.03-2.52,0-3.78-.06-1.87.02-3.74-.05-5.61-.06-1.46-.02-2.91-.04-4.37-.06-3.01-.05-6.03-.06-9.04,0-.35.01-.36.36-.36,2.63,0,5.26,0,7.89,0,.24,0,.35.05.35.33,0,8.31,0,16.62-.02,24.93,0,1.64-.39,3.21-1.36,4.59-.75,1.07-1.79,1.7-3.07,1.97.04.03.07.06.11.08h-13.79Z"/>
      <path class="cls-1" d="M165.1,41.88c.05-.12.04-.25.04-.37,0-8.21,0-16.42,0-24.63q0-.37-.37-.37c-2.08,0-4.17,0-6.25,0-.38,0-.38,0-.38-.39,0-1.96,0-3.92,0-5.88,0-.36,0-.36.36-.36,7.77,0,15.53,0,23.3,0,.27,0,.35.08.35.35-.01,1.98,0,3.95,0,5.93,0,.35,0,.36-.36.36-2.16,0-4.31,0-6.47,0-.27,0-.35.07-.35.35,0,8.23,0,16.46,0,24.69,0,.12-.01.23.04.34h-9.91Z"/>
      <path class="cls-1" d="M146.14,41.88c0-.12-.02-.25-.02-.37,0-10.35,0-20.71,0-31.06q0-.46.46-.46c3.07,0,6.14,0,9.21,0q.39,0,.39.38c0,5.13,0,10.27,0,15.4,0,5.25,0,10.5,0,15.75,0,.12-.02.25.04.37h-10.08Z"/>
      <path class="cls-1" d="M192.43,11.91c-.19.27-.26.58-.37.88-.32.87-.64,1.75-.95,2.62-.07.18-.15.31-.38.31-.24,0-.31-.15-.36-.32-.32-.96-.63-1.92-.95-2.88-.05-.16-.11-.32-.19-.53-.12.61-.06,1.17-.12,1.73-.06.59-.09,1.18-.12,1.76-.02.31-.25.21-.42.23-.19.02-.26-.08-.25-.26.06-.85.12-1.69.18-2.54.04-.58.1-1.16.13-1.74.01-.21.1-.29.3-.28.08,0,.16,0,.24,0,.26-.04.39.09.47.33.35,1.1.79,2.17,1.1,3.28,0,.02.02.05.06.11.13-.4.24-.78.38-1.15.27-.77.56-1.53.84-2.29.09-.24.7-.39.9-.22.06.05.06.13.07.2.08.38.05.77.08,1.15.08,1.01.13,2.03.18,3.05.02.33-.25.49-.56.35-.1-.05-.11-.13-.11-.22-.05-.92-.1-1.84-.15-2.76-.02-.27.02-.53.01-.81Z"/>
      <path class="cls-1" d="M186.51,13.6c0,.6,0,1.2,0,1.8,0,.24-.08.33-.33.33-.25,0-.35-.07-.35-.33,0-1.18,0-2.36,0-3.54,0-.37,0-.37-.38-.38-.27,0-.54,0-.81,0-.2,0-.27-.1-.27-.28,0-.19.08-.28.27-.28,1.02,0,2.04,0,3.07,0,.2,0,.26.1.26.29,0,.19-.07.28-.27.28-.31,0-.63,0-.94,0-.19,0-.25.07-.25.26,0,.63,0,1.25,0,1.88h0Z"/>
    </g>
  </g>
</svg>