<?xml version="1.0" encoding="UTF-8"?>
<svg id="Layer_2" data-name="Layer 2" xmlns="http://www.w3.org/2000/svg" viewBox="0 0 262.21 53.95">
  <defs>
    <style>
      .cls-1 {
        fill-rule: evenodd;
      }

      .cls-1, .cls-2 {
        fill: #181818;
      }
    </style>
  </defs>
  <g id="Layer_1-2" data-name="Layer 1">
    <g>
      <g>
        <path class="cls-2" d="M40.34,47.71v-7.99h1.61l1.89,5.67c.19.52.28.9.38,1.18.09-.28.24-.71.43-1.28l1.94-5.58h1.42v7.99h-1.04v-6.71l-2.32,6.71h-.95l-2.32-6.81v6.81h-1.04Z"/>
        <path class="cls-2" d="M53.34,47c-.38.33-.71.52-1.04.66s-.71.19-1.09.19c-.61,0-1.13-.14-1.47-.47-.33-.33-.52-.71-.52-1.18,0-.28.05-.52.19-.76.14-.24.28-.43.52-.57.19-.14.43-.24.71-.33.19-.05.47-.09.85-.14.8-.09,1.37-.19,1.75-.33v-.24c0-.43-.09-.66-.28-.85-.24-.24-.61-.33-1.13-.33-.47,0-.8.09-1.04.24-.24.14-.38.47-.47.85l-.95-.14c.09-.43.24-.76.43-.99s.47-.43.85-.57c.38-.14.8-.19,1.32-.19.47,0,.9.05,1.23.19.33.09.52.28.66.43.14.19.24.38.28.66.05.19.05.47.05.9v1.32c0,.9,0,1.51.05,1.75s.14.47.24.71h-1.04c0-.33-.05-.57-.09-.8M53.25,44.78c-.38.14-.9.28-1.61.38-.43.05-.71.14-.85.19-.19.09-.28.19-.38.33-.09.14-.14.28-.14.47,0,.28.09.47.28.66.19.19.47.28.85.28s.71-.09.99-.24.52-.38.66-.66c.09-.24.14-.57.14-.99v-.43h.05Z"/>
        <path class="cls-2" d="M55.8,47.71v-5.82h.9v.8c.43-.66,1.04-.95,1.84-.95.33,0,.66.05.95.19.28.14.52.28.66.47.14.19.24.43.28.71.05.19.05.52.05.95v3.55h-.99v-3.55c0-.43-.05-.71-.09-.9-.09-.19-.24-.38-.43-.47s-.43-.19-.66-.19c-.43,0-.76.14-1.09.38-.28.28-.47.76-.47,1.51v3.17h-.95v.14Z"/>
        <path class="cls-2" d="M65.82,47.71v-.85c-.47.66-1.09.99-1.84.99-.33,0-.66-.05-.95-.19-.28-.14-.52-.28-.66-.47-.14-.19-.24-.43-.28-.71-.05-.19-.05-.52-.05-.9v-3.59h.99v3.22c0,.52,0,.85.05,1.04.05.24.19.47.38.61.19.14.47.24.76.24s.57-.09.85-.24c.28-.14.43-.38.57-.61.09-.28.14-.66.14-1.13v-3.12h.99v5.82h-.95v-.09Z"/>
        <path class="cls-2" d="M68.47,47.71v-5.06h-.85v-.76h.85v-.61c0-.38.05-.66.09-.85.09-.24.28-.47.52-.61.24-.14.57-.24.99-.24.28,0,.57.05.9.09l-.14.85c-.19-.05-.38-.05-.57-.05-.28,0-.52.05-.61.19-.14.14-.19.38-.19.71v.52h1.13v.76h-1.13v5.06h-.99Z"/>
        <path class="cls-2" d="M75.14,47c-.38.33-.71.52-1.04.66s-.71.19-1.09.19c-.61,0-1.13-.14-1.47-.47-.33-.33-.52-.71-.52-1.18,0-.28.05-.52.19-.76.14-.24.28-.43.52-.57.19-.14.43-.24.71-.33.19-.05.47-.09.85-.14.8-.09,1.37-.19,1.75-.33v-.24c0-.43-.09-.66-.28-.85-.24-.24-.61-.33-1.13-.33-.47,0-.8.09-1.04.24s-.38.47-.47.85l-.95-.14c.09-.43.24-.76.43-.99.19-.24.47-.43.85-.57.38-.14.8-.19,1.32-.19.47,0,.9.05,1.23.19.33.09.52.28.66.43.14.19.24.38.28.66.05.19.05.47.05.9v1.32c0,.9,0,1.51.05,1.75.05.24.14.47.24.71h-1.04c0-.33-.09-.57-.09-.8M75.05,44.78c-.38.14-.9.28-1.61.38-.43.05-.71.14-.85.19-.19.09-.28.19-.38.33-.09.14-.14.28-.14.47,0,.28.09.47.28.66.19.19.47.28.85.28s.71-.09.99-.24c.28-.14.52-.38.66-.66.09-.24.14-.57.14-.99v-.43h.05Z"/>
        <path class="cls-2" d="M81.33,45.58l.95.14c-.09.66-.38,1.18-.8,1.56-.43.38-.99.57-1.61.57-.8,0-1.42-.24-1.94-.76-.47-.52-.71-1.28-.71-2.22,0-.61.09-1.18.33-1.66.19-.47.52-.8.95-1.04s.9-.33,1.37-.33c.61,0,1.13.14,1.56.47.43.33.66.76.76,1.37l-.95.14c-.09-.38-.24-.66-.47-.9-.24-.19-.52-.28-.85-.28-.52,0-.9.19-1.23.52-.33.38-.47.9-.47,1.7,0,.76.14,1.32.43,1.7.28.33.71.52,1.18.52.38,0,.71-.14.95-.33.33-.33.52-.71.57-1.18"/>
        <path class="cls-2" d="M85.31,46.81l.14.85c-.28.05-.52.09-.76.09-.38,0-.61-.05-.85-.19-.19-.09-.33-.28-.43-.43-.09-.19-.14-.57-.14-1.18v-3.36h-.71v-.76h.71v-1.42l.99-.57v2.03h.99v.76h-.99v3.4c0,.28,0,.47.05.52.05.09.09.14.19.19.09.05.19.09.33.09.14,0,.28,0,.47-.05"/>
        <path class="cls-2" d="M90.08,47.71v-.85c-.47.66-1.09.99-1.84.99-.33,0-.66-.05-.95-.19s-.52-.28-.66-.47-.24-.43-.28-.71c-.05-.19-.05-.52-.05-.9v-3.59h.99v3.22c0,.52,0,.85.05,1.04.05.24.19.47.38.61.19.14.47.24.76.24s.57-.09.85-.24c.28-.14.43-.38.57-.61.09-.28.14-.66.14-1.13v-3.12h.99v5.82h-.95v-.09Z"/>
        <path class="cls-2" d="M92.49,47.71v-5.82h.9v.9c.24-.43.43-.66.61-.8.19-.14.43-.19.61-.19.33,0,.66.09.99.33l-.33.9c-.24-.14-.47-.24-.71-.24s-.43.05-.57.19c-.19.14-.28.33-.38.52-.09.33-.14.71-.14,1.13v3.03h-.99v.05Z"/>
        <path class="cls-2" d="M100.2,45.82l.99.14c-.14.61-.47,1.04-.9,1.37-.43.33-.99.47-1.66.47-.85,0-1.51-.28-2.03-.8-.52-.52-.76-1.28-.76-2.22,0-.99.24-1.75.76-2.27.52-.52,1.13-.8,1.94-.8.76,0,1.42.28,1.89.8.47.52.76,1.28.76,2.22v.28h-4.35c.05.66.24,1.13.52,1.47.33.33.71.52,1.23.52.38,0,.66-.09.95-.28.28-.19.52-.47.66-.9M96.99,44.26h3.26c-.05-.47-.19-.85-.38-1.09-.33-.38-.71-.57-1.23-.57-.47,0-.85.14-1.13.47-.33.24-.52.66-.52,1.18"/>
        <path class="cls-2" d="M102.43,47.71v-5.82h.9v.9c.24-.43.43-.66.61-.8.19-.14.43-.19.61-.19.33,0,.66.09.99.33l-.33.9c-.24-.14-.47-.24-.71-.24s-.43.05-.57.19c-.19.14-.28.33-.38.52-.09.33-.14.71-.14,1.13v3.03h-.99v.05Z"/>
        <path class="cls-2" d="M108.9,44.78c0-1.09.28-1.89.9-2.41.52-.43,1.09-.66,1.84-.66.8,0,1.47.28,1.94.8.52.52.76,1.23.76,2.18,0,.76-.09,1.32-.33,1.75-.24.43-.57.76-.99.99-.43.24-.9.33-1.42.33-.8,0-1.47-.24-1.99-.8-.43-.43-.71-1.18-.71-2.18M109.94,44.78c0,.76.14,1.32.47,1.66.33.38.71.57,1.23.57.47,0,.9-.19,1.23-.57.33-.38.47-.95.47-1.7,0-.71-.14-1.28-.47-1.61-.33-.38-.71-.57-1.23-.57-.47,0-.9.19-1.23.57-.33.38-.47.95-.47,1.66"/>
        <path class="cls-2" d="M115.76,47.71v-5.06h-.85v-.76h.85v-.61c0-.38.05-.66.09-.85.09-.24.28-.47.52-.61.24-.14.57-.24.99-.24.28,0,.57.05.9.09l-.14.85c-.19-.05-.38-.05-.57-.05-.28,0-.52.05-.61.19-.14.14-.19.38-.19.71v.52h1.13v.76h-1.13v5.06h-.99Z"/>
        <path class="cls-1" d="M236.34,45.16h2.7c.47,0,.76-.05.95-.19.19-.14.33-.38.43-.76l.38-1.47c.05-.19.09-.38.09-.47,0-.38-.28-.57-.85-.57h-2.79l-.9,3.45ZM237.1,47.67h-1.42l-1.13,4.3c-.09.33-.14.71-.14,1.13,0,.24.05.47.14.76h-6.53c.28-.43.47-.76.61-1.09.14-.33.28-.76.43-1.37l2.6-10.12c.09-.33.14-.71.14-1.13,0-.24-.05-.47-.14-.76h10.83c.8,0,1.37.05,1.7.09.28.05.61.19.9.38.38.24.66.57.9.99.24.43.38.8.38,1.18,0,.28-.05.61-.14.95l-.61,2.46c-.19.66-.33,1.04-.38,1.18-.05.14-.19.28-.33.47-.47.43-1.09.61-1.94.61h-.38l.9,4.59c.09.38.19.71.28.9.14.24.33.47.61.76h-6.15l-1.13-6.29ZM223.01,41.75l-.9,3.55h5.39c.57,0,1.04-.09,1.42-.24l-.76,2.93c-.38-.24-.95-.33-1.7-.33h-5.01l-.99,3.78h5.67c.57,0,1.09-.09,1.56-.33l-1.09,2.7h-12.81c.28-.43.47-.76.61-1.09.14-.33.28-.76.43-1.37l2.6-10.12c.09-.33.14-.71.14-1.13,0-.24-.05-.47-.14-.76h12.91l-.33,2.74c-.28-.14-.52-.24-.76-.28-.24-.05-.57-.05-.95-.05h-5.3ZM216.29,39.39l-.33,2.84c-.43-.19-.71-.28-.95-.38-.24-.05-.57-.09-.99-.09h-3.83c-.66,0-1.04.05-1.28.19-.19.14-.38.43-.47.9l-1.89,7.28c-.09.33-.14.52-.14.66,0,.33.14.52.47.61.19.05.47.05.95.05h3.69c.95,0,1.66-.19,2.22-.52l-1.18,2.88h-7.47c-1.09,0-1.8-.05-2.03-.05-.24-.05-.52-.09-.8-.24-.47-.19-.8-.52-1.09-.9-.28-.43-.43-.85-.43-1.37,0-.28.09-.71.24-1.32l1.99-7.66c.33-1.18.9-1.99,1.75-2.46.43-.24.85-.38,1.18-.43.38-.05,1.09-.09,2.13-.09h8.28v.09ZM191.52,45.16h2.7c.47,0,.76-.05.95-.19s.33-.38.43-.76l.38-1.47c.05-.19.09-.38.09-.47,0-.38-.28-.57-.85-.57h-2.79l-.9,3.45ZM192.27,47.67h-1.42l-1.09,4.3c-.09.33-.14.71-.14,1.13,0,.24.05.47.14.76h-6.53c.28-.43.47-.76.61-1.09.14-.33.28-.76.43-1.37l2.6-10.12c.09-.33.14-.71.14-1.13,0-.24-.05-.47-.14-.76h10.83c.8,0,1.37.05,1.7.09s.61.19.9.38c.38.24.66.57.9.99.24.43.33.8.33,1.18,0,.28-.05.61-.14.95l-.66,2.46c-.19.66-.28,1.04-.38,1.18-.05.14-.19.28-.33.47-.47.43-1.09.61-1.94.61h-.38l.9,4.59c.09.38.19.71.28.9.09.24.33.47.61.76h-6.15l-1.09-6.29ZM174.78,43.17l-1.8,7c-.09.38-.14.61-.14.71,0,.24.14.43.38.52.14.05.47.09.85.09h2.08c.47,0,.76-.05.9-.19s.28-.47.43-1.09l1.84-7.05c.05-.19.09-.28.09-.38.05-.19.09-.33.09-.43,0-.43-.38-.61-1.09-.61h-2.03c-.52,0-.9.09-1.09.24-.19.19-.33.57-.52,1.18M174.11,39.39h7.05c.71,0,1.28.05,1.7.14.38.09.76.28,1.04.52.71.57,1.09,1.32,1.09,2.27,0,.33-.05.76-.19,1.28l-1.84,7.14c-.14.61-.33,1.09-.52,1.42-.19.33-.43.61-.76.9-.38.28-.8.52-1.32.66-.47.14-1.13.19-1.94.19h-7.42c-.85,0-1.42-.05-1.8-.09-.33-.09-.66-.24-.99-.52-.66-.57-.99-1.32-.99-2.18,0-.33.09-.76.28-1.37l1.84-7.14c.19-.71.38-1.23.66-1.66.24-.38.61-.71.99-.95.8-.43,1.8-.61,3.12-.61M161.11,41.75l-.9,3.45h4.92c.95-.05,1.47-.05,1.61-.09.14,0,.43-.09.8-.24l-.76,2.98c-.33-.14-.61-.24-.8-.24-.19-.05-.52-.05-.99-.05h-5.39l-1.13,4.4c-.09.38-.14.76-.14,1.13,0,.24.05.47.14.76h-6.53c.28-.43.47-.76.61-1.09.14-.33.28-.76.43-1.37l2.6-10.12c.09-.33.14-.71.14-1.13,0-.24-.05-.47-.14-.76h12.96l-.33,2.84c-.24-.19-.52-.28-.8-.33s-.76-.09-1.47-.09h-4.82v-.05ZM144.84,39.39l3.88,11.21,2.41-9.27c.09-.33.14-.71.14-1.13,0-.24-.05-.47-.14-.76h3.31c-.28.43-.47.8-.61,1.09-.14.33-.28.76-.43,1.37l-3.12,12.01h-6.15l-3.74-10.97-2.36,9.08c-.09.38-.14.76-.14,1.13,0,.24.05.47.14.76h-3.31c.28-.43.47-.76.61-1.09.14-.33.28-.76.43-1.37l2.6-10.12c.09-.33.14-.71.14-1.13,0-.24-.05-.47-.14-.76h6.48v-.05ZM129.8,41.75l-.9,3.55h5.44c.57,0,1.04-.09,1.42-.24l-.76,2.93c-.38-.24-.95-.33-1.7-.33h-5.01l-.99,3.78h5.67c.57,0,1.09-.09,1.56-.33l-1.09,2.7h-12.81c.28-.43.47-.76.61-1.09.14-.33.28-.76.43-1.37l2.6-10.12c.09-.33.14-.71.14-1.13,0-.24-.05-.47-.14-.76h12.86l-.33,2.74c-.28-.14-.52-.24-.76-.28-.24-.05-.57-.05-.99-.05h-5.25Z"/>
        <path class="cls-1" d="M249.63,41.9l.33.61h.57l-.57-.95c.28,0,.52-.19.52-.57,0-.52-.33-.66-.85-.66v.38c.19,0,.38.05.38.24,0,.24-.14.28-.33.28h-.05v.66M249.63,43.46v-.47c.76-.05,1.42-.66,1.42-1.56s-.66-1.56-1.42-1.56v-.47c1.04,0,1.99.76,1.99,2.03s-.95,2.03-1.99,2.03M249.3,41.57h.19l.14.28v-.66h-.33v-.52h.33v-.38h-.85v2.18h.52v-.9ZM249.63,39.39v.47h-.05c-.8,0-1.47.61-1.47,1.56s.66,1.56,1.47,1.56h.05v.47h-.05c-1.04,0-2.03-.76-2.03-2.03s.99-2.03,2.08-2.03h0Z"/>
      </g>
      <path class="cls-1" d="M258.19,4.97l.66,1.23h1.18l-1.18-1.89c.57,0,1.09-.33,1.09-1.18,0-.99-.66-1.32-1.75-1.32v.76c.33,0,.76.09.76.52,0,.52-.24.57-.66.57h-.09v1.32M258.19,8.13v-.9c1.51-.09,2.84-1.32,2.84-3.17s-1.32-3.07-2.84-3.17V0c2.08,0,4.02,1.51,4.02,4.07-.05,2.6-1.94,4.07-4.02,4.07M257.48,4.4h.43l.24.57v-1.32h-.66v-1.09h.66v-.76h-1.7v4.4h.99v-1.8h.05ZM258.19,0v.9h-.09c-1.61,0-2.93,1.28-2.93,3.17s1.32,3.17,2.93,3.17h.09v.9h-.09c-2.08,0-4.07-1.51-4.07-4.07s1.99-4.07,4.07-4.07h.09Z"/>
      <path class="cls-1" d="M3.4,28.89H.33v-10.92h3.36c.38,2.41,1.37,4.26,2.88,5.63,1.51,1.37,3.4,2.03,5.67,2.03,1.51,0,2.74-.28,3.59-.9.9-.61,1.32-1.42,1.32-2.46,0-1.75-2.08-3.12-6.29-4.16-.33-.09-.57-.14-.76-.19-3.97-.99-6.67-2.08-8.04-3.36-1.37-1.23-2.08-2.98-2.08-5.15,0-2.6.95-4.73,2.79-6.34C4.63,1.47,7.09.66,10.17.66c1.47,0,2.84.19,4.07.61,1.23.43,2.46,1.09,3.64,1.99l.95-1.89h2.88v10.12h-3.31c-.24-2.32-1.09-4.07-2.46-5.34-1.37-1.23-3.22-1.89-5.49-1.89-1.37,0-2.41.28-3.22.9-.8.57-1.23,1.37-1.23,2.32,0,1.75,1.94,3.07,5.86,4.02.85.19,1.47.38,1.94.47,3.59.95,6.05,2.03,7.42,3.31,1.37,1.28,2.03,2.98,2.03,5.15,0,2.79-.95,5.01-2.88,6.62-1.94,1.66-4.59,2.46-7.9,2.46-1.61,0-3.07-.24-4.4-.66-1.37-.47-2.65-1.13-3.88-2.13l-.8,2.18ZM50.83,1.51v10.55h-3.26c-.14-2.88-.66-4.82-1.51-5.77-.85-.95-2.7-1.42-5.49-1.42h-5.11v7.99h1.47c1.42,0,2.32-.28,2.79-.8.43-.57.71-1.75.71-3.69h3.12v12.96h-3.17v-1.23c0-1.42-.28-2.41-.76-2.98-.52-.57-1.42-.85-2.74-.85h-1.47v9.17h4.73c2.93,0,4.82-.52,5.77-1.61.95-1.09,1.51-3.22,1.7-6.43h3.22v11.4h-25.72v-3.31h1.47c1.13,0,1.8-.14,2.08-.43.28-.28.43-.99.43-2.08V7.47c0-1.09-.14-1.8-.43-2.08-.28-.28-.95-.43-2.08-.43h-1.47V1.66h25.72v-.14ZM79.54,18.16c-.05,3.59-.99,6.38-2.79,8.37-1.84,1.99-4.4,2.93-7.76,2.93-4.3,0-7.71-1.32-10.31-3.92-2.55-2.65-3.83-6.1-3.83-10.45s1.28-7.61,3.78-10.31c2.55-2.74,5.67-4.07,9.5-4.07,1.37,0,2.7.19,3.88.61,1.18.43,2.41,1.09,3.69,2.03l.71-2.18h3.17v11.07h-3.4c-.19-2.55-.9-4.54-2.08-5.91-1.18-1.37-2.79-2.03-4.82-2.03-2.22,0-3.97.95-5.25,2.84-1.28,1.89-1.89,4.54-1.89,7.94s.66,6.1,1.94,7.99c1.28,1.89,3.07,2.84,5.39,2.84,1.94,0,3.5-.66,4.68-2.03,1.18-1.37,1.89-3.26,2.08-5.72h3.31ZM97.32,4.3c-2.22,0-3.97.95-5.25,2.84-1.28,1.89-1.89,4.54-1.89,7.94s.66,6.1,1.94,7.99c1.28,1.89,3.07,2.84,5.34,2.84s3.97-.95,5.25-2.88c1.28-1.89,1.89-4.59,1.89-7.94s-.66-6.05-1.94-7.94c-1.28-1.89-3.07-2.84-5.34-2.84M97.37,29.46c-4.35,0-7.85-1.32-10.5-3.97-2.65-2.65-3.97-6.1-3.97-10.4s1.32-7.76,3.97-10.4c2.65-2.65,6.15-3.92,10.5-3.92s7.8,1.32,10.5,3.92c2.65,2.65,3.97,6.1,3.97,10.4s-1.32,7.76-4.02,10.4c-2.6,2.65-6.1,3.97-10.45,3.97M115.33,16.46h10.78v5.2h-10.78v-5.2ZM142.95,1.51v3.31h-1.75c-1.13,0-1.8.14-2.08.43-.28.28-.43.99-.43,2.08v18.02h4.16c2.65,0,4.45-.52,5.3-1.56.85-1.04,1.37-3.22,1.56-6.48h3.22v11.4h-24.54v-3.31h1.47c1.13,0,1.8-.14,2.08-.43.28-.28.43-.99.43-2.08V7.38c0-1.09-.14-1.8-.43-2.08-.28-.28-.95-.43-2.08-.43h-1.47V1.56h14.56v-.05ZM170.05,16.6l-2.88-8.8-2.88,8.8h5.77ZM181.54,25.39h1.04v3.31h-13.95v-3.31h1.42c.99,0,1.61-.09,1.94-.28.28-.19.47-.52.47-.99,0-.14-.05-.28-.09-.52-.05-.24-.14-.47-.24-.8l-.99-2.84h-7.99l-.99,2.93c-.09.33-.19.61-.24.8-.05.19-.05.38-.05.47,0,.47.14.76.38.95.24.14.76.24,1.56.24h1.66v3.31h-11.77v-3.31h1.28c.71,0,1.32-.19,1.75-.57.43-.38.85-1.13,1.23-2.32l6.9-21h6.67l6.95,21.09c.38,1.18.76,1.94,1.09,2.27.43.38,1.09.57,1.99.57M186.93,7.38c0-1.09-.14-1.8-.43-2.08-.28-.28-.95-.43-2.08-.43h-1.47V1.56h16.13c3.31,0,5.77.57,7.38,1.66,1.61,1.09,2.36,2.79,2.36,5.11,0,1.61-.52,2.93-1.56,4.02-1.04,1.09-2.6,1.84-4.63,2.36,1.61.38,2.74.95,3.4,1.75.66.8,1.04,2.03,1.09,3.64l.09,2.84c0,1.04.09,1.75.28,2.08.14.38.43.52.85.52.47,0,.76-.24.95-.71.19-.47.28-1.75.28-3.78h2.74c0,.14.05.33.05.47v.8c0,2.32-.47,4.11-1.47,5.34-.99,1.23-2.41,1.84-4.26,1.84-1.99,0-3.45-.52-4.35-1.56-.9-1.04-1.37-2.74-1.42-5.15l-.05-2.79c-.05-1.37-.33-2.36-.95-2.98-.61-.66-1.56-.95-2.84-.95h-3.74v6.76c0,1.09.14,1.8.43,2.08.28.28.95.43,2.08.43h1.75v3.31h-14.56v-3.31h1.47c1.13,0,1.8-.14,2.08-.43.28-.28.43-.99.43-2.08V7.38h-.05ZM193.31,12.82h2.32c2.65,0,4.4-.28,5.3-.9.85-.61,1.32-1.66,1.32-3.22,0-1.42-.43-2.41-1.28-2.98-.85-.57-2.55-.9-5.11-.9h-2.51v7.99h-.05ZM249.87,1.51v3.31h-1.47c-1.09,0-1.8.14-2.03.43-.28.28-.38.99-.38,2.08v15.51c0,1.13.14,1.8.38,2.08.28.28.95.43,2.03.43h1.47v3.31h-13.67v-3.31h1.23c1.09,0,1.8-.14,2.03-.43.28-.28.38-.99.38-2.08V6.29l-7.05,22.41h-4.3l-6.86-22.41v16.6c0,1.13.14,1.8.38,2.08.28.28.95.43,2.03.43h1.13v3.31h-11.73v-3.31h1.42c1.13,0,1.8-.14,2.08-.43.28-.28.43-.99.43-2.08V7.38c0-1.09-.14-1.8-.43-2.08-.28-.28-.95-.43-2.08-.43h-1.42V1.56h12.86l5.39,17.45,5.53-17.45h12.63v-.05Z"/>
    </g>
  </g>
</svg>