<?xml version="1.0" encoding="UTF-8"?>
<svg id="Layer_2" data-name="Layer 2" xmlns="http://www.w3.org/2000/svg" viewBox="0 0 223.54 74.22">
  <defs>
    <style>
      .cls-1 {
        fill: #181818;
      }
    </style>
  </defs>
  <g id="Layer_1-2" data-name="Layer 1">
    <g>
      <path class="cls-1" d="M38.93,0c.02.25.19.41.33.58,1.12,1.37,2.09,2.85,3.14,4.27,1.63,2.19,3.23,4.4,4.88,6.58,2.01,2.64,3.9,5.37,5.87,8.03.89,1.2,1.81,2.37,2.68,3.57.14.2.36.27.57.35,2.99,1.14,5.9,2.46,8.75,3.93,3.45,1.78,6.64,3.94,9.61,6.42,1.72,1.44,3.28,3.02,4.65,4.79,1.82,2.35,3.12,4.94,3.42,7.93.28,2.81-.55,5.29-2.37,7.44-2.03,2.4-4.62,3.98-7.53,5.08-3.02,1.14-6.14,1.87-9.34,2.25-1.75.21-3.52.33-5.28.42-1.41.07-2.81.07-4.21.02-.64-.02-1.07.1-1.55.55-1.43,1.33-2.92,2.6-4.38,3.89-1.7,1.5-3.4,3-5.1,4.51-1.26,1.11-2.5,2.24-3.75,3.36-.07.06-.12.13-.2.17-.25.16-.41.08-.43-.21-.01-.29,0-.58,0-.86,0-4.14,0-8.29,0-12.43,0-.95-.11-.98-1.1-1.31-.98-.33-2.02-.51-3.02-.78-4.39-1.15-8.64-2.69-12.78-4.54-3.9-1.75-7.6-3.87-11.08-6.35-1.29-.92-2.4-2.08-3.68-2.98-1.29-.91-2.3-2.05-3.24-3.24-1.87-2.39-3.39-4.97-3.73-8.08-.31-2.85.42-5.41,2.25-7.63,2.07-2.52,4.79-4.07,7.79-5.21,3.2-1.21,6.52-1.9,9.91-2.28,1.68-.19,3.37-.32,5.06-.35.15,0,.37-.09.45.08.08.15-.13.25-.21.36-.81,1.13-1.63,2.25-2.44,3.38-.14.19-.29.28-.52.31-3.19.46-6.3,1.22-9.21,2.66-1.75.86-3.34,1.94-4.57,3.48-1.95,2.43-2.38,5.11-1.37,8.04.44,1.28,1.15,2.41,1.81,3.57,1.89,3.32,4.85,5.53,7.89,7.63,3.9,2.69,8.18,4.67,12.62,6.3,2.65.97,5.37,1.72,8.11,2.42.05.01.1.03.15.04.72.12.92-.04.92-.76,0-16.36,0-32.72,0-49.09,0-1.94,0-3.88,0-5.82,0-.16,0-.33-.06-.48h.3ZM60.52,29.16s-.05.06-.08.09c.36.52.72,1.04,1.1,1.55,2.08,2.83,4.17,5.66,6.26,8.5,1.31,1.78,2.63,3.57,3.95,5.35.19.26.17.43-.07.64-1.42,1.23-2.84,2.46-4.24,3.72-3.14,2.81-6.23,5.66-9.44,8.39-.09.08-.23.16-.16.3.06.12.2.07.31.06.79-.08,1.57-.14,2.36-.25,2.54-.35,5.03-.9,7.43-1.83,2.31-.89,4.42-2.09,6.08-3.96,1.42-1.6,2.2-3.47,2.15-5.61-.04-1.7-.52-3.32-1.37-4.79-1.48-2.55-3.38-4.74-5.68-6.59-2.07-1.67-4.28-3.15-6.59-4.47-.66-.38-1.34-.72-2.02-1.07Z"/>
      <path class="cls-1" d="M223.54,37.71c-.52-.02-.53-.03-.53-.53,0-.29,0-.58,0-.95-.26.25-.29.51-.37.75-.1.27-.1.69-.45.71-.37.02-.37-.4-.48-.67-.12-.29-.2-.61-.43-.87,0,.39.01.78,0,1.18,0,.16,0,.39-.25.39-.23,0-.26-.21-.26-.39-.01-.59-.01-1.17-.01-1.76,0-.21-.02-.45.28-.49.3-.03.55.02.66.35.1.31.21.61.33.92.03.09.06.2.22.25.11-.32.22-.65.33-.97.18-.55.19-.56.76-.54.08,0,.15,0,.23,0v2.63Z"/>
      <path class="cls-1" d="M164.74,41.76c-.15.45-.28.84-.42,1.22-.62,1.76-1.24,3.52-1.87,5.27-.34.94-.7,1.88-.97,2.84-.06.21-.2.3-.41.3-.98,0-1.96,0-2.94,0-.25,0-.39-.13-.46-.36-.55-1.61-1.1-3.22-1.65-4.83-.5-1.47-1.01-2.94-1.52-4.4-.02-.07-.06-.13-.11-.23-.11.12-.07.25-.07.36,0,2.47,0,4.93,0,7.4,0,.6.01,1.2.35,1.74.13.21.05.33-.2.33-.85,0-1.71,0-2.56,0-.24,0-.3-.08-.17-.29.26-.43.31-.91.3-1.41-.01-3.14-.01-6.28,0-9.42,0-.6-.1-1.17-.36-1.71-.09-.19-.1-.31.17-.3,1.87.07,3.74,0,5.61.03.28,0,.55,0,.83.02.2.01.33.11.4.33.41,1.3.83,2.6,1.26,3.89.28.84.57,1.68.86,2.52.04.12.05.32.22.3.14-.01.13-.2.17-.31.72-2.01,1.44-4.03,2.17-6.04.26-.72.27-.72,1.03-.72,1.82,0,3.64,0,5.46.01.5,0,.49,0,.36.49-.14.52-.23,1.05-.23,1.59,0,3.12,0,6.23,0,9.35,0,.45.06.87.25,1.28.13.27.08.4-.24.4-1.73,0-3.46,0-5.2,0-.26,0-.35-.09-.24-.34.23-.53.27-1.09.27-1.65,0-2.25,0-4.51,0-6.76,0-.27,0-.55-.1-.89Z"/>
      <path class="cls-1" d="M185.69,51.4c-1.23,0-2.46-.02-3.69,0-2.1.04-3.09-1.06-3.3-2.96-.08-.76-.06-1.52-.07-2.29,0-1.35,0-2.7,0-4.06,0-.62.1-1.22.27-1.81.35-1.18,1.35-1.96,2.72-1.97,2.72-.03,5.45-.04,8.17,0,1.72.03,2.79,1.12,2.95,2.86.16,1.61.05,3.23.07,4.84.01.85.03,1.7-.07,2.55-.2,1.83-1.3,2.84-3.15,2.84-.03,0-.05,0-.08,0-1.28,0-2.56,0-3.84,0ZM183.71,44.91c0,1.1,0,2.2,0,3.3,0,.62.18.81.76.92.62.11,1.25.06,1.88.05,1.2,0,1.39-.2,1.39-1.4,0-1.98,0-3.96,0-5.93,0-.16,0-.33-.03-.49-.08-.55-.24-.73-.79-.77-.76-.04-1.53-.07-2.29.02-.83.1-.89.19-.91,1.02,0,.08,0,.15,0,.23,0,1.01,0,2.03,0,3.04Z"/>
      <path class="cls-1" d="M213.26,48.46c.12-.08.1-.19.1-.29,0-.79.02-1.58-.01-2.37-.07-1.75-.07-3.5,0-5.25.03-.69.01-1.38-.32-2.01-.09-.16-.03-.24.14-.24.9,0,1.81,0,2.71.01.13,0,.27.04.16.23-.36.6-.38,1.27-.38,1.93-.02,3.46,0,6.91-.01,10.37,0,.57,0,.57-.55.57-1.83,0-3.67,0-5.5,0-.36,0-.54-.11-.71-.45-1.17-2.38-2.36-4.75-3.55-7.13-.42-.83-.84-1.65-1.26-2.48-.05-.1-.08-.26-.21-.23-.16.03-.12.2-.12.32,0,1.49,0,2.98,0,4.47,0,1.43-.03,2.85.07,4.28.02.35.16.66.34.94.11.19.11.27-.13.27-.9,0-1.81,0-2.71,0-.21,0-.29-.08-.17-.28.35-.61.38-1.28.38-1.96,0-2.68,0-5.36,0-8.04,0-.9.03-1.8-.43-2.63-.09-.16.04-.2.16-.2.25,0,.5,0,.75,0,1.83,0,3.66.01,5.49,0,.45,0,.7.12.9.58.5,1.13,1.11,2.21,1.66,3.32.96,1.91,1.9,3.83,2.86,5.75.09.18.14.4.33.52Z"/>
      <path class="cls-1" d="M101.63,51.4c-1.49,0-2.99,0-4.48,0-.32,0-.46-.07-.48-.43-.05-.61-.2-1.21-.28-1.81-.06-.45,0-.48.39-.3.57.26,1.19.31,1.8.32,1.53.02,3.06,0,4.59,0,.14,0,.27-.02.41-.04.3-.04.43-.22.41-.52-.01-.26,0-.53,0-.79,0-.45-.12-.57-.59-.57-1.12,0-2.23,0-3.35,0-.65,0-1.31-.02-1.95-.14-1.15-.22-1.75-.9-1.78-2.08-.03-1.39-.04-2.78,0-4.17.05-1.49,1.11-2.56,2.6-2.57,3.01-.03,6.02,0,9.03-.01.33,0,.48.13.5.46.05.6.16,1.19.28,1.78.03.14.1.32-.04.42-.11.08-.24-.04-.35-.08-.54-.2-1.09-.29-1.66-.29-1.57-.01-3.14,0-4.71,0-.67,0-.79.11-.82.78-.04.65.13.88.76.95.75.09,1.5.01,2.26.04.86.03,1.73-.09,2.59.08,1.47.28,2.11,1.05,2.12,2.55,0,1.19,0,2.38,0,3.57,0,1.81-.98,2.81-2.81,2.86-.04,0-.08,0-.11,0-1.46,0-2.91,0-4.37,0Z"/>
      <path class="cls-1" d="M137.78,51.4c-1.74,0-3.49,0-5.23,0-.52,0-.51,0-.37-.48.13-.45.21-.9.22-1.37,0-3.09,0-6.18,0-9.28,0-.57-.17-1.11-.32-1.65-.06-.23-.05-.35.24-.34,3.45.01,6.9.01,10.35.02.71,0,.72.02.82.72.07.51.17,1.01.26,1.52.06.36-.04.45-.38.34-.66-.21-1.34-.29-2.04-.29-1.14,0-2.28.01-3.43,0-.32,0-.45.1-.45.43.02.7.01,1.4,0,2.1,0,.28.12.37.38.37,1.31,0,2.61,0,3.92,0,.37,0,.72-.12,1.07-.21.29-.07.45-.02.44.34-.02.71,0,1.43,0,2.14,0,.28-.09.39-.38.31-1.68-.46-3.39-.25-5.09-.29-.22,0-.33.09-.33.31,0,.94,0,1.88,0,2.82,0,.18.09.29.27.29,1.83-.04,3.66.16,5.48-.15.16-.03.32-.08.48-.11.23-.05.35.04.29.28-.15.61-.24,1.23-.34,1.85-.05.34-.29.36-.56.36-1.77,0-3.54,0-5.31,0Z"/>
      <path class="cls-1" d="M123.07,44.84c0,1.44,0,2.88,0,4.32,0,.67.06,1.33.33,1.95.1.24,0,.29-.21.29-1.72,0-3.44,0-5.16,0-.31,0-.38-.14-.27-.4.21-.51.25-1.04.25-1.58,0-2.89-.01-5.78,0-8.68,0-.71-.08-1.4-.3-2.07-.08-.26-.07-.38.26-.38,1.69.01,3.39,0,5.08,0,.43,0,.43,0,.29.42-.2.62-.28,1.27-.28,1.92,0,1.4,0,2.8,0,4.21h0Z"/>
      <path class="cls-1" d="M219.29,35.07c.28,0,.55,0,.83,0,.14,0,.29.03.28.23-.01.17-.12.22-.28.24-.56.07-.56.07-.56.63,0,.39,0,.77,0,1.16,0,.18-.03.38-.27.38-.23,0-.28-.19-.28-.37,0-.46-.02-.92,0-1.39.01-.3-.07-.45-.4-.41-.06,0-.13,0-.19,0-.14-.02-.24-.09-.23-.24,0-.15.1-.23.24-.23.29,0,.58,0,.86,0h0Z"/>
    </g>
  </g>
</svg>