<?xml version="1.0" encoding="UTF-8"?>
<svg id="Layer_2" data-name="Layer 2" xmlns="http://www.w3.org/2000/svg" viewBox="0 0 204.09 59.74">
  <defs>
    <style>
      .cls-1 {
        fill: #181818;
      }
    </style>
  </defs>
  <g id="Layer_1-2" data-name="Layer 1">
    <g>
      <path class="cls-1" d="M22.67,59.74c-1.75-.36-3.52-.64-5.24-1.09C7.74,56.11,1.55,49.17.15,39.3c-.11-.77-.11-1.55-.11-2.33,0-8.65,0-17.3,0-25.96,0-1.68,1.42-2.54,2.91-1.76.64.33.47.94.47,1.46.02,4.85,0,9.71.01,14.56,0,1.7.14,1.78,1.77,1.8,1.05.02,1.49-.35,1.48-1.43-.01-1.48,1.67-2.32,2.95-1.54.43.26.42.68.42,1.09.01,1.33.04,2.66,0,3.98-.03,1.13-.06,2.11,1.59,2,1.58-.11,1.65-.09,1.65-2.06,0-2.84.06-5.68-.02-8.51-.04-1.35.58-1.6,1.75-1.59,1.17,0,1.89.14,1.88,1.61-.05,7.14.1,14.29-.06,21.42-.17,7.36,3.08,12.81,8.85,17.03.29.22.57.46.86.69h-3.86Z"/>
      <path class="cls-1" d="M29.02,59.74c-3.36-1.89-6.35-4.19-8.39-7.54-.77-1.26-1.44-2.56-1.86-3.97-.1-.34-.39-.74-.09-1.03.39-.37.76.08,1.11.23,7.55,3.25,15.09,3.17,22.52-.24,5.08-2.33,8.08-6.6,10.09-11.66.13-.34.26-.69.4-1.02.03-.07.13-.11.42-.34.12,2.24-.02,4.32-.38,6.34-1.75,9.86-9.28,17.05-19.46,18.71-.99.16-1.98.35-2.97.52h-1.38Z"/>
      <path class="cls-1" d="M204.09,15.22c-.25.2-.48.43-.74.61-1.04.73-2.19.61-2.96-.29-.69-.8-.65-2.14.08-2.88.85-.86,2.15-.86,3.09.01.2.18.35.42.53.63v1.92Z"/>
      <path class="cls-1" d="M53.35,14.95c0,3.75.15,7.51-.03,11.25-.32,6.51-2.58,12.3-7.2,17.02-2.44,2.5-5.51,3.9-8.88,4.69-.57.13-1.33.48-1.18-.75.69-5.93.25-11.88.32-17.82.07-6.08,0-12.17.03-18.26.02-5.54,2.35-8.58,7.69-10.08C46.61.29,49.21.05,51.83,0c1.13-.02,1.64.37,1.51,1.5,0,.05,0,.09,0,.14,0,4.44,0,8.88,0,13.31Z"/>
      <path class="cls-1" d="M93.23,23.22c0-3.25.03-6.49-.02-9.74-.01-1.12.43-1.58,1.54-1.55,2.61.08,5.23-.14,7.83.2,2.49.32,4.52,1.29,5.4,3.81.88,2.53.27,4.69-1.88,6.34-.66.51-.25.67.17.95,2.14,1.48,2.95,3.59,2.65,6.08-.34,2.81-2.59,4.97-5.45,5.15-2.92.19-5.86.16-8.79.24-1.04.03-1.48-.41-1.47-1.47.04-3.34.01-6.68.01-10.01ZM96.9,27.82c0,.78.03,1.55,0,2.33-.05.94.35,1.33,1.29,1.31,1.37-.04,2.75.02,4.12-.04,1.98-.09,3.18-1.27,3.3-3.16.13-2-.91-3.33-2.9-3.66-.76-.13-1.54-.21-2.32-.22-3.48-.05-3.48-.04-3.48,3.45ZM99.96,21.24c.69,0,1.38.04,2.06,0,1.76-.14,2.59-1.02,2.72-2.83.13-1.68-.7-2.8-2.39-3.13-.8-.16-1.63-.24-2.45-.24-3.45,0-3.06-.41-3.07,3.07,0,3.53-.37,3.16,3.13,3.14Z"/>
      <path class="cls-1" d="M138.03,31.41c1.21,0,2.11,0,3.01,0,.77,0,1.46.2,1.93.86.36.5.63,1.07.41,1.67-.25.66-.92.49-1.44.5-3.48.08-6.96.02-10.45.28-5.06.38-8.5-2.28-9.81-7.18-.92-3.43-.78-6.81.65-10.07,1.62-3.71,4.57-5.51,8.57-5.55,4.06-.04,7.15,1.72,8.72,5.51,1.95,4.74,1.78,9.37-1.59,13.98ZM137.1,23.39c.06-1.65-.08-3.28-.73-4.83-.94-2.25-2.62-3.47-5.07-3.57-2.48-.1-4.4.85-5.45,3.16-1.46,3.24-1.49,6.56-.3,9.88.84,2.36,2.64,3.6,5.11,3.67,2.8.07,4.51-.95,5.61-3.34.72-1.58.9-3.25.83-4.97Z"/>
      <path class="cls-1" d="M163,20.3c-.1,2.16.19,4.86-.22,7.55-.55,3.65-2.67,5.95-6.3,6.72-1.5.32-3.02.33-4.52.07-4.34-.74-6.73-3.63-6.85-8.45-.11-4.3-.04-8.6-.02-12.91,0-1.3.38-1.54,1.61-1.15,1.35.42,1.96,1.28,1.97,2.94.03,3.66,0,7.32.02,10.98.02,3.93,1.9,5.75,5.78,5.64,2.94-.09,4.86-1.96,4.91-4.98.07-3.84.01-7.69.04-11.53.01-1.81.66-2.67,2.14-3.09,1.04-.3,1.47.05,1.46,1.1-.02,2.2,0,4.39,0,7.12Z"/>
      <path class="cls-1" d="M88.04,20.25c-.13,2.33.18,4.99-.23,7.63-.57,3.67-2.65,6.02-6.32,6.67-3.41.6-6.7.39-9.27-2.42-1.71-1.86-2.03-4.18-2.09-6.52-.09-3.84-.04-7.69.02-11.53.01-.73-.31-1.79.81-2.07,1.01-.26,2.43.82,2.66,1.94.1.49.09,1,.09,1.5,0,3.75-.04,7.5.02,11.26.04,2.13.97,3.81,3.04,4.64,2.24.89,4.91.33,6.38-1.24.94-1,1.26-2.2,1.27-3.52,0-3.71,0-7.41.04-11.12.03-2.1.66-2.97,2.15-3.38,1.04-.29,1.45.05,1.44,1.11-.03,2.24,0,4.48,0,7.04Z"/>
      <path class="cls-1" d="M181.23,24.83c0-2.79-.03-5.59.01-8.38.02-1.04-.33-1.52-1.43-1.46-1.33.06-2.66-.02-4,.02-1.03.03-1.23-.55-1.22-1.39.02-.85-.03-1.71,1.22-1.71,4.73,0,9.46.01,14.2,0,1.15,0,1.2.7,1.2,1.55,0,.84-.03,1.59-1.19,1.55-.92-.03-1.84,0-2.76,0q-2.42,0-2.42,2.34c0,5.13,0,10.26,0,15.39,0,1.79-1.35,2.63-3.01,1.89-.65-.29-.59-.88-.59-1.41-.01-2.79,0-5.59,0-8.38h0Z"/>
      <path class="cls-1" d="M117.21,23.29c0,3.2,0,6.41,0,9.61,0,.62.14,1.41-.6,1.68-.82.3-1.73.29-2.56-.02-.46-.17-.41-.68-.41-1.08,0-6.27,0-12.54,0-18.8,0-.87.26-1.64,1.03-2.12.63-.39,1.35-.8,2.06-.47.7.32.47,1.12.47,1.74.02,3.16,0,6.31,0,9.47Z"/>
      <path class="cls-1" d="M171.8,23.27c0,3.2.01,6.4,0,9.61-.01,1.61-1.66,2.47-3.09,1.67-.44-.25-.48-.65-.48-1.06,0-6.31,0-12.62,0-18.94,0-.87.33-1.62,1.13-2.06.6-.33,1.29-.72,1.95-.42.7.32.48,1.12.48,1.73.02,3.16,0,6.31,0,9.47Z"/>
      <path class="cls-1" d="M197.51,23.17c0,3.3-.05,6.59.02,9.89.03,1.45-.75,1.62-1.9,1.67-1.24.05-1.56-.49-1.55-1.64.04-6.09.03-12.17,0-18.26,0-1.3.45-2.21,1.7-2.67,1.27-.47,1.7-.2,1.71,1.14.02,3.3,0,6.59,0,9.89Z"/>
      <path class="cls-1" d="M123.43,45.03c.23-.88.43-1.76.69-2.63.16-.54.17-1.27.98-1.29.81-.02.87.67,1.03,1.24.26.96.51,1.92.87,3.29.39-1.5.67-2.6.95-3.69.12-.48.35-.91.92-.79.69.15.45.69.33,1.11-.41,1.54-.84,3.08-1.28,4.62-.13.45-.31.88-.88.92-.69.05-.81-.49-.95-.97-.3-1.04-.58-2.09-1.1-3.14-.27,1-.53,2-.81,3-.15.53-.24,1.13-.98,1.11-.64-.02-.81-.53-.94-1.02-.42-1.54-.83-3.09-1.22-4.64-.1-.38-.28-.87.31-1.02.57-.14.83.24.95.74.27,1.06.54,2.11.82,3.16.11,0,.21,0,.32,0Z"/>
      <path class="cls-1" d="M158.55,44.5c0-.18-.02-.37,0-.55.14-.91-.51-2.21.43-2.67,1.17-.59,2.6-.38,3.89.05.86.28,1.37,1.09,1.04,1.83-.55,1.25-.05,2.38.02,3.56.02.41.36.99-.39,1.08-.67.08-.82-.44-.86-.98-.04-.56-.12-1.11-.65-1.44-.97-.59-1.95-.05-2.07,1.14-.05.53.07,1.25-.71,1.26-.93,0-.66-.81-.7-1.35-.04-.64,0-1.28-.01-1.92Z"/>
      <path class="cls-1" d="M74.78,44.94c0-.95-.01-1.9,0-2.84,0-.48.08-.97.72-.96.54.01.64.45.65.89.01,1.6.01,3.2,0,4.8,0,.42-.09.84-.6.96-.53.13-.88-.13-1.15-.55-.7-1.1-1.39-2.2-2.41-3.22,0,.94.02,1.89,0,2.83,0,.42-.08.88-.63.9-.64.02-.72-.47-.72-.95-.01-1.56-.01-3.11,0-4.67,0-.41.02-.86.53-1,.51-.14.89.08,1.16.51.71,1.12,1.41,2.23,2.12,3.35.11-.02.23-.04.34-.06Z"/>
      <path class="cls-1" d="M88.05,44.45c.02-3.8-.48-3.39,3.62-3.4.47,0,1.17-.13,1.21.56.05.79-.71.69-1.22.75-.5.07-1.01.03-1.51.08-.42.04-.67.28-.64.73.03.4.31.54.66.56.59.03,1.19.03,1.78.07.34.02.65.14.65.56,0,.41-.33.52-.66.54-.5.03-1.01.03-1.51.04-.49.01-.93.11-.95.73-.02.69.42.84.98.86.55.01,1.1,0,1.65.04.43.03.86.13.84.69-.02.48-.41.59-.78.6-1.05.03-2.11.02-3.16,0-.69-.01-.95-.46-.96-1.09,0-.78,0-1.55,0-2.33Z"/>
      <path class="cls-1" d="M146.79,44.42c0,2.13-1.27,3.55-3.16,3.54-1.89-.02-3.26-1.49-3.25-3.5.02-2.06,1.36-3.47,3.27-3.45,1.88.03,3.13,1.39,3.13,3.41ZM145.37,44.43c-.01-1.48-.66-2.28-1.8-2.24-1.13.04-1.77.88-1.76,2.31.01,1.39.74,2.28,1.83,2.25,1.12-.03,1.74-.86,1.72-2.33Z"/>
      <path class="cls-1" d="M195.12,47.95c-.79-.04-1.7-.18-2.27-1.03-.27-.41-.62-.94-.06-1.33.47-.33.85.03,1.12.45.39.62.97.8,1.66.7.44-.06.82-.25.87-.73.05-.44-.29-.65-.64-.78-.6-.22-1.22-.39-1.83-.6-.9-.31-1.3-.95-1.23-1.9.07-.91.64-1.38,1.44-1.62,1.25-.38,2.7.04,3.21.93.18.31.42.68.09,1-.36.34-.79.24-1.09-.12-.41-.49-.86-.81-1.53-.73-.34.04-.64.15-.72.52-.09.38.14.62.46.74.42.16.87.29,1.31.41,1.16.31,2.06.86,1.91,2.25-.11,1.08-1.17,1.81-2.7,1.83Z"/>
      <path class="cls-1" d="M175.91,44.39c0-.73-.01-1.46,0-2.19.01-.45-.03-.99.62-1.03.63-.04.68.47.77.93.07.37-.19.95.34,1.06.41.08.64-.45.95-.71.55-.47.93-1.16,1.7-1.34.26-.06.59-.13.78.11.23.29-.07.48-.23.69-.53.71-1.74,1.13-1.58,2.08.14.82.93,1.53,1.43,2.29.08.11.18.22.23.34.17.36.82.72.22,1.13-.47.32-.98.1-1.32-.36-.41-.55-.78-1.13-1.18-1.69-.21-.29-.39-.69-.85-.54-.41.14-.44.55-.47.92,0,.05,0,.09,0,.14-.11.61.23,1.61-.82,1.54-.93-.07-.52-1-.58-1.57-.06-.59-.01-1.19-.01-1.78h0Z"/>
      <path class="cls-1" d="M107.04,41.09c.64,0,1.28-.02,1.92,0,.4.02.72.21.69.68-.02.4-.33.57-.66.57-1.34-.03-1.41.82-1.37,1.82.04.82.02,1.64,0,2.46-.01.48.11,1.13-.63,1.15-.8.02-.75-.66-.77-1.19-.03-.87-.03-1.73,0-2.6.02-.84-.06-1.57-1.16-1.63-.38-.02-.75-.2-.72-.67.03-.55.49-.6.91-.61.59-.02,1.19,0,1.78,0,0,0,0,.02,0,.03Z"/>
      <path class="cls-1" d="M9.95,6.65c0-.6.06-1.19.01-1.78-.1-1.14.4-1.53,1.53-1.51,1.99.03,2.2.23,2.08,2.21-.06.89-.45,1.22-1.3,1.18-.73-.03-1.47,0-2.2.01-.04-.03-.07-.07-.11-.11Z"/>
      <path class="cls-1" d="M15.31,8.32c1.21-.25,1.62.42,1.56,1.7-.07,1.57-.14,1.62-1.89,1.7-1.31.06-1.8-.41-1.73-1.72.09-1.59.12-1.68,2.05-1.67Z"/>
      <path class="cls-1" d="M10.06,6.76c0,.64-.04,1.27,0,1.91.06.97-.33,1.38-1.34,1.39-1.93.02-2.59-.85-2-2.73.15-.49.48-.63.92-.64.77-.02,1.55-.03,2.32-.04.04.04.07.07.11.11Z"/>
      <path class="cls-1" d="M13.31,14.11c.3,1.47-.48,1.7-1.71,1.74-1.41.05-1.65-.59-1.67-1.81-.02-1.3.51-1.63,1.71-1.63,1.28,0,1.97.34,1.66,1.7Z"/>
      <path class="cls-1" d="M1.74.11c1.43-.3,1.68.46,1.72,1.7.04,1.39-.57,1.67-1.81,1.68C.34,3.5,0,2.99,0,1.78,0,.5.34-.18,1.74.11Z"/>
      <path class="cls-1" d="M10,19.1c.3,1.54-.6,1.62-1.76,1.68-1.48.07-1.57-.71-1.61-1.86-.05-1.38.64-1.54,1.77-1.57,1.36-.04,1.87.49,1.61,1.75Z"/>
    </g>
  </g>
</svg>