<?xml version="1.0" encoding="UTF-8"?>
<svg id="Layer_2" data-name="Layer 2" xmlns="http://www.w3.org/2000/svg" xmlns:xlink="http://www.w3.org/1999/xlink" viewBox="0 0 1388.44 841.89">
  <defs>
    <style>
      .cls-1 {
        fill: url(#linear-gradient-8);
      }

      .cls-2 {
        fill: url(#linear-gradient-7);
      }

      .cls-3 {
        fill: url(#linear-gradient-5);
      }

      .cls-4 {
        fill: url(#linear-gradient-6);
      }

      .cls-5 {
        fill: url(#linear-gradient-9);
      }

      .cls-6 {
        fill: url(#linear-gradient-4);
      }

      .cls-7 {
        fill: url(#linear-gradient-3);
      }

      .cls-8 {
        fill: url(#linear-gradient-2);
      }

      .cls-9 {
        fill: url(#linear-gradient);
      }

      .cls-10 {
        fill: url(#linear-gradient-43);
      }

      .cls-11 {
        fill: url(#linear-gradient-40);
      }

      .cls-12 {
        fill: url(#linear-gradient-41);
      }

      .cls-13 {
        fill: url(#linear-gradient-42);
      }

      .cls-14 {
        fill: url(#linear-gradient-49);
      }

      .cls-15 {
        fill: url(#linear-gradient-48);
      }

      .cls-16 {
        fill: url(#linear-gradient-45);
      }

      .cls-17 {
        fill: url(#linear-gradient-47);
      }

      .cls-18 {
        fill: url(#linear-gradient-44);
      }

      .cls-19 {
        fill: url(#linear-gradient-46);
      }

      .cls-20 {
        fill: url(#linear-gradient-10);
      }

      .cls-21 {
        fill: url(#linear-gradient-11);
      }

      .cls-22 {
        fill: url(#linear-gradient-12);
      }

      .cls-23 {
        fill: url(#linear-gradient-13);
      }

      .cls-24 {
        fill: url(#linear-gradient-19);
      }

      .cls-25 {
        fill: url(#linear-gradient-14);
      }

      .cls-26 {
        fill: url(#linear-gradient-21);
      }

      .cls-27 {
        fill: url(#linear-gradient-20);
      }

      .cls-28 {
        fill: url(#linear-gradient-22);
      }

      .cls-29 {
        fill: url(#linear-gradient-23);
      }

      .cls-30 {
        fill: url(#linear-gradient-28);
      }

      .cls-31 {
        fill: url(#linear-gradient-25);
      }

      .cls-32 {
        fill: url(#linear-gradient-32);
      }

      .cls-33 {
        fill: url(#linear-gradient-31);
      }

      .cls-34 {
        fill: url(#linear-gradient-33);
      }

      .cls-35 {
        fill: url(#linear-gradient-30);
      }

      .cls-36 {
        fill: url(#linear-gradient-15);
      }

      .cls-37 {
        fill: url(#linear-gradient-16);
      }

      .cls-38 {
        fill: url(#linear-gradient-17);
      }

      .cls-39 {
        fill: url(#linear-gradient-18);
      }

      .cls-40 {
        fill: url(#linear-gradient-35);
      }

      .cls-41 {
        fill: url(#linear-gradient-34);
      }

      .cls-42 {
        fill: url(#linear-gradient-36);
      }

      .cls-43 {
        fill: url(#linear-gradient-38);
      }

      .cls-44 {
        fill: url(#linear-gradient-27);
      }

      .cls-45 {
        fill: url(#linear-gradient-24);
      }

      .cls-46 {
        fill: url(#linear-gradient-26);
      }

      .cls-47 {
        fill: url(#linear-gradient-29);
      }

      .cls-48 {
        fill: url(#linear-gradient-37);
      }

      .cls-49 {
        fill: url(#linear-gradient-39);
      }

      .cls-50 {
        opacity: .3;
      }
    </style>
    <linearGradient id="linear-gradient" x1="1538.46" y1="723.84" x2="863.14" y2="-318.85" gradientTransform="translate(1186.56) rotate(-180) scale(1 -1)" gradientUnits="userSpaceOnUse">
      <stop offset="0" stop-color="#55bae7"/>
      <stop offset=".2" stop-color="#6bc2e9"/>
      <stop offset=".62" stop-color="#a5d7ef"/>
      <stop offset="1" stop-color="#dfedf5"/>
    </linearGradient>
    <linearGradient id="linear-gradient-2" x1="1539.29" y1="953.71" x2="863.98" y2="-88.97" xlink:href="#linear-gradient"/>
    <linearGradient id="linear-gradient-3" x1="1473.45" y1="839.02" x2="798.14" y2="-203.66" xlink:href="#linear-gradient"/>
    <linearGradient id="linear-gradient-4" x1="1473.3" y1="1068.32" x2="797.98" y2="25.64" xlink:href="#linear-gradient"/>
    <linearGradient id="linear-gradient-5" x1="1539.25" y1="1182.96" x2="863.94" y2="140.28" xlink:href="#linear-gradient"/>
    <linearGradient id="linear-gradient-6" x1="1539.25" y1="1412.35" x2="863.94" y2="369.67" xlink:href="#linear-gradient"/>
    <linearGradient id="linear-gradient-7" x1="1274.18" y1="723.84" x2="598.86" y2="-318.85" xlink:href="#linear-gradient"/>
    <linearGradient id="linear-gradient-8" x1="1275.01" y1="953.71" x2="599.7" y2="-88.97" xlink:href="#linear-gradient"/>
    <linearGradient id="linear-gradient-9" x1="1274.97" y1="1182.96" x2="599.66" y2="140.28" xlink:href="#linear-gradient"/>
    <linearGradient id="linear-gradient-10" x1="1274.97" y1="1412.35" x2="599.66" y2="369.67" xlink:href="#linear-gradient"/>
    <linearGradient id="linear-gradient-11" x1="1473.25" y1="1297.57" x2="797.94" y2="254.88" xlink:href="#linear-gradient"/>
    <linearGradient id="linear-gradient-12" x1="1340.43" y1="839.02" x2="665.12" y2="-203.66" xlink:href="#linear-gradient"/>
    <linearGradient id="linear-gradient-13" x1="1340.27" y1="1068.32" x2="664.96" y2="25.64" xlink:href="#linear-gradient"/>
    <linearGradient id="linear-gradient-14" x1="1340.23" y1="1297.57" x2="664.92" y2="254.88" xlink:href="#linear-gradient"/>
    <linearGradient id="linear-gradient-15" x1="1141.93" y1="723.84" x2="466.62" y2="-318.85" xlink:href="#linear-gradient"/>
    <linearGradient id="linear-gradient-16" x1="1142.76" y1="953.71" x2="467.45" y2="-88.97" xlink:href="#linear-gradient"/>
    <linearGradient id="linear-gradient-17" x1="1076.93" y1="839.02" x2="401.61" y2="-203.66" xlink:href="#linear-gradient"/>
    <linearGradient id="linear-gradient-18" x1="1076.77" y1="1068.32" x2="401.46" y2="25.64" xlink:href="#linear-gradient"/>
    <linearGradient id="linear-gradient-19" x1="1142.72" y1="1182.96" x2="467.41" y2="140.28" xlink:href="#linear-gradient"/>
    <linearGradient id="linear-gradient-20" x1="1142.72" y1="1412.35" x2="467.41" y2="369.67" xlink:href="#linear-gradient"/>
    <linearGradient id="linear-gradient-21" x1="877.65" y1="723.84" x2="202.34" y2="-318.85" xlink:href="#linear-gradient"/>
    <linearGradient id="linear-gradient-22" x1="878.48" y1="953.71" x2="203.17" y2="-88.97" xlink:href="#linear-gradient"/>
    <linearGradient id="linear-gradient-23" x1="878.44" y1="1182.96" x2="203.13" y2="140.28" xlink:href="#linear-gradient"/>
    <linearGradient id="linear-gradient-24" x1="878.44" y1="1412.35" x2="203.13" y2="369.67" xlink:href="#linear-gradient"/>
    <linearGradient id="linear-gradient-25" x1="1076.73" y1="1297.57" x2="401.41" y2="254.88" xlink:href="#linear-gradient"/>
    <linearGradient id="linear-gradient-26" x1="943.9" y1="839.02" x2="268.59" y2="-203.66" xlink:href="#linear-gradient"/>
    <linearGradient id="linear-gradient-27" x1="943.75" y1="1068.32" x2="268.43" y2="25.64" xlink:href="#linear-gradient"/>
    <linearGradient id="linear-gradient-28" x1="943.7" y1="1297.57" x2="268.39" y2="254.88" xlink:href="#linear-gradient"/>
    <linearGradient id="linear-gradient-29" x1="745.4" y1="723.84" x2="70.09" y2="-318.85" xlink:href="#linear-gradient"/>
    <linearGradient id="linear-gradient-30" x1="746.24" y1="953.71" x2="70.92" y2="-88.97" xlink:href="#linear-gradient"/>
    <linearGradient id="linear-gradient-31" x1="680.4" y1="839.02" x2="5.09" y2="-203.66" xlink:href="#linear-gradient"/>
    <linearGradient id="linear-gradient-32" x1="680.24" y1="1068.32" x2="4.93" y2="25.64" xlink:href="#linear-gradient"/>
    <linearGradient id="linear-gradient-33" x1="746.19" y1="1182.96" x2="70.88" y2="140.28" xlink:href="#linear-gradient"/>
    <linearGradient id="linear-gradient-34" x1="746.19" y1="1412.35" x2="70.88" y2="369.67" xlink:href="#linear-gradient"/>
    <linearGradient id="linear-gradient-35" x1="481.12" y1="723.84" x2="-194.19" y2="-318.85" xlink:href="#linear-gradient"/>
    <linearGradient id="linear-gradient-36" x1="481.96" y1="953.71" x2="-193.36" y2="-88.97" xlink:href="#linear-gradient"/>
    <linearGradient id="linear-gradient-37" x1="481.91" y1="1182.96" x2="-193.4" y2="140.28" xlink:href="#linear-gradient"/>
    <linearGradient id="linear-gradient-38" x1="481.91" y1="1412.35" x2="-193.4" y2="369.67" xlink:href="#linear-gradient"/>
    <linearGradient id="linear-gradient-39" x1="680.2" y1="1297.57" x2="4.89" y2="254.88" xlink:href="#linear-gradient"/>
    <linearGradient id="linear-gradient-40" x1="547.38" y1="839.02" x2="-127.94" y2="-203.66" xlink:href="#linear-gradient"/>
    <linearGradient id="linear-gradient-41" x1="547.22" y1="1068.32" x2="-128.09" y2="25.64" xlink:href="#linear-gradient"/>
    <linearGradient id="linear-gradient-42" x1="547.18" y1="1297.57" x2="-128.14" y2="254.88" xlink:href="#linear-gradient"/>
    <linearGradient id="linear-gradient-43" x1="348.87" y1="723.84" x2="-326.44" y2="-318.85" xlink:href="#linear-gradient"/>
    <linearGradient id="linear-gradient-44" x1="349.71" y1="953.71" x2="-325.6" y2="-88.97" xlink:href="#linear-gradient"/>
    <linearGradient id="linear-gradient-45" x1="283.87" y1="839.02" x2="-391.44" y2="-203.66" xlink:href="#linear-gradient"/>
    <linearGradient id="linear-gradient-46" x1="283.71" y1="1068.32" x2="-391.6" y2="25.64" xlink:href="#linear-gradient"/>
    <linearGradient id="linear-gradient-47" x1="349.67" y1="1182.96" x2="-325.65" y2="140.28" xlink:href="#linear-gradient"/>
    <linearGradient id="linear-gradient-48" x1="349.67" y1="1412.35" x2="-325.65" y2="369.67" xlink:href="#linear-gradient"/>
    <linearGradient id="linear-gradient-49" x1="283.67" y1="1297.57" x2="-391.64" y2="254.88" xlink:href="#linear-gradient"/>
  </defs>
  <g id="Layer_1-2" data-name="Layer 1">
    <g class="cls-50">
      <path class="cls-9" d="M.98,115.11l-.14-.08V38.34S67.1.08,67.1.08l.14-.08,66.27,38.26.14.08v76.69s-66.27,38.26-66.27,38.26l-.14.08L.98,115.11ZM133.08,38.67L67.25.66,1.41,38.67v76.02s65.84,38.01,65.84,38.01l65.84-38.01V38.67Z"/>
      <path class="cls-8" d="M.14,344.99l-.14-.08v-76.69s66.27-38.26,66.27-38.26l.14-.08,66.27,38.26.14.08v76.69s-66.27,38.26-66.27,38.26l-.14.08L.14,344.99ZM132.25,268.55l-65.84-38.01L.57,268.55v76.02s65.84,38.01,65.84,38.01l65.84-38.01v-76.02Z"/>
      <path class="cls-7" d="M65.98,230.29l-.14-.08v-76.69s66.27-38.26,66.27-38.26l.14-.08,66.27,38.26.14.08v76.69s-66.27,38.26-66.27,38.26l-.14.08-66.27-38.26ZM198.09,153.86l-65.84-38.01-65.84,38.01v76.02s65.84,38.01,65.84,38.01l65.84-38.01v-76.02Z"/>
      <path class="cls-6" d="M66.14,459.6l-.14-.08v-76.69s66.27-38.26,66.27-38.26l.14-.08,66.27,38.26.14.08v76.69s-66.27,38.26-66.27,38.26l-.14.08-66.27-38.26ZM198.24,383.16l-65.84-38.01-65.84,38.01v76.02s65.84,38.01,65.84,38.01l65.84-38.01v-76.02Z"/>
      <path class="cls-3" d="M.19,574.23l-.14-.08v-76.69s66.27-38.26,66.27-38.26l.14-.08,66.27,38.26.14.08v76.69s-66.27,38.26-66.27,38.26l-.14.08L.19,574.23ZM132.29,497.8l-65.84-38.01L.62,497.8v76.02s65.84,38.01,65.84,38.01l65.84-38.01v-76.02Z"/>
      <path class="cls-4" d="M.19,803.63l-.14-.08v-76.69s66.27-38.26,66.27-38.26l.14-.08,66.27,38.26.14.08v76.69s-66.27,38.26-66.27,38.26l-.14.08L.19,803.63ZM132.29,727.19l-65.84-38.01L.62,727.19v76.02s65.84,38.01,65.84,38.01l65.84-38.01v-76.02Z"/>
      <path class="cls-2" d="M265.26,115.11l-.14-.08V38.34S331.38.08,331.38.08l.14-.08,66.27,38.26.14.08v76.69s-66.27,38.26-66.27,38.26l-.14.08-66.27-38.26ZM397.36,38.67L331.52.66l-65.84,38.01v76.02s65.84,38.01,65.84,38.01l65.84-38.01V38.67Z"/>
      <path class="cls-1" d="M264.42,344.99l-.14-.08v-76.69s66.27-38.26,66.27-38.26l.14-.08,66.27,38.26.14.08v76.69s-66.27,38.26-66.27,38.26l-.14.08-66.27-38.26ZM396.53,268.55l-65.84-38.01-65.84,38.01v76.02s65.84,38.01,65.84,38.01l65.84-38.01v-76.02Z"/>
      <path class="cls-5" d="M264.46,574.23l-.14-.08v-76.69s66.27-38.26,66.27-38.26l.14-.08,66.27,38.26.14.08v76.69s-66.27,38.26-66.27,38.26l-.14.08-66.27-38.26ZM396.57,497.8l-65.84-38.01-65.84,38.01v76.02s65.84,38.01,65.84,38.01l65.84-38.01v-76.02Z"/>
      <path class="cls-20" d="M264.46,803.63l-.14-.08v-76.69s66.27-38.26,66.27-38.26l.14-.08,66.27,38.26.14.08v76.69s-66.27,38.26-66.27,38.26l-.14.08-66.27-38.26ZM396.57,727.19l-65.84-38.01-65.84,38.01v76.02s65.84,38.01,65.84,38.01l65.84-38.01v-76.02Z"/>
      <path class="cls-21" d="M66.18,688.84l-.14-.08v-76.69s66.27-38.26,66.27-38.26l.14-.08,66.27,38.26.14.08v76.69s-66.27,38.26-66.27,38.26l-.14.08-66.27-38.26ZM198.28,612.4l-65.84-38.01-65.84,38.01v76.02s65.84,38.01,65.84,38.01l65.84-38.01v-76.02Z"/>
      <path class="cls-22" d="M199,230.29l-.14-.08v-76.69s66.27-38.26,66.27-38.26l.14-.08,66.27,38.26.14.08v76.69s-66.27,38.26-66.27,38.26l-.14.08-66.27-38.26ZM331.11,153.86l-65.84-38.01-65.84,38.01v76.02s65.84,38.01,65.84,38.01l65.84-38.01v-76.02Z"/>
      <path class="cls-23" d="M199.16,459.6l-.14-.08v-76.69s66.27-38.26,66.27-38.26l.14-.08,66.27,38.26.14.08v76.69s-66.27,38.26-66.27,38.26l-.14.08-66.27-38.26ZM331.26,383.16l-65.84-38.01-65.84,38.01v76.02s65.84,38.01,65.84,38.01l65.84-38.01v-76.02Z"/>
      <path class="cls-25" d="M199.2,688.84l-.14-.08v-76.69s66.27-38.26,66.27-38.26l.14-.08,66.27,38.26.14.08v76.69s-66.27,38.26-66.27,38.26l-.14.08-66.27-38.26ZM331.31,612.4l-65.84-38.01-65.84,38.01v76.02s65.84,38.01,65.84,38.01l65.84-38.01v-76.02Z"/>
      <path class="cls-36" d="M397.51,115.11l-.14-.08V38.34S463.63.08,463.63.08l.14-.08,66.27,38.26.14.08v76.69s-66.27,38.26-66.27,38.26l-.14.08-66.27-38.26ZM529.61,38.67L463.77.66l-65.84,38.01v76.02s65.84,38.01,65.84,38.01l65.84-38.01V38.67Z"/>
      <path class="cls-37" d="M396.67,344.99l-.14-.08v-76.69s66.27-38.26,66.27-38.26l.14-.08,66.27,38.26.14.08v76.69s-66.27,38.26-66.27,38.26l-.14.08-66.27-38.26ZM528.78,268.55l-65.84-38.01-65.84,38.01v76.02s65.84,38.01,65.84,38.01l65.84-38.01v-76.02Z"/>
      <path class="cls-38" d="M462.51,230.29l-.14-.08v-76.69s66.27-38.26,66.27-38.26l.14-.08,66.27,38.26.14.08v76.69s-66.27,38.26-66.27,38.26l-.14.08-66.27-38.26ZM594.61,153.86l-65.84-38.01-65.84,38.01v76.02s65.84,38.01,65.84,38.01l65.84-38.01v-76.02Z"/>
      <path class="cls-39" d="M462.67,459.6l-.14-.08v-76.69s66.27-38.26,66.27-38.26l.14-.08,66.27,38.26.14.08v76.69s-66.27,38.26-66.27,38.26l-.14.08-66.27-38.26ZM594.77,383.16l-65.84-38.01-65.84,38.01v76.02s65.84,38.01,65.84,38.01l65.84-38.01v-76.02Z"/>
      <path class="cls-24" d="M396.71,574.23l-.14-.08v-76.69s66.27-38.26,66.27-38.26l.14-.08,66.27,38.26.14.08v76.69s-66.27,38.26-66.27,38.26l-.14.08-66.27-38.26ZM528.82,497.8l-65.84-38.01-65.84,38.01v76.02s65.84,38.01,65.84,38.01l65.84-38.01v-76.02Z"/>
      <path class="cls-27" d="M396.71,803.63l-.14-.08v-76.69s66.27-38.26,66.27-38.26l.14-.08,66.27,38.26.14.08v76.69s-66.27,38.26-66.27,38.26l-.14.08-66.27-38.26ZM528.82,727.19l-65.84-38.01-65.84,38.01v76.02s65.84,38.01,65.84,38.01l65.84-38.01v-76.02Z"/>
      <path class="cls-26" d="M661.78,115.11l-.14-.08V38.34S727.91.08,727.91.08l.14-.08,66.27,38.26.14.08v76.69s-66.27,38.26-66.27,38.26l-.14.08-66.27-38.26ZM793.89,38.67L728.05.66l-65.84,38.01v76.02s65.84,38.01,65.84,38.01l65.84-38.01V38.67Z"/>
      <path class="cls-28" d="M660.95,344.99l-.14-.08v-76.69s66.27-38.26,66.27-38.26l.14-.08,66.27,38.26.14.08v76.69s-66.27,38.26-66.27,38.26l-.14.08-66.27-38.26ZM793.05,268.55l-65.84-38.01-65.84,38.01v76.02s65.84,38.01,65.84,38.01l65.84-38.01v-76.02Z"/>
      <path class="cls-29" d="M660.99,574.23l-.14-.08v-76.69s66.27-38.26,66.27-38.26l.14-.08,66.27,38.26.14.08v76.69s-66.27,38.26-66.27,38.26l-.14.08-66.27-38.26ZM793.1,497.8l-65.84-38.01-65.84,38.01v76.02s65.84,38.01,65.84,38.01l65.84-38.01v-76.02Z"/>
      <path class="cls-45" d="M660.99,803.63l-.14-.08v-76.69s66.27-38.26,66.27-38.26l.14-.08,66.27,38.26.14.08v76.69s-66.27,38.26-66.27,38.26l-.14.08-66.27-38.26ZM793.1,727.19l-65.84-38.01-65.84,38.01v76.02s65.84,38.01,65.84,38.01l65.84-38.01v-76.02Z"/>
      <path class="cls-31" d="M462.71,688.84l-.14-.08v-76.69s66.27-38.26,66.27-38.26l.14-.08,66.27,38.26.14.08v76.69s-66.27,38.26-66.27,38.26l-.14.08-66.27-38.26ZM594.81,612.4l-65.84-38.01-65.84,38.01v76.02s65.84,38.01,65.84,38.01l65.84-38.01v-76.02Z"/>
      <path class="cls-46" d="M595.53,230.29l-.14-.08v-76.69s66.27-38.26,66.27-38.26l.14-.08,66.27,38.26.14.08v76.69s-66.27,38.26-66.27,38.26l-.14.08-66.27-38.26ZM727.64,153.86l-65.84-38.01-65.84,38.01v76.02s65.84,38.01,65.84,38.01l65.84-38.01v-76.02Z"/>
      <path class="cls-44" d="M595.69,459.6l-.14-.08v-76.69s66.27-38.26,66.27-38.26l.14-.08,66.27,38.26.14.08v76.69s-66.27,38.26-66.27,38.26l-.14.08-66.27-38.26ZM727.79,383.16l-65.84-38.01-65.84,38.01v76.02s65.84,38.01,65.84,38.01l65.84-38.01v-76.02Z"/>
      <path class="cls-30" d="M595.73,688.84l-.14-.08v-76.69s66.27-38.26,66.27-38.26l.14-.08,66.27,38.26.14.08v76.69s-66.27,38.26-66.27,38.26l-.14.08-66.27-38.26ZM727.83,612.4l-65.84-38.01-65.84,38.01v76.02s65.84,38.01,65.84,38.01l65.84-38.01v-76.02Z"/>
      <path class="cls-47" d="M794.03,115.11l-.14-.08V38.34S860.16.08,860.16.08l.14-.08,66.27,38.26.14.08v76.69s-66.27,38.26-66.27,38.26l-.14.08-66.27-38.26ZM926.14,38.67L860.3.66l-65.84,38.01v76.02s65.84,38.01,65.84,38.01l65.84-38.01V38.67Z"/>
      <path class="cls-35" d="M793.2,344.99l-.14-.08v-76.69s66.27-38.26,66.27-38.26l.14-.08,66.27,38.26.14.08v76.69s-66.27,38.26-66.27,38.26l-.14.08-66.27-38.26ZM925.3,268.55l-65.84-38.01-65.84,38.01v76.02s65.84,38.01,65.84,38.01l65.84-38.01v-76.02Z"/>
      <path class="cls-33" d="M859.04,230.29l-.14-.08v-76.69s66.27-38.26,66.27-38.26l.14-.08,66.27,38.26.14.08v76.69s-66.27,38.26-66.27,38.26l-.14.08-66.27-38.26ZM991.14,153.86l-65.84-38.01-65.84,38.01v76.02s65.84,38.01,65.84,38.01l65.84-38.01v-76.02Z"/>
      <path class="cls-32" d="M859.19,459.6l-.14-.08v-76.69s66.27-38.26,66.27-38.26l.14-.08,66.27,38.26.14.08v76.69s-66.27,38.26-66.27,38.26l-.14.08-66.27-38.26ZM991.3,383.16l-65.84-38.01-65.84,38.01v76.02s65.84,38.01,65.84,38.01l65.84-38.01v-76.02Z"/>
      <path class="cls-34" d="M793.24,574.23l-.14-.08v-76.69s66.27-38.26,66.27-38.26l.14-.08,66.27,38.26.14.08v76.69s-66.27,38.26-66.27,38.26l-.14.08-66.27-38.26ZM925.35,497.8l-65.84-38.01-65.84,38.01v76.02s65.84,38.01,65.84,38.01l65.84-38.01v-76.02Z"/>
      <path class="cls-41" d="M793.24,803.63l-.14-.08v-76.69s66.27-38.26,66.27-38.26l.14-.08,66.27,38.26.14.08v76.69s-66.27,38.26-66.27,38.26l-.14.08-66.27-38.26ZM925.35,727.19l-65.84-38.01-65.84,38.01v76.02s65.84,38.01,65.84,38.01l65.84-38.01v-76.02Z"/>
      <path class="cls-40" d="M1058.31,115.11l-.14-.08V38.34S1124.44.08,1124.44.08l.14-.08,66.27,38.26.14.08v76.69s-66.27,38.26-66.27,38.26l-.14.08-66.27-38.26ZM1190.42,38.67L1124.58.66l-65.84,38.01v76.02s65.84,38.01,65.84,38.01l65.84-38.01V38.67Z"/>
      <path class="cls-42" d="M1057.48,344.99l-.14-.08v-76.69s66.27-38.26,66.27-38.26l.14-.08,66.27,38.26.14.08v76.69s-66.27,38.26-66.27,38.26l-.14.08-66.27-38.26ZM1189.58,268.55l-65.84-38.01-65.84,38.01v76.02s65.84,38.01,65.84,38.01l65.84-38.01v-76.02Z"/>
      <path class="cls-48" d="M1057.52,574.23l-.14-.08v-76.69s66.27-38.26,66.27-38.26l.14-.08,66.27,38.26.14.08v76.69s-66.27,38.26-66.27,38.26l-.14.08-66.27-38.26ZM1189.62,497.8l-65.84-38.01-65.84,38.01v76.02s65.84,38.01,65.84,38.01l65.84-38.01v-76.02Z"/>
      <path class="cls-43" d="M1057.52,803.63l-.14-.08v-76.69s66.27-38.26,66.27-38.26l.14-.08,66.27,38.26.14.08v76.69s-66.27,38.26-66.27,38.26l-.14.08-66.27-38.26ZM1189.62,727.19l-65.84-38.01-65.84,38.01v76.02s65.84,38.01,65.84,38.01l65.84-38.01v-76.02Z"/>
      <path class="cls-49" d="M859.23,688.84l-.14-.08v-76.69s66.27-38.26,66.27-38.26l.14-.08,66.27,38.26.14.08v76.69s-66.27,38.26-66.27,38.26l-.14.08-66.27-38.26ZM991.34,612.4l-65.84-38.01-65.84,38.01v76.02s65.84,38.01,65.84,38.01l65.84-38.01v-76.02Z"/>
      <path class="cls-11" d="M992.06,230.29l-.14-.08v-76.69s66.27-38.26,66.27-38.26l.14-.08,66.27,38.26.14.08v76.69s-66.27,38.26-66.27,38.26l-.14.08-66.27-38.26ZM1124.16,153.86l-65.84-38.01-65.84,38.01v76.02s65.84,38.01,65.84,38.01l65.84-38.01v-76.02Z"/>
      <path class="cls-12" d="M992.21,459.6l-.14-.08v-76.69s66.27-38.26,66.27-38.26l.14-.08,66.27,38.26.14.08v76.69s-66.27,38.26-66.27,38.26l-.14.08-66.27-38.26ZM1124.32,383.16l-65.84-38.01-65.84,38.01v76.02s65.84,38.01,65.84,38.01l65.84-38.01v-76.02Z"/>
      <path class="cls-13" d="M992.26,688.84l-.14-.08v-76.69s66.27-38.26,66.27-38.26l.14-.08,66.27,38.26.14.08v76.69s-66.27,38.26-66.27,38.26l-.14.08-66.27-38.26ZM1124.36,612.4l-65.84-38.01-65.84,38.01v76.02s65.84,38.01,65.84,38.01l65.84-38.01v-76.02Z"/>
      <path class="cls-10" d="M1190.56,115.11l-.14-.08V38.34S1256.68.08,1256.68.08l.14-.08,66.27,38.26.14.08v76.69s-66.27,38.26-66.27,38.26l-.14.08-66.27-38.26ZM1322.67,38.67L1256.83.66l-65.84,38.01v76.02s65.84,38.01,65.84,38.01l65.84-38.01V38.67Z"/>
      <path class="cls-18" d="M1189.73,344.99l-.14-.08v-76.69s66.27-38.26,66.27-38.26l.14-.08,66.27,38.26.14.08v76.69s-66.27,38.26-66.27,38.26l-.14.08-66.27-38.26ZM1321.83,268.55l-65.84-38.01-65.84,38.01v76.02s65.84,38.01,65.84,38.01l65.84-38.01v-76.02Z"/>
      <path class="cls-16" d="M1255.56,230.29l-.14-.08v-76.69s66.27-38.26,66.27-38.26l.14-.08,66.27,38.26.14.08v76.69s-66.27,38.26-66.27,38.26l-.14.08-66.27-38.26ZM1387.67,153.86l-65.84-38.01-65.84,38.01v76.02s65.84,38.01,65.84,38.01l65.84-38.01v-76.02Z"/>
      <path class="cls-19" d="M1255.72,459.6l-.14-.08v-76.69s66.27-38.26,66.27-38.26l.14-.08,66.27,38.26.14.08v76.69s-66.27,38.26-66.27,38.26l-.14.08-66.27-38.26ZM1387.83,383.16l-65.84-38.01-65.84,38.01v76.02s65.84,38.01,65.84,38.01l65.84-38.01v-76.02Z"/>
      <path class="cls-17" d="M1189.77,574.23l-.14-.08v-76.69s66.27-38.26,66.27-38.26l.14-.08,66.27,38.26.14.08v76.69s-66.27,38.26-66.27,38.26l-.14.08-66.27-38.26ZM1321.87,497.8l-65.84-38.01-65.84,38.01v76.02s65.84,38.01,65.84,38.01l65.84-38.01v-76.02Z"/>
      <path class="cls-15" d="M1189.77,803.63l-.14-.08v-76.69s66.27-38.26,66.27-38.26l.14-.08,66.27,38.26.14.08v76.69s-66.27,38.26-66.27,38.26l-.14.08-66.27-38.26ZM1321.87,727.19l-65.84-38.01-65.84,38.01v76.02s65.84,38.01,65.84,38.01l65.84-38.01v-76.02Z"/>
      <path class="cls-14" d="M1255.76,688.84l-.14-.08v-76.69s66.27-38.26,66.27-38.26l.14-.08,66.27,38.26.14.08v76.69s-66.27,38.26-66.27,38.26l-.14.08-66.27-38.26ZM1387.87,612.4l-65.84-38.01-65.84,38.01v76.02s65.84,38.01,65.84,38.01l65.84-38.01v-76.02Z"/>
    </g>
  </g>
</svg>