<?xml version="1.0" encoding="UTF-8"?><svg id="Layer_2" xmlns="http://www.w3.org/2000/svg" viewBox="0 0 244.42 197.62"><defs><style>.cls-1{fill:#f5f5f5;}.cls-2{fill:#fff;}.cls-3{fill:#d1d1d1;}</style></defs><g id="Page_6"><g><g><path class="cls-3" d="M174.46,80.88c.41-.41,.63-.95,.63-1.52s-.22-1.11-.63-1.52c-.42-.42-.97-.63-1.52-.63s-1.1,.21-1.52,.63c-.84,.84-.84,2.2,0,3.04,.84,.84,2.2,.84,3.04,0Zm-2.64,12.63c.41-.41,.63-.95,.63-1.52s-.22-1.11-.63-1.52c-.42-.42-.97-.63-1.52-.63s-1.1,.21-1.52,.63c-.41,.41-.63,.95-.63,1.52s.22,1.11,.63,1.52c.84,.84,2.2,.84,3.04,0Zm-9.99-9.99c.84-.84,.84-2.2,0-3.04-.42-.42-.97-.63-1.52-.63s-1.1,.21-1.52,.63c-.84,.84-.84,2.2,0,3.04,.84,.84,2.2,.84,3.04,0Zm11.68-13.42c7.23-7.44,11.69-17.59,11.69-28.79,0-22.81-18.49-41.31-41.31-41.31s-41.31,18.49-41.31,41.31c0,11.2,4.46,21.35,11.69,28.79-8.25,7.84-13.39,18.91-13.39,31.18,0,23.75,19.25,43.01,43.01,43.01s43.01-19.25,43.01-43.01c0-12.28-5.14-23.35-13.39-31.18Zm-29.61-43.52c8.14,0,14.74,6.6,14.74,14.74s-6.6,14.74-14.74,14.74-14.74-6.6-14.74-14.74,6.6-14.74,14.74-14.74Zm17.75,72.09l4.32-4.33c-.39-.71-.59-1.51-.59-2.34,0-1.31,.51-2.55,1.44-3.47,1.92-1.92,5.03-1.91,6.95,0,.93,.93,1.44,2.16,1.44,3.47s-.51,2.55-1.44,3.47c-.96,.96-2.22,1.44-3.47,1.44-.82,0-1.63-.21-2.37-.61l-6.12,6.13c-.59,9.38-8.38,16.81-17.91,16.81s-17.95-8.03-17.95-17.95,8.03-17.95,17.95-17.95c3.72,0,7.17,1.13,10.04,3.07l2.06-2.06c-.56-1.04-.72-2.25-.48-3.38,.04-.21,.11-.41,.18-.61,0-.03,.02-.05,.03-.08,.07-.19,.16-.38,.25-.56,.02-.03,.03-.06,.05-.09,.1-.18,.21-.35,.33-.52,.02-.02,.04-.05,.05-.07,.13-.17,.28-.34,.43-.5,.11-.11,.23-.22,.35-.32,.04-.03,.08-.06,.12-.09,.08-.06,.17-.13,.25-.18,.05-.03,.1-.06,.15-.1,.08-.05,.16-.1,.24-.14,.06-.03,.11-.06,.17-.09,.08-.04,.16-.08,.24-.11,.06-.03,.12-.05,.18-.07,.08-.03,.16-.06,.25-.09,.06-.02,.12-.04,.18-.06,.08-.02,.17-.04,.26-.06,.06-.01,.12-.03,.18-.04,.1-.02,.19-.03,.29-.04,.05,0,.1-.02,.16-.02,.14-.01,.28-.02,.43-.02,.07,0,.14,0,.21,0,.08,0,.16,0,.23,.01,.08,0,.15,.02,.23,.03,.07,0,.14,.02,.21,.03,.08,.01,.15,.03,.23,.05,.07,.02,.13,.03,.2,.05,.08,.02,.16,.04,.23,.07,.06,.02,.13,.04,.19,.07,.08,.03,.15,.06,.23,.09,.06,.03,.12,.05,.18,.08,.08,.04,.15,.07,.23,.11,.05,.03,.11,.06,.16,.1,.08,.05,.15,.09,.23,.14,.26,.18,.51,.38,.74,.61h0c1.91,1.92,1.91,5.03,0,6.95-.96,.96-2.22,1.44-3.47,1.44-.82,0-1.63-.21-2.37-.61l-1.83,1.83c1.06,.98,1.99,2.09,2.79,3.3l9.72-9.73c-1.01-1.86-.73-4.24,.84-5.81,1.92-1.91,5.03-1.92,6.95,0,.93,.93,1.44,2.16,1.44,3.47s-.51,2.55-1.44,3.47c-.96,.96-2.22,1.44-3.47,1.44-.82,0-1.63-.21-2.37-.61l-10.28,10.3c.66,1.47,1.13,3.05,1.37,4.7Z"/><path class="cls-1" d="M143.91,59.21c-19.03,0-35.18,11.43-40.84,28.57h-16.66v33.32c0,12.81-10.38,23.2-23.2,23.2h-5.69V0h86.68V5.61c0,12.81-10.39,23.2-23.2,23.2h-34.59v29.47h57.5"/></g><g><path class="cls-2" d="M17.75,176.08v4.3h-6.43v16.73H6.4v-16.73H0v-4.3H17.75Z"/><path class="cls-2" d="M25.26,192.96h11.59v4.14H20.48v-21.02h16.04v4.11h-11.26v4.27h10.66v3.96h-10.66v4.53Z"/><path class="cls-2" d="M50.4,197.59c-3.42,0-6.17-1.01-8.23-3.03-2.06-2.02-3.09-4.67-3.09-7.96s1.05-5.94,3.14-7.96c2.09-2.02,4.79-3.03,8.09-3.03,3.1,0,5.77,1.09,7.99,3.27l-3.03,3.03c-1.34-1.28-2.95-1.92-4.84-1.92s-3.44,.61-4.63,1.82c-1.18,1.21-1.77,2.81-1.77,4.79s.59,3.58,1.77,4.79c1.18,1.21,2.72,1.82,4.63,1.82,2.08,0,3.84-.7,5.29-2.1l2.88,3.21c-2.26,2.18-5,3.27-8.2,3.27Z"/><path class="cls-2" d="M75.27,176.08h4.9v21.02h-4.9v-8.44h-8.92v8.44h-4.93v-21.02h4.93v8.14h8.92v-8.14Z"/><path class="cls-2" d="M98.63,176.08h4.9v21.02h-4.42l-9.52-13,.06,5.68v7.33h-4.9v-21.02h4.42l9.52,13.07-.06-5.62v-7.45Z"/><path class="cls-2" d="M126.45,194.6c-2.06,2.01-4.81,3.02-8.23,3.02s-6.17-1.01-8.23-3.02c-2.06-2.01-3.09-4.68-3.09-8s1.03-5.99,3.09-8c2.06-2.01,4.81-3.02,8.23-3.02s6.17,1.01,8.23,3.02c2.06,2.01,3.09,4.68,3.09,8s-1.03,5.99-3.09,8Zm-12.86-3.18c1.16,1.21,2.7,1.82,4.63,1.82s3.47-.61,4.64-1.82c1.17-1.21,1.76-2.82,1.76-4.82s-.59-3.61-1.76-4.82c-1.17-1.21-2.72-1.82-4.64-1.82s-3.46,.61-4.63,1.82c-1.16,1.21-1.74,2.82-1.74,4.82s.58,3.61,1.74,4.82Z"/><path class="cls-2" d="M132.9,197.11v-21.02h4.93v16.58h10.57v4.44h-15.5Z"/><path class="cls-2" d="M169.22,194.6c-2.06,2.01-4.81,3.02-8.23,3.02s-6.17-1.01-8.23-3.02c-2.06-2.01-3.09-4.68-3.09-8s1.03-5.99,3.09-8c2.06-2.01,4.81-3.02,8.23-3.02s6.17,1.01,8.23,3.02c2.06,2.01,3.09,4.68,3.09,8s-1.03,5.99-3.09,8Zm-12.86-3.18c1.16,1.21,2.7,1.82,4.63,1.82s3.47-.61,4.64-1.82c1.17-1.21,1.76-2.82,1.76-4.82s-.59-3.61-1.76-4.82c-1.17-1.21-2.72-1.82-4.64-1.82s-3.46,.61-4.63,1.82c-1.16,1.21-1.74,2.82-1.74,4.82s.58,3.61,1.74,4.82Z"/><path class="cls-2" d="M184.71,184.67h9.88v9.37c-2.2,2.36-5.22,3.54-9.04,3.54-3.36,0-6.05-1-8.06-2.99-2.01-1.99-3.02-4.66-3.02-8s1.06-5.92,3.17-7.96c2.11-2.04,4.87-3.06,8.27-3.06,3.2,0,5.88,1.13,8.02,3.39l-2.97,2.94c-1.38-1.38-3.07-2.07-5.08-2.07s-3.62,.61-4.79,1.82c-1.17,1.21-1.76,2.86-1.76,4.94s.58,3.68,1.74,4.91c1.16,1.23,2.69,1.85,4.6,1.85s3.56-.51,4.75-1.53v-3.21h-5.71v-3.93Z"/><path class="cls-2" d="M198.26,197.11v-21.02h4.93v21.02h-4.93Z"/><path class="cls-2" d="M212.56,192.96h11.59v4.14h-16.37v-21.02h16.04v4.11h-11.26v4.27h10.66v3.96h-10.66v4.53Z"/><path class="cls-2" d="M235.56,197.59c-3.6,0-6.64-.99-9.1-2.97l2.55-3.57c1.86,1.46,4.03,2.19,6.52,2.19,1.24,0,2.23-.21,2.96-.63,.73-.42,1.1-.99,1.1-1.71,0-.68-.34-1.21-1.02-1.59-.68-.38-1.76-.65-3.24-.81-2.86-.32-4.96-.99-6.29-2.01-1.33-1.02-2-2.48-2-4.38s.8-3.51,2.39-4.7c1.59-1.19,3.67-1.79,6.23-1.79,3.08,0,5.74,.8,7.96,2.4l-2.31,3.45c-1.64-1.14-3.45-1.71-5.44-1.71-1.22,0-2.2,.2-2.93,.6-.73,.4-1.1,.94-1.1,1.62s.32,1.17,.95,1.53c.63,.36,1.69,.63,3.17,.81,5.65,.66,8.47,2.86,8.47,6.61,0,2-.82,3.61-2.45,4.84-1.63,1.22-3.77,1.83-6.41,1.83Z"/></g></g></g></svg>