<?xml version="1.0" encoding="UTF-8"?><svg id="Layer_2" xmlns="http://www.w3.org/2000/svg" viewBox="0 0 299.81 106.53"><defs><style>.cls-1{fill:#242021;}.cls-1,.cls-2,.cls-3{fill-rule:evenodd;}.cls-2{fill:#ec1d25;}.cls-3{fill:#fefefe;}</style></defs><g id="F8_Logo"><g><path class="cls-1" d="M13.65,85.19c-1.39-.88-2.76-1.78-4.02-2.84-4.39-3.69-7.15-8.38-8.55-13.91C-.06,63.92-.21,59.34,.22,54.73c.41-4.45,1.27-8.8,2.81-12.99,1.99-5.44,4.72-10.5,8.23-15.13,5.11-6.74,11.52-11.86,19.2-15.41,5.18-2.39,10.61-3.92,16.23-4.8,6.32-.98,12.67-1.12,19.04-.62,4.17,.33,8.31,.91,12.39,1.86,.9,.21,.9,.2,.78,1.14-.53,4.26-1.07,8.53-1.59,12.8-.05,.44-.18,.49-.57,.34-2.92-1.08-5.93-1.82-9.01-2.34-3.84-.64-7.7-.89-11.59-.77-4.93,.16-9.72,.96-14.26,2.98-3.25,1.44-6.23,3.32-8.94,5.61-5.31,4.49-9.27,9.97-11.81,16.44-1.86,4.75-2.57,9.68-2.08,14.77,.32,3.36,1.16,6.57,2.78,9.54,1.95,3.57,4.79,6.2,8.53,7.84-.08,.32,.19,.33,.37,.4,1.06,.43,2.16,.72,3.27,.96,.26,.06,.48,.05,.71-.06,2.12,.43,4.26,.7,6.42,.8,6.78,.32,13.46-.44,20.09-1.86,1.79-.38,3.55-.83,5.32-1.32,0,.07,.02,.11,0,.13-1.52,4.66-3.18,9.26-4.77,13.89-.11,.32-.33,.41-.64,.46-3.56,.58-7.14,1.07-10.73,1.41-5.57,.53-11.14,.69-16.72,.29-4.74-.34-9.39-1.12-13.89-2.7,.08-.36-.21-.41-.43-.49-1.81-.66-3.54-1.5-5.14-2.58-.17-.11-.34-.27-.57-.15Z"/><path class="cls-2" d="M13.65,85.19c.23-.12,.4,.03,.57,.15,1.6,1.08,3.33,1.92,5.14,2.58,.22,.08,.51,.13,.43,.49-.02,.03-.03,.07-.05,.1-.41,.48-.74,1.01-1.03,1.58-1,2-.66,3.42,1.15,4.73,1.43,1.03,3.04,1.67,4.72,2.15,4.28,1.22,8.68,1.56,13.09,1.69,5.47,.16,10.93-.11,16.38-.57,6.68-.57,13.34-1.41,19.96-2.47,8.54-1.37,17.02-3.08,25.45-5.02,10.96-2.52,21.82-5.44,32.59-8.68,1.44-.43,2.9-.8,4.3-1.37,.79-.23,1.6-.43,2.38-.69,1.38-.46,2.8-.8,4.13-1.39,1.58-.37,3.09-.94,4.61-1.49,.11-.03,.22-.04,.33-.08,4.8-1.61,9.56-3.3,14.31-5.06,4.8-1.78,9.56-3.65,14.28-5.62,3.76-1.57,7.49-3.22,11.18-4.97,.47-.22,1.01-.35,1.36-.79,.07-.03,.16-.04,.17-.14h-.01c.19,.14,.35,.04,.52-.05,.84-.42,1.68-.81,2.51-1.24,1.21-.64,2.48-1.19,3.64-1.91,.21-.09,.43-.16,.63-.26,1.63-.85,3.26-1.72,4.9-2.56,3.62-1.84,7.2-3.77,10.78-5.69,.2-.11,.42-.2,.48-.45,.24,.06,.43-.04,.64-.16,1.56-.88,3.14-1.73,4.69-2.62,1.42-.81,2.87-1.57,4.22-2.49,.4-.22,.81-.42,1.19-.66,4.37-2.65,8.69-5.38,12.78-8.45,1.36-1.02,2.79-1.95,3.98-3.19,.21,.07,.31-.11,.43-.21,1.62-1.34,3.2-2.72,4.73-4.16,2.31-2.18,4.47-4.5,6.5-6.94,1.1-1.32,2.1-2.72,2.7-4.36,1-2.72,.2-4.99-2.29-6.47-1.54-.91-3.23-1.35-4.98-1.62-3.36-.52-6.71-.23-10.06,.06-3.31,.29-6.61,.71-9.89,1.2-1.87,.28-3.74,.54-5.59,.92,.06-.43-.04-.59-.55-.58-3.2,.03-6.4,.02-9.6,.01-.22,0-.46,.05-.67-.06,.14-.17,.34-.24,.54-.29,8.24-2.06,16.54-3.87,24.92-5.29,5.12-.87,10.26-1.61,15.43-2.13,3.4-.34,6.8-.72,10.23-.7,2.43,.02,4.8,.41,7,1.5,3.39,1.68,4.61,4.7,3.37,8.28-.68,1.98-1.83,3.68-3.11,5.31-1.89,2.4-3.94,4.67-6.08,6.84-1.39,1.41-2.83,2.79-4.34,4.08-.16,.14-.4,.22-.4,.5-.19,.12-.39,.2-.57,.35-1.53,1.36-3.12,2.65-4.75,3.89-1.42,1.08-2.85,2.14-4.28,3.2-1.22,.82-2.43,1.63-3.65,2.45-2.28,1.52-4.6,3-6.95,4.42-.16,.1-.31,.22-.46,.33-.09,.04-.18,.07-.26,.12-2.68,1.62-5.38,3.2-8.11,4.73-2.96,1.65-5.93,3.29-8.9,4.94-1.45,.76-2.91,1.52-4.36,2.28-1.75,.93-3.5,1.86-5.25,2.8l-.1,.1h.01c-.2-.02-.36,.11-.52,.19-2.75,1.43-5.48,2.88-8.24,4.27-2.64,1.33-5.3,2.6-7.96,3.9-2.39,1.05-4.78,2.1-7.16,3.16-.71,.32-1.46,.56-2.12,.96-.27,.09-.55,.16-.81,.27-3.33,1.42-6.69,2.75-10.07,4.06-5.28,2.05-10.61,3.97-15.95,5.85-1.68,.59-3.35,1.17-5.03,1.75-2.67,.87-5.33,1.74-8,2.6-12.01,3.86-24.12,7.35-36.34,10.49-9.02,2.32-18.09,4.43-27.22,6.29-7.16,1.46-14.36,2.76-21.59,3.84-5.42,.81-10.86,1.51-16.32,2.01-6.19,.57-12.39,.9-18.61,.69-4.4-.15-8.77-.55-13.02-1.81-1.67-.5-3.27-1.15-4.74-2.11-2.72-1.78-3.38-4.15-2.41-7.22,.54-1.7,1.56-3.14,2.71-4.48,1.73-2.01,3.76-3.68,5.89-5.25,.17-.12,.32-.27,.47-.41Z"/><path class="cls-1" d="M188.92,60.48c-.35,.44-.89,.56-1.36,.79-3.69,1.74-7.41,3.4-11.18,4.97-4.72,1.97-9.48,3.84-14.28,5.62-4.74,1.76-9.51,3.45-14.31,5.06-.11,.04-.22,.05-.33,.08-1.42-1.51-2.46-3.25-3.15-5.37-.6,2.38-1.02,4.62-1.46,6.86-1.33,.59-2.75,.93-4.13,1.39-.78,.26-1.59,.46-2.38,.69-.23-.01-.46-.04-.68-.04-2.37-.01-4.74-.03-7.11-.03-.39,0-.5-.1-.4-.48,.55-2.22,1.09-4.44,1.62-6.67,1.64-6.86,3.29-13.72,4.92-20.58,.93-3.93,1.84-7.87,2.75-11.81,.6-2.6,1.17-5.21,1.75-7.81,.47-.29,.38-.71,.28-1.14,.95-4.42,1.9-8.83,2.83-13.25,.62-2.97,1.19-5.95,1.63-8.95,.05-.36,.1-.72,.11-1.08,.01-.39,.19-.5,.57-.49,1.7,.02,3.4,.02,5.1,0,3.13-.02,6.27-.05,9.4-.1,.49,0,.51,.12,.4,.54-1.43,5.66-2.84,11.32-4.25,16.98-.03,.13-.05,.26-.07,.4-.36,.29-.37,.68-.29,1.09,0,.06-.04,.15,.07,.16,.08,.01,.14-.02,.15-.1h-.02c.17,0,.34,0,.51-.03,3.67-.87,7.38-1.43,11.15-1.62,4.03-.21,8.02-.04,11.95,.97,2.23,.57,4.39,1.34,6.29,2.66,3.95,2.75,5.96,6.7,6.72,11.35,.44,2.71,.41,5.44,.12,8.17-.32,3.02-.86,6-1.83,8.9-.31,.93-.74,1.82-.93,2.79h.01c-.13-.06-.12,.08-.17,.13Zm-24.43-24.55c-4.14,.12-8.19,.83-12.2,1.82-.29,.07-.34,.27-.38,.5-.13,.66-.25,1.31-.38,1.96-1.1,5.59-2.47,11.14-3.25,16.79-.25,1.82-.41,3.66-.09,5.48,.81,4.54,4.62,7.96,9.34,8.43,5.1,.51,9.14-1.59,12.47-5.25,2.37-2.61,3.94-5.71,5.06-9.02,1.12-3.32,2.06-6.69,1.74-10.24-.34-3.75-2.03-6.76-5.28-8.78-2.15-1.34-4.54-1.73-7.03-1.69Z"/><path class="cls-1" d="M113.42,41.92c.52-1.1,.98-2.24,.75-3.46-.37-1.95-1.7-3.14-3.46-3.89-1.05-.45-2.17-.61-3.3-.6-3.04,.01-6.07,.16-9.08,.61-4.78,.72-9.43,2.01-14,3.55-.23,.08-.46,.14-.82,.25,.33-.98,.62-1.86,.92-2.73,.75-2.18,1.51-4.36,2.23-6.54,.13-.39,.32-.59,.72-.69,2.52-.62,5.06-1.15,7.62-1.58,5.47-.93,10.98-1.44,16.54-1.34,3.21,.06,6.41,.23,9.51,1.19,1.87,.58,3.64,1.36,5.18,2.61,2.05,1.66,3.23,3.77,3.33,6.45-.24,.33-.2,.66,0,.98,.03,1.48-.22,2.93-.53,4.37-1.44,6.59-2.9,13.19-4.37,19.77-1.42,6.35-2.87,12.69-4.28,19.04-.1,.46-.3,.51-.68,.51-4.61,0-9.22-.02-13.83,0-.54,0-.63-.11-.5-.62,.61-2.44,1.19-4.89,1.78-7.33,1.37-5.67,2.75-11.34,4.12-17.01,.23-.97,.45-1.94,.7-2.99-2.25,1.33-4.47,2.47-6.89,3.15-2.82,.8-5.68,1.51-8.47,2.42-2.6,.85-5.17,1.75-7.38,3.44-1.49,1.15-2.78,2.47-3.39,4.3-.8,2.4-.54,4.25,1.11,5.68,1.04,.89,2.28,1.38,3.61,1.62,3.04,.54,6.05,.18,9.05-.39,.88-.17,1.74-.43,2.63-.74-.04,.15-.04,.21-.07,.26-1.25,2.74-2.52,5.47-3.74,8.22-.21,.47-.54,.52-.94,.57-2.62,.33-5.24,.57-7.88,.61-3.06,.04-6.12,.03-9.13-.61-2.51-.53-4.76-1.57-6.52-3.46-2.9-3.12-3.46-6.87-2.69-10.9,.61-3.19,2.1-5.95,4.28-8.35,.08-.09,.28-.16,.14-.35h-.01c.18,.14,.21-.05,.29-.12,1.06-.48,1.77-1.4,2.64-2.11,.02-.01,0-.07,0-.11,2.28-1.77,4.85-2.99,7.55-3.95,3.01-1.07,6.07-1.98,9.16-2.79,.11-.03,.21-.08,.32-.12,1.07-.01,2.09-.34,3.14-.53,.85-.15,1.7-.35,2.49-.73,.12-.03,.29,.1,.35-.11h-.02c.19,0,.38,.01,.56-.02,2.76-.48,5.45-1.19,8.01-2.37,.99-.46,1.9-1.03,2.52-1.97,.57-.15,.78-.48,.71-1.09Z"/><path class="cls-1" d="M248.72,33.96c1.43-1.07,2.86-2.12,4.28-3.2,1.63-1.24,3.22-2.53,4.75-3.89,.17-.16,.38-.24,.57-.35,1.2,0,2.41,0,3.61,0,.31,0,.48,.12,.61,.4,2.21,4.44,4.44,8.86,6.64,13.3,.22,.45,.35,.41,.65,.1,4.4-4.44,8.89-8.8,13.13-13.4,.22-.24,.45-.38,.78-.37,5.2,0,10.41,0,15.61,0,.09,0,.18,.02,.45,.05-.58,.55-1.07,.99-1.54,1.46-3.98,4.05-7.98,8.09-11.93,12.17-3.42,3.53-6.87,7.02-10.21,10.63-.93,1.01-.94,1.01-.33,2.21,4.31,8.57,8.63,17.13,12.95,25.7,.29,.58,.6,1.14,.93,1.75-.38,.11-.72,.03-1.05,.03-1.57-.01-3.14-.02-4.7-.03-3.77-.02-7.53-.05-11.3-.06-.39,0-.58-.14-.74-.47-2.29-4.74-4.62-9.46-7.03-14.14-.34-.66-.66-1.33-1.07-1.92-.96,.95-1.93,1.87-2.87,2.82-3.45,3.45-6.89,6.91-10.32,10.37-.9,.91-1.77,1.85-2.64,2.79-.27,.29-.55,.48-.97,.48-3.88,.06-7.76,.05-11.64,0-1.38-.02-2.75,0-4.13,0-.21,0-.42,.05-.62-.07,.06-.22,.25-.34,.39-.48,5.12-5.13,10.26-10.25,15.36-15.4,3.69-3.72,7.33-7.49,11.01-11.22,.44-.44,.52-.78,.23-1.38-2.84-5.76-5.66-11.54-8.58-17.26-.1-.2-.19-.41-.29-.62Z"/><path class="cls-1" d="M210.76,8.41c.22,.11,.45,.06,.67,.06,3.2,0,6.4,.02,9.6-.01,.51,0,.61,.16,.55,.58-.04,.09-.09,.17-.11,.26-.55,2.34-1.1,4.67-1.64,7.01-1.29,5.57-2.58,11.14-3.85,16.71-1.16,5.05-2.29,10.1-3.44,15.15-.07,.25-.28,.34-.48,.45-3.58,1.92-7.16,3.85-10.78,5.69-1.64,.84-3.27,1.71-4.9,2.56-.2,.1-.42,.17-.63,.26,.03-.79,.3-1.53,.47-2.29,1.42-6.22,2.86-12.44,4.27-18.66,1.12-4.96,2.21-9.93,3.3-14.9,.66-2.99,1.22-6,1.71-9.03,.14-.01,.29-.03,.32-.18,.14-.82,.34-1.64,.37-2.47,0-.2-.11-.15-.22-.11,.17-1.11,.17-1.11,1.29-1.11,1.17,0,2.33,.02,3.5,.04Z"/><path class="cls-1" d="M220.38,50.94c2.97-1.65,5.93-3.29,8.9-4.94,2.73-1.52,5.43-3.1,8.11-4.73,.08-.05,.17-.08,.26-.12-.55,2.52-1.1,5.03-1.66,7.55-1.3,5.75-2.59,11.5-3.64,17.29-.78,4.26-1.62,8.51-2.44,12.76-.1,.52-.05,1.22-.37,1.52-.35,.33-1.05,.11-1.6,.1-3.77-.09-7.53,0-11.3,0-1.02,0-2.05,0-3.03,0,2.66-9.72,4.64-19.6,6.78-29.44Z"/><path class="cls-1" d="M193.96,64.48c2.65-1.3,5.32-2.57,7.96-3.9,2.76-1.39,5.5-2.85,8.24-4.27,.17-.09,.32-.21,.52-.2-.15,1.4-.56,2.75-.85,4.12-.88,4.13-1.82,8.26-2.71,12.39-.53,2.44-1.01,4.89-1.49,7.34-.08,.42-.27,.52-.65,.52-4.78,0-9.56-.01-14.33,0-.51,0-.43-.22-.35-.55,1.2-5.04,2.4-10.08,3.6-15.11,.03-.11,.04-.22,.07-.34Z"/><path class="cls-1" d="M152.82,80.53c1.68-.58,3.36-1.16,5.03-1.75,5.34-1.88,10.67-3.8,15.95-5.85,3.37-1.31,6.74-2.64,10.07-4.06,.26-.11,.54-.18,.81-.27-1.82,2.87-4.07,5.35-6.71,7.46-3.29,2.63-7,4.4-11.14,5.21-4.58,.89-9.14,.86-13.63-.6-.13-.04-.25-.09-.37-.14Z"/><path class="cls-2" d="M78.61,55.61s.02,.09,0,.11c-.88,.71-1.59,1.63-2.64,2.11-.12-.02-.26-.06-.29,.13h.01c-.25-.09-.44,.09-.64,.17-4.76,2.01-9.51,4.06-14.23,6.18-7.68,3.45-15.31,7.01-22.73,10.99-1.16,.62-2.37,1.15-3.39,2.01-.23,.11-.45,.11-.71,.06-1.11-.24-2.21-.54-3.27-.96-.17-.07-.45-.08-.37-.4,5.85-2.66,11.67-5.37,17.58-7.92,8.58-3.7,17.22-7.25,25.89-10.72,1.4-.56,2.79-1.12,4.2-1.67,.17-.07,.35-.27,.58-.08Z"/><path class="cls-2" d="M205.97,9.48c.11-.04,.23-.08,.22,.11-.04,.84-.24,1.65-.37,2.47-.03,.16-.18,.17-.32,.18-.11,.01-.23,.01-.34,.04-8.75,2.05-17.45,4.23-26.02,6.96-6.41,2.04-12.84,4.02-19.2,6.22-1.61,.56-3.26,1.04-4.83,1.72h.02l-.21-.06c-.08-.41-.07-.8,.29-1.09,2.2-.69,4.37-1.47,6.53-2.27,11.95-4.37,23.97-8.51,36.2-12.02,2.68-.77,5.36-1.51,8.04-2.27Z"/><path class="cls-1" d="M293.8,19.98c.41-1.58,.84-3.17,1.23-4.76,.12-.49,.28-.76,.86-.69,.58,.07,1.39-.2,1.72,.1,.38,.34,.11,1.15,.11,1.75,.01,1.99,0,3.98,.01,5.96,0,.38-.11,.47-.48,.47-1.08-.01-1.07,0-1.08-1.07-.01-1.55-.03-3.1-.06-4.64,0-.1,.04-.22-.11-.34-.4,1.63-.79,3.23-1.18,4.84-.01,.06-.02,.11-.03,.17-.24,1.03-.24,1.01-1.3,1.05-.46,.02-.61-.15-.71-.57-.43-1.85-.88-3.7-1.46-5.54,0,1.11,0,2.23,0,3.34,0,.78-.03,1.57-.02,2.35,0,.34-.11,.41-.42,.41-1.13,.01-1.13,.02-1.13-1.12,0-2.22,0-4.43,0-6.65,0-.39,.07-.56,.49-.51,.3,.04,.61,0,.92,0q1.09,0,1.37,1.09c.39,1.46,.78,2.91,1.16,4.37l.1-.02Z"/><path class="cls-1" d="M286.31,19.41c0,.98-.01,1.95,0,2.93,0,.35-.05,.5-.45,.49-1.23,0-1.23,.01-1.23-1.21,0-1.74-.01-3.48,0-5.22,0-.36-.08-.5-.47-.48-.53,.04-1.07,0-1.61,.02-.3,.01-.38-.09-.38-.39-.01-1-.03-1,.97-1,1.68,0,3.37,.01,5.05,0,.4,0,.62,.06,.54,.52-.03,.15-.02,.31,0,.46,.04,.31-.06,.44-.4,.42-.55-.03-1.11,.01-1.66-.01-.31-.01-.38,.1-.38,.39,.02,1.03,0,2.06,0,3.1Z"/><path class="cls-2" d="M113.42,41.92c.07,.61-.14,.94-.71,1.09-.16,.05-.33,.08-.49,.14-2.88,1.13-5.76,2.25-8.64,3.39-.66,.26-1.36,.45-1.96,.84h.02c-.13-.02-.26-.02-.35,.1-.79,.37-1.64,.58-2.49,.73-1.04,.18-2.06,.52-3.14,.53,.15-.17,.35-.27,.56-.35,5.63-2.13,11.25-4.26,16.88-6.39,.11-.04,.22-.06,.33-.09Z"/><path class="cls-2" d="M129.56,36.73c-.21-.33-.24-.66,0-.98,3.3-1.25,6.61-2.51,9.91-3.76,.11,.43,.2,.85-.28,1.14-.22,.07-.44,.12-.65,.2-2.99,1.13-5.99,2.27-8.98,3.41Z"/><path class="cls-1" d="M210.67,56.11l.1-.1c-.02,.05,0,.14-.1,.1Z"/><path class="cls-1" d="M222.09,42.91c.8-3.88,1.61-7.75,2.41-11.63,.29-1.4,.59-2.8,.86-4.2,.08-.41,.22-.55,.66-.55,4.44,.05,8.87,.08,13.31,.11,.42,0,.84,0,1.26-.03,.35-.02,.43,.09,.32,.44-.38,1.16-.59,2.37-.86,3.55-1.18,1.24-2.62,2.17-3.98,3.19-4.09,3.07-8.41,5.8-12.78,8.45-.39,.24-.8,.44-1.19,.66Z"/><path class="cls-3" d="M188.92,60.48c.05-.05,.04-.19,.17-.14-.01,.1-.1,.11-.17,.14Z"/><path class="cls-3" d="M154.91,27.12l.21,.06c-.01,.09-.07,.11-.15,.1-.11-.01-.07-.1-.07-.16Z"/><path class="cls-3" d="M101.28,47.49c.09-.12,.22-.12,.35-.11-.06,.21-.24,.08-.35,.11Z"/><path class="cls-3" d="M75.68,57.95c.03-.19,.17-.14,.29-.13-.08,.07-.12,.26-.29,.13Z"/><path class="cls-1" d="M244.52,8.55c-.43,1.99-.86,3.98-1.29,5.97-.24,1.1-.51,2.19-.72,3.3-.07,.35-.19,.42-.51,.42-1.7,0-3.4,.01-5.1,.03-3.02,.03-6.04,.05-9.06,.11-.51,0-.61-.14-.51-.6,.61-2.93,1.22-5.86,1.8-8.79,.08-.41,.34-.36,.58-.37,.99-.03,1.99-.04,2.98-.04,3.56-.01,7.11-.02,10.67-.02,.38,0,.76,0,1.17,0Z"/></g></g></svg>