<?xml version="1.0" encoding="UTF-8"?><svg id="Layer_2" xmlns="http://www.w3.org/2000/svg" viewBox="0 0 207.36 109.36"><defs><style>.cls-1{fill:#00aedf;}</style></defs><g id="F8_Logo"><g id="cisco"><path class="cls-1" d="M169.14,109.36c-.42-.17-.86-.14-1.29-.18-3.22-.27-6.2-1.24-8.9-3.01-3.86-2.54-6.42-6.05-7.63-10.5-1.18-4.35-.9-8.64,.92-12.77,1.63-3.7,4.24-6.54,7.76-8.53,2.26-1.28,4.7-2.04,7.27-2.32,4.8-.52,9.3,.38,13.35,3.07,3.16,2.1,5.45,4.95,6.86,8.49,.68,1.71,1.08,3.49,1.24,5.32,.27,3.1-.18,6.09-1.37,8.97-.88,2.13-2.14,4.02-3.75,5.69-1.98,2.06-4.32,3.54-6.99,4.51-1.59,.58-3.23,.94-4.91,1.08-.49,.04-.99,.02-1.46,.18h-1.1Zm9.89-19.77c-.08-2.65-1.59-5.5-4.84-7.32-1.81-1.01-3.78-1.29-5.84-1.01-2.39,.33-4.37,1.41-5.88,3.29-1.71,2.12-2.34,4.56-2,7.25,.41,3.33,2.13,5.79,5.13,7.3,1.75,.88,3.62,1.1,5.56,.81,2.04-.3,3.82-1.16,5.24-2.64,1.78-1.85,2.65-4.08,2.63-7.68Z"/><path class="cls-1" d="M88.96,109.36c-.09-.06-.2-.09-.31-.09-1-.05-2-.12-3.01-.2-1.71-.15-3.41-.39-5.1-.69-.44-.08-.49-.16-.49-.7,0-2.14,0-4.28,0-6.42,0-.27,0-.55,0-.82,.01-.47,.06-.52,.52-.39,1.17,.31,2.35,.56,3.53,.78,2.06,.39,4.14,.48,6.23,.36,.89-.05,1.78-.2,2.63-.52,.43-.16,.84-.36,1.21-.64,1.41-1.05,1.43-3.06,.06-4.16-.95-.77-2.06-1.18-3.19-1.54-1.8-.57-3.6-1.12-5.27-2.02-1.71-.92-3.22-2.09-4.29-3.75-.76-1.17-1.22-2.45-1.41-3.83-.24-1.73-.09-3.43,.44-5.1,.92-2.9,2.85-4.93,5.57-6.24,1.7-.82,3.51-1.23,5.38-1.41,1.17-.11,2.34-.13,3.51-.06,1.82,.11,3.64,.33,5.43,.69,.47,.09,.93,.19,1.39,.3,.52,.13,.56,.19,.57,.71,0,.73,0,1.46,0,2.2,0,1.34,0,2.67,0,4.01,0,.11,0,.22,0,.33-.01,.62-.05,.65-.68,.5-.46-.11-.92-.22-1.39-.32-1.99-.41-4-.72-6.04-.59-1.17,.08-2.33,.26-3.36,.89-1.49,.9-1.68,2.58-.43,3.79,.52,.51,1.17,.82,1.83,1.08,1.21,.48,2.46,.83,3.7,1.21,1.89,.59,3.65,1.4,5.18,2.67,2.06,1.71,3.35,3.86,3.64,6.54,.3,2.82-.21,5.47-1.84,7.84-1.28,1.87-3.06,3.13-5.11,4.01-1.88,.8-3.85,1.24-5.89,1.41-.45,.04-.91,0-1.35,.18h-1.65Z"/><path class="cls-1" d="M37.34,109.36c-.43-.17-.9-.14-1.35-.18-3.31-.29-6.38-1.28-9.16-3.11-4.4-2.9-7.01-6.99-7.84-12.18-.55-3.46-.29-6.86,.94-10.16,.77-2.06,1.88-3.92,3.35-5.56,2.96-3.32,6.68-5.21,11.02-5.97,1.63-.28,3.27-.37,4.92-.28,2.21,.12,4.4,.47,6.52,1.12,.55,.17,.59,.2,.59,.76,0,2.84,0,5.67,0,8.51,0,.05,0,.11,0,.16-.03,.37-.11,.43-.44,.27-.48-.23-.96-.45-1.46-.64-2.23-.88-4.56-1.22-6.94-1.04-2.34,.18-4.41,1.06-6.09,2.71-1.27,1.25-2.09,2.78-2.44,4.53-.6,2.96-.16,5.72,1.68,8.17,1.52,2.03,3.6,3.14,6.06,3.5,3.11,.46,6.08-.08,8.92-1.42,.68-.32,.72-.31,.72,.46,0,2.75,0,5.49,0,8.24,0,.07,0,.15,0,.22-.02,.44-.05,.49-.47,.62-.79,.25-1.59,.43-2.39,.6-1.49,.31-2.99,.49-4.51,.57-.15,0-.29,.01-.42,.1h-1.21Z"/><path class="cls-1" d="M132.23,109.36c-.39-.18-.83-.14-1.24-.17-3.35-.26-6.45-1.28-9.27-3.1-2.7-1.74-4.79-4.05-6.22-6.95-1.11-2.26-1.7-4.65-1.87-7.17-.2-2.84,.17-5.58,1.16-8.24,1.2-3.22,3.17-5.87,5.91-7.95,2.72-2.06,5.79-3.22,9.16-3.69,1.37-.19,2.73-.25,4.1-.18,2.27,.12,4.51,.46,6.68,1.15,.47,.15,.49,.17,.49,.65,0,2.89,0,5.78,0,8.67,0,.05,0,.11,0,.16-.03,.28-.09,.32-.35,.22-.12-.05-.23-.11-.35-.17-1.67-.78-3.41-1.3-5.25-1.48-1.8-.18-3.59-.15-5.31,.47-3.62,1.3-5.71,3.88-6.23,7.7-.24,1.8-.02,3.55,.69,5.21,1.13,2.66,3.13,4.37,5.88,5.19,2.1,.63,4.23,.54,6.35,.15,1.39-.25,2.72-.71,4-1.33,.05-.02,.1-.05,.15-.07,.33-.14,.39-.1,.41,.24,0,.11,0,.22,0,.33,0,2.73,0,5.45,0,8.18,0,.11,0,.22,0,.33-.02,.41-.05,.48-.44,.59-1.23,.36-2.48,.64-3.74,.84-1.07,.17-2.14,.26-3.22,.32-.11,0-.22,.03-.31,.09h-1.21Z"/><path class="cls-1" d="M55.02,0c.53,.2,1.08,.32,1.57,.64,1.43,.95,2.19,2.27,2.19,4,0,15.87-.02,31.73,.02,47.6,0,2.37-1.96,4.89-4.99,4.64-2.18-.18-4.01-1.93-4.17-4.24-.01-.16-.01-.33-.01-.49,0-15.81,0-31.62,0-47.43,0-1.35,.46-2.5,1.42-3.45,.52-.51,1.13-.86,1.82-1.08,.17-.05,.35-.12,.52-.17h1.65Z"/><path class="cls-1" d="M154.2,0c.41,.17,.84,.26,1.22,.47,1.58,.86,2.4,2.2,2.5,3.98,0,.15,0,.29,0,.44,0,15.71,0,31.43,0,47.14,0,.86-.14,1.67-.54,2.44-1.24,2.38-4.41,3.17-6.61,1.63-1.34-.94-1.99-2.25-1.99-3.88,0-12.26,0-24.51,0-36.77,0-3.53,.05-7.06-.02-10.59-.05-2.35,1.49-4.31,3.57-4.78,.07-.02,.14-.05,.2-.08h1.65Z"/><path class="cls-1" d="M0,33.16c.15-.13,.18-.31,.23-.49,.54-1.8,2.05-3.22,4.3-3.33,1.14-.06,2.19,.34,3.07,1.11,1.11,.98,1.63,2.21,1.62,3.69-.02,3.05-.02,6.11,0,9.16,.01,2.11-1.5,3.98-3.46,4.47-2.4,.6-4.85-.8-5.55-3.19-.06-.19-.08-.4-.22-.56v-10.87Z"/><path class="cls-1" d="M207.36,44.36c-.24,.92-.69,1.71-1.4,2.37-1.37,1.28-3.63,1.57-5.25,.63-1.57-.91-2.37-2.28-2.37-4.1,0-3.13,0-6.25,0-9.38,0-2.11,1.48-3.94,3.53-4.41,2.26-.52,4.3,.69,5.21,2.59,.13,.28,.19,.59,.29,.88v11.42Z"/><path class="cls-1" d="M207.36,108.59c-.07,0-.15,.02-.22,.02-.39-.02-.44-.06-.46-.45-.01-.51,0-1.02,0-1.54,0-.47,0-.95,0-1.52-.19,.22-.23,.41-.3,.58-.3,.81-.59,1.61-.89,2.42-.06,.17-.12,.35-.29,.45-.28,.16-.6,.03-.74-.32-.29-.77-.57-1.54-.85-2.32-.07-.18-.12-.38-.33-.65,0,.3,0,.47,0,.65,0,.75,0,1.5,0,2.25,0,.24-.06,.44-.37,.44-.29,0-.4-.09-.4-.45,0-1.3,0-2.6,0-3.9,0-.35,.07-.4,.43-.43,.6-.04,.68,0,.89,.57,.32,.86,.63,1.72,.94,2.58,.06,.15,.12,.3,.18,.45,.21-.1,.21-.28,.26-.42,.31-.86,.61-1.72,.91-2.59,.21-.61,.22-.61,.86-.6,.13,0,.25,.02,.38,.03v4.72Z"/><path class="cls-1" d="M67.89,90.58c0,5.73,0,11.45,0,17.18q0,.87-.88,.87c-2.51,0-5.01,0-7.52,0-.07,0-.15,0-.22,0-.58,0-.61-.05-.63-.63,0-.13,0-.26,0-.38,0-11.34,0-22.68,0-34.02,0-1.2,.01-1.03,1.05-1.03,2.42,0,4.83,0,7.25,0,.07,0,.15,0,.22,0,.72,0,.73,0,.73,.74,0,5.65,0,11.3,0,16.96v.33Z"/><path class="cls-1" d="M173.53,32.45c0-3.62,0-7.24,0-10.87,0-2.16,1.35-3.91,3.43-4.49,2.59-.73,5.41,1.14,5.72,3.83,.05,.46,.08,.91,.08,1.37,0,6.88,0,13.76,0,20.63,0,.85-.11,1.68-.5,2.45-.95,1.89-3.11,2.91-5.16,2.43-2.12-.5-3.55-2.27-3.56-4.43,0-3.64,0-7.28,0-10.92Z"/><path class="cls-1" d="M34.04,32.42c0,3.35,0,6.69,0,10.04,0,.46-.03,.91-.07,1.37-.27,2.96-3.48,5.06-6.5,3.65-1.7-.79-2.58-2.23-2.64-4.11-.04-1.41,0-2.82,0-4.22,0-5.82,0-11.63,0-17.45,0-1.97,.9-3.46,2.68-4.31,2.78-1.34,5.97,.5,6.44,3.42,.07,.43,.11,.87,.1,1.31,0,3.44,0,6.88,0,10.32Z"/><path class="cls-1" d="M74.44,32.42c0-3.66,.04-7.32-.01-10.97-.03-1.98,1.57-4.03,3.7-4.43,2.94-.56,5.44,1.83,5.44,4.45,0,7.32,0,14.63,0,21.95,0,2.29-1.84,4.27-4.1,4.47-2.39,.22-4.51-1.33-4.98-3.62-.05-.27-.06-.54-.06-.82,0-3.68,0-7.35,0-11.03Z"/><path class="cls-1" d="M123.97,32.46c0-3.55,0-7.1,0-10.65,0-.97,.19-1.89,.72-2.72,.9-1.4,2.22-2.16,3.85-2.16,1.93,0,3.6,1.16,4.28,2.97,.21,.57,.31,1.16,.31,1.77,0,7.15,0,14.31,0,21.46,0,1.13-.28,2.17-1.01,3.06-1.13,1.37-2.6,1.93-4.34,1.64-2.18-.36-3.71-2.13-3.79-4.35-.04-1.28-.02-2.56-.02-3.84,0-2.4,0-4.79,0-7.19Z"/><path class="cls-1" d="M108.31,38.64c0,1.57,0,3.15,0,4.72,0,2.36-1.81,4.37-4.07,4.54-2.49,.19-4.58-1.41-4.98-3.81-.05-.27-.08-.54-.08-.82,0-3.09,0-6.18,0-9.27,0-2.02,1.22-3.74,3.12-4.4,2.96-1.02,5.98,1.21,6.01,4.21,.02,1.61,0,3.22,0,4.83Z"/><path class="cls-1" d="M199.86,106.52c0-.55,0-1.1,0-1.64,0-.36-.06-.41-.42-.42-.29-.01-.58,0-.88-.01-.17,0-.28-.09-.29-.27-.01-.2,.09-.31,.29-.32,.13,0,.26,0,.38,0,.84,0,1.68,0,2.52,0,.11,0,.22,0,.33,0,.19,0,.38,.03,.39,.28,0,.29-.2,.31-.41,.31-.18,0-.37,0-.55,0-.53,.01-.57,.04-.57,.56,0,.93,0,1.86,0,2.79,0,.15,0,.29-.01,.44-.01,.23-.11,.38-.37,.37-.28,0-.39-.08-.39-.4-.02-.57,0-1.13,0-1.7h0Z"/></g></g></svg>