<?xml version="1.0" encoding="UTF-8"?><svg id="Layer_2" xmlns="http://www.w3.org/2000/svg" viewBox="0 0 339.56 101.3"><defs><style>.cls-1{fill:#f22719;}.cls-2{fill:#1d1d1d;}</style></defs><g id="F8_Logo"><g id="dahua"><path class="cls-1" d="M72.75,0c.3,.13,.62,.1,.93,.1,5.24,.03,10.34,.87,15.29,2.58,5.95,2.05,11.2,5.22,15.45,9.9,4.17,4.6,6.77,10.02,8.04,16.09,.36,1.74,.52,3.5,.69,5.31,.17-.09,.17-.25,.21-.37,3.33-10.4,6.66-20.79,9.98-31.2,.15-.48,.37-.69,.9-.69,6.48,.02,12.96,0,19.43,.01,.77,0,.8,.05,.55,.83-2.58,8.02-5.16,16.04-7.74,24.06-3.23,10.03-6.45,20.06-9.68,30.09-1.97,6.09-5.52,11.06-10.65,14.89-4.21,3.14-8.95,5.05-14.18,5.67-3.4,.4-6.78,.13-10.13-.53-.23-.04-.57,0-.63-.28-.06-.27,.26-.39,.44-.54,6.05-5.05,10.87-11.04,14.05-18.27,2.06-4.68,3.27-9.59,3.76-14.69,.45-4.68,.27-9.29-.99-13.82-1.48-5.33-4.36-9.81-8.43-13.56-5.17-4.76-11.38-7.3-18.2-8.49-5.24-.92-10.5-.87-15.77-.09-6.86,1.01-13.33,3.17-19.5,6.26-5.31,2.66-10.18,6-14.64,9.93-4.68,4.13-8.76,8.79-12.06,14.09-3.48,5.58-5.94,11.58-7.04,18.1-.95,5.65-.73,11.23,1.02,16.71,1.28,4.01,3.33,7.59,6.19,10.72,5.45,5.96,12.35,9.12,20.18,10.51,3.4,.6,6.83,.8,10.28,.64,5.72-.27,11.27-1.39,16.68-3.29,3.39-1.18,6.65-2.62,9.82-4.28,.84-.44,.88-.41,.88,.53,0,.88-.02,1.75,0,2.63,.01,.43-.15,.7-.53,.92-5.18,3.04-10.6,5.52-16.33,7.33-3.8,1.21-7.68,2.12-11.62,2.64-3.81,.5-7.64,.68-11.5,.51-4.28-.2-8.44-.96-12.51-2.21-5.27-1.62-10.01-4.2-14.13-7.91-4.88-4.39-8.17-9.76-9.97-16.04-.64-2.23-.94-4.53-1.2-6.83-.03-.22-.07-.44-.11-.66v-4.18c.03-.22,.09-.44,.1-.66,.07-3.16,.63-6.26,1.42-9.3,1.81-6.96,4.93-13.36,8.99-19.27,4.12-5.99,9.02-11.29,14.68-15.89,7.84-6.37,16.49-11.26,26.11-14.44,5.43-1.79,10.98-2.9,16.68-3.34,1.14-.09,2.29,.02,3.42-.21h1.35Z"/><path class="cls-2" d="M167,29.9c.53-.5,.92-.88,1.33-1.25,4.81-4.32,10.45-6.73,16.87-7.41,2.99-.32,5.95-.3,8.77,.81,4.23,1.66,6.81,4.77,7.7,9.25,.46,2.33,.12,4.64-.58,6.85-3.56,11.24-7.2,22.46-10.81,33.68-.52,1.63-1.05,3.25-1.55,4.88-.15,.5-.38,.73-.94,.73-6.52-.02-13.05,0-19.57-.01-.77,0-.8-.06-.55-.83,2.78-8.57,5.56-17.13,8.34-25.7,.76-2.35,1.52-4.7,2.28-7.05,.58-1.8,.5-3.5-.81-5-1.31-1.5-2.97-2.05-4.91-1.67-5.72,1.13-9.48,4.48-11.25,10.03-2.28,7.12-4.53,14.25-6.8,21.38-.86,2.72-1.74,5.43-2.57,8.16-.16,.53-.42,.7-.96,.7-6.43-.01-12.87,0-19.3-.01-.85,0-.89-.06-.62-.9,3.67-11.54,7.34-23.07,11-34.61,4.18-13.14,8.36-26.28,12.52-39.43,.21-.66,.48-.92,1.21-.92,6.34,.03,12.69,.02,19.03,.02q1.02,0,.71,.97c-2.79,8.92-5.59,17.83-8.38,26.75-.05,.14-.08,.29-.16,.61Z"/><path class="cls-2" d="M62.88,69.91c-1.11,.9-2.27,1.66-3.45,2.38-4.54,2.73-9.43,4.45-14.7,4.97-3.88,.38-7.78,.38-11.58-.72-4.5-1.3-7.84-5.49-8.23-10.16-.29-3.49,.74-6.63,2.55-9.52,2.78-4.43,6.92-7.14,11.76-8.91,3.95-1.45,8.05-2.22,12.17-2.93,5.89-1.02,11.73-2.31,17.49-3.92,.45-.13,.89-.34,1.35-.41,1.36-.22,1.88-1.17,2.11-2.36,.16-.83,.34-1.67,.15-2.54-.07-.31-.19-.52-.48-.68-4.11-2.2-8.28-2.2-12.45-.27-1.97,.91-3.58,2.33-4.78,4.15-.39,.59-.83,.76-1.52,.67-3.1-.37-6.2-.7-9.31-1.04-2.99-.32-5.98-.65-8.98-.95-.59-.06-.47-.31-.25-.65,1.08-1.74,2.28-3.4,3.66-4.91,5.05-5.54,11.2-9.15,18.6-10.56,4.44-.85,8.92-.97,13.43-.85,3.22,.08,6.42,.28,9.61,.72,2.48,.34,4.94,.79,7.11,2.14,3.99,2.49,6.41,6,6.99,10.72,.31,2.53-.1,4.95-.88,7.35-3.12,9.64-6.27,19.27-9.3,28.93-.51,1.62-.63,3.21-.14,4.83,.15,.49-.03,.58-.47,.58-6.32,0-12.64,0-18.96,0-.44,0-.64-.21-.82-.56-.8-1.57-.95-3.21-.63-4.92,.03-.15,.11-.3-.03-.58Zm5.59-19.17c-.19-.13-.32-.04-.44,0-2.48,.79-5.02,1.42-7.55,2.03-3.06,.73-6.11,1.52-9.02,2.74-2.43,1.02-4.21,2.66-4.89,5.28-.5,1.94,.93,4.12,2.89,4.59,1.81,.43,3.58,.17,5.34-.16,3.3-.61,6.15-2.12,8.54-4.44,1.82-1.77,3.07-3.92,3.98-6.27,.48-1.23,.82-2.5,1.14-3.75Z"/><path class="cls-2" d="M308.22,69.94c-.39,.29-.77,.6-1.17,.88-4.66,3.2-9.74,5.39-15.36,6.21-4.28,.62-8.57,.67-12.79-.39-4.73-1.18-8.17-5.34-8.63-10.18-.39-4.07,.99-7.61,3.34-10.81,3.21-4.37,7.76-6.78,12.82-8.36,3.87-1.21,7.87-1.83,11.85-2.57,6.08-1.13,12.12-2.4,18.01-4.31,.49-.16,.77-.43,.99-.9,.59-1.23,.59-2.52,.54-3.83-.01-.34-.18-.52-.47-.67-5.9-3.02-13.06-1.62-16.7,3.28-.78,1.05-1.53,1.48-2.9,1.27-3.13-.47-6.29-.74-9.44-1.08-2.61-.28-5.22-.56-7.84-.84-.7-.07-.73-.12-.39-.69,3.6-5.95,8.6-10.34,14.93-13.17,3.46-1.55,7.13-2.42,10.92-2.83,4.24-.46,8.49-.39,12.73-.2,3.43,.15,6.87,.45,10.21,1.31,5.87,1.51,10.03,6.45,10.6,12.48,.2,2.07-.12,4.07-.74,6.03-3.22,10.17-6.45,20.33-9.67,30.5-.45,1.41-.42,2.84,.06,4.24,.18,.51,.03,.63-.46,.63-6.3,0-12.59,0-18.89,0-.46,0-.69-.18-.88-.56-.78-1.57-.99-3.2-.64-4.91,.03-.13,.05-.26,.06-.4,0-.03-.04-.07-.11-.16Zm5.61-19.31c-.22,.05-.38,.08-.52,.13-2.86,.88-5.76,1.56-8.66,2.29-3.09,.78-6.21,1.51-9.04,3.06-1.82,1-3.15,2.46-3.63,4.54-.56,2.41,1.26,4.88,3.73,4.98,4.32,.17,8.21-1.07,11.63-3.72,3.67-2.84,5.52-6.76,6.49-11.28Z"/><path class="cls-2" d="M237.24,69c-1.91,1.59-3.86,3.03-5.96,4.26-2.86,1.67-5.92,2.79-9.15,3.5-2.28,.5-4.57,.75-6.89,.65-4.16-.18-7.83-1.48-10.38-4.98-2.14-2.94-2.82-6.22-2.13-9.82,.82-4.3,2.43-8.36,3.75-12.5,2.97-9.36,6.01-18.68,9.03-28.02q.34-1.06,1.43-1.06c6.27,0,12.55,0,18.82,0,1.02,0,1.03,0,.72,.96-3.44,10.74-6.87,21.48-10.31,32.21-.52,1.61-.76,3.19,.09,4.77,.91,1.69,2.37,2.59,4.24,2.46,5.56-.38,10.38-3.93,12.12-9.33,3.25-10.07,6.48-20.14,9.7-30.21,.21-.65,.51-.87,1.19-.87,6.39,.02,12.77,.01,19.16,.01,.99,0,1,.01,.7,.92-3.81,11.7-7.62,23.41-11.43,35.11-1.95,6-3.91,12-5.83,18.01-.21,.66-.49,.91-1.22,.91-6.3-.03-12.59-.02-18.89-.02-.96,0-.96,0-.66-.94,.64-2.01,1.27-4.01,1.91-6.02Z"/><path class="cls-2" d="M149.72,92.12c0,2.82,0,5.43,0,8.03,0,.88,0,.88-.91,.88q-1.83,0-1.83-1.82c0-3.77,0-7.55,0-11.32,0-.98,.02-.89,.96-1,1.21-.14,1.9,.35,2.54,1.35,1.59,2.48,3.3,4.87,4.96,7.3,.09,.13,.18,.25,.29,.39,.17-.24,.09-.47,.09-.68,0-2.52,.02-5.03,0-7.55,0-.61,.19-.81,.81-.81,1.95,0,1.95-.01,1.95,1.96,0,3.75,0,7.5,0,11.25,0,.9-.03,.83-.89,.94-1.33,.18-2.12-.34-2.83-1.46-1.48-2.33-3.12-4.56-4.69-6.83-.11-.16-.23-.32-.47-.64Z"/><path class="cls-2" d="M215.71,97.3c0,1.06-.02,2.11,0,3.17,.01,.49-.18,.7-.67,.68-.38-.02-.76,0-1.15,0-.2,0-.47,0-.5-.25-.09-.67-.45-.35-.76-.23-2.6,1.02-5.06,.82-7.34-.84-1.04-.76-1.63-1.86-2.03-3.03-.69-2-.62-4.03,.14-6,1.11-2.88,3.98-4.51,7.07-4.07,1.14,.16,2.26,.34,3.2,1.1,.85,.69,1.42,1.55,1.72,2.59,.11,.37,.04,.62-.4,.66-.18,.02-.36,.05-.53,.11-.84,.28-1.39,.19-1.92-.73-.79-1.35-2.26-1.43-3.67-1.2-1.73,.29-2.75,1.38-3.04,3.09-.26,1.59-.33,3.18,.52,4.65,.48,.82,1.18,1.38,2.1,1.56,1.56,.3,3.09,.24,4.46-.7,.38-.26,.59-1.44,.34-1.77-.14-.19-.36-.15-.56-.15-.83,0-1.66-.02-2.49,0-.43,0-.59-.18-.62-.59-.15-1.91-.16-1.91,1.72-1.91,1.21,0,2.43,.02,3.64,0,.55-.01,.77,.17,.75,.73-.03,1.05,0,2.11,0,3.17Z"/><path class="cls-2" d="M193.78,86.68c3.79,0,7,2.99,6.96,7.42-.04,4.11-3,7.23-6.97,7.17-4.2-.06-7.07-3.01-6.93-7.38,.11-3.77,2.43-7.26,6.95-7.21Zm3.93,7.26c.02-1.13-.27-2.13-.82-3.06-1.13-1.93-4.44-2.19-5.85-.45-1.56,1.93-1.62,4.05-.63,6.2,1.13,2.45,4.63,2.81,6.25,.68,.76-.99,1.08-2.16,1.04-3.37Z"/><path class="cls-2" d="M161.11,94.1c.1-3.7,2.47-7.53,7.02-7.44,3.94,.07,6.95,3.23,6.94,7.41-.01,4.08-3.04,7.21-6.97,7.21-3.96,0-6.99-3.11-6.98-7.17Zm3.02-.42c0,1.6,.33,2.81,1.24,3.86,1.38,1.58,4.19,1.56,5.47-.09,1.43-1.84,1.58-3.89,.66-5.96-1.17-2.63-4.55-3.04-6.37-.81-.77,.94-1.03,2.07-1.01,3.01Z"/><path class="cls-2" d="M104.47,93.92c0-2.07,.01-4.13,0-6.2,0-.6,.19-.82,.82-.81,2.9,.03,5.8,.03,8.7,0,.59,0,.8,.18,.78,.77-.05,2.06,.24,1.73-1.75,1.75-1.62,.02-3.24,.02-4.86,0-.51,0-.71,.15-.72,.69-.04,2.22-.06,2.22,2.15,2.22,1.3,0,2.61,.02,3.91,0,.56-.01,.78,.2,.73,.75-.03,.33-.04,.68,0,1.01,.08,.68-.24,.85-.86,.84-1.71-.03-3.42,.01-5.13-.02-.62-.01-.85,.21-.81,.82,.04,.65,.04,1.3,0,1.95-.04,.63,.16,.87,.83,.86,1.96-.04,3.91,0,5.87-.03,.66-.01,.93,.16,.91,.86-.06,1.94,.2,1.64-1.65,1.65-2.65,.02-5.31,0-7.96,0-.95,0-.96,0-.96-.99,0-2.04,0-4.09,0-6.13Z"/><path class="cls-2" d="M143.86,94c0,2.07-.02,4.13,.01,6.2,0,.63-.18,.92-.85,.85-.42-.04-.86-.04-1.28,0-.61,.06-.77-.21-.76-.79,.03-1.53-.01-3.06,.02-4.58,.01-.57-.19-.73-.74-.72-1.55,.03-3.1,.04-4.65,0-.62-.02-.76,.23-.75,.79,.03,1.48-.02,2.97,.03,4.45,.02,.7-.23,.93-.89,.86-.4-.04-.81-.04-1.21,0-.6,.05-.83-.16-.83-.79,.02-4.18,.02-8.36,0-12.53,0-.61,.19-.86,.81-.81,.49,.04,.99,.03,1.48,0,.47-.02,.64,.17,.63,.63-.02,1.39,.02,2.79-.01,4.18-.01,.55,.15,.75,.72,.74,1.57-.03,3.15-.03,4.72,0,.53,0,.71-.17,.7-.7-.03-1.39,0-2.79-.02-4.18,0-.49,.16-.7,.66-.67,.49,.03,.99,.04,1.48,0,.58-.05,.74,.23,.73,.75-.01,2.11,0,4.22,0,6.33Z"/><path class="cls-2" d="M119.47,94.06c.03,1.41,.37,2.7,1.43,3.72,1.62,1.55,4.17,1.1,5.12-.91q.52-1.11,1.68-.76c.39,.12,.77,.26,1.16,.34,.48,.1,.57,.38,.42,.79-.78,2.05-2.15,3.46-4.37,3.88-2.02,.38-3.99,.21-5.67-1.05-2.15-1.62-2.9-3.91-2.75-6.53,.05-.87,.23-1.72,.51-2.56,1.61-4.75,8.09-5.52,11.06-2.57,.6,.59,.9,1.33,1.21,2.08,.12,.28,.01,.42-.26,.49-.76,.18-1.53,.36-2.29,.55-.29,.07-.41-.08-.5-.31-.54-1.37-1.59-1.93-3.01-1.92-1.53,0-2.55,.77-3.17,2.1-.39,.84-.64,1.73-.57,2.68Z"/><path class="cls-2" d="M222.72,92.34c.87-1.52,1.72-2.89,2.44-4.33,.42-.83,.93-1.25,1.88-1.11,.44,.07,.9,0,1.35,.01,.65,.01,.7,.08,.36,.64-1.03,1.71-1.98,3.49-3.13,5.11-1.15,1.62-1.67,3.32-1.45,5.29,.08,.73-.01,1.48,.02,2.22,.03,.62-.15,.93-.83,.86-.49-.05-.99-.03-1.48,0-.51,.03-.67-.2-.67-.68,.01-1.51,0-3.01,0-4.52,0-.54-.11-1-.4-1.46-1.39-2.23-2.75-4.48-4.11-6.73-.11-.19-.34-.37-.23-.6,.11-.24,.4-.14,.61-.14,.83,.02,1.77-.27,2.46,.11,.7,.38,.91,1.35,1.33,2.06,.62,1.03,1.2,2.09,1.86,3.25Z"/><path class="cls-2" d="M94.97,95.23c0-1.62,0-3.24,0-4.85q0-.94-.98-.94c-.81,0-1.62-.01-2.43,0-.42,0-.62-.16-.62-.59,.01-2.38-.25-1.9,1.77-1.92,2.74-.03,5.49,0,8.23,0,.98,0,.99,0,.98,.95-.02,1.79,.23,1.54-1.59,1.57-.47,0-.94,0-1.42,0q-1.04,0-1.04,1.01c0,3.19,0,6.38,0,9.57q0,1.02-.99,1.02-1.93,0-1.93-1.9c0-1.3,0-2.61,0-3.91Z"/><path class="cls-2" d="M177.06,94.02c0-2.06,.01-4.13,0-6.19,0-.57,.17-.83,.77-.79,.51,.04,1.03,.03,1.55,0,.51-.03,.68,.2,.67,.67,0,1.32,0,2.65,0,3.97,0,2,.02,4-.01,5.99,0,.63,.17,.88,.83,.86,1.5-.04,3.01,0,4.51-.02,.56-.01,.81,.14,.8,.75-.06,2.09,.28,1.74-1.73,1.76-2.13,.02-4.27,0-6.4,0q-.99,0-.99-1.02c0-2,0-3.99,0-5.99Z"/></g></g></svg>