<?xml version="1.0" encoding="utf-8"?>
<!-- Generator: Adobe Illustrator 26.3.1, SVG Export Plug-In . SVG Version: 6.00 Build 0)  -->
<svg version="1.1" id="Layer_2_00000152254996337568656190000011062997244423117191_"
	 xmlns="http://www.w3.org/2000/svg" xmlns:xlink="http://www.w3.org/1999/xlink" x="0px" y="0px" viewBox="0 0 118.3 118.3"
	 style="enable-background:new 0 0 118.3 118.3;" xml:space="preserve">
<style type="text/css">
	.st0{fill:#007DB8;}
</style>
<g id="layer1_00000132080403203901653670000016064399979842730147_" transform="translate(-318.33375,-439.74274)">
	
		<g id="g3460_00000170253997429785844620000007173938488345489292_" transform="matrix(4.579965,0,0,-4.579965,468.34291,456.8459)">
		<path id="path3462_00000127744340661459272180000006292387319303637400_" class="st0" d="M-19.9,2.3c-3.2,0-6.1-1.3-8.1-3.4
			c-2.1-2.1-3.4-5-3.4-8.1c0-3.2,1.3-6.1,3.4-8.1c2.1-2.1,5-3.4,8.1-3.4c3.2,0,6.1,1.3,8.1,3.4c2.1,2.1,3.4,5,3.4,8.1
			c0,3.2-1.3,6.1-3.4,8.1C-13.8,1-16.7,2.3-19.9,2.3 M-19.9,3.7C-12.7,3.7-7-2.1-7-9.3c0-7.1-5.8-12.9-12.9-12.9
			c-7.1,0-12.9,5.8-12.9,12.9C-32.8-2.1-27,3.7-19.9,3.7"/>
	</g>
	
		<g id="g3464_00000150092527478231940750000005737568624728082347_" transform="matrix(4.579965,0,0,-4.579965,397.87238,588.54693)">
		<path id="path3466_00000068658608410676277970000006436272718102710668_" class="st0" d="M-10.6,19.6c0,0.8-0.5,1.2-1.2,1.2h-0.4
			v-2.4h0.4C-11.2,18.4-10.6,18.8-10.6,19.6 M-2.9,18.8l-3.2-2.5L-9,18.5c-0.4-1-1.4-1.7-2.6-1.7h-2.5v5.6h2.5
			c1.3,0,2.2-0.8,2.6-1.7l2.9,2.3l1.1-0.8L-7.7,20l0.5-0.4l2.7,2.1l1.1-0.8l-2.7-2.1l0.5-0.4l2.7,2.1v1.9H-1v-3.9H1v-1.6h-3.9V18.8z
			 M3.4,18.4h1.9v-1.6H1.5v5.6h1.9V18.4z"/>
	</g>
</g>
</svg>
