<?xml version="1.0" encoding="UTF-8"?><svg id="Layer_2" xmlns="http://www.w3.org/2000/svg" xmlns:xlink="http://www.w3.org/1999/xlink" viewBox="0 0 482.29 126.3"><defs><style>.cls-1{fill:none;}.cls-2{clip-path:url(#clippath);}.cls-3,.cls-4{fill:#221d1e;}.cls-5{clip-path:url(#clippath-1);}.cls-6{clip-path:url(#clippath-2);}.cls-7{opacity:.5;}.cls-4,.cls-8,.cls-9{fill-rule:evenodd;}.cls-8{fill:#fff;}.cls-9{fill:#e92227;}</style><clipPath id="clippath"><rect class="cls-1" x="32.08" y="22.11" width="445.55" height="50.25"/></clipPath><clipPath id="clippath-1"><rect class="cls-1" x="32.08" y="22.11" width="445.55" height="50.25"/></clipPath><clipPath id="clippath-2"><rect class="cls-1" x="32.08" y="22.11" width="445.55" height="50.25"/></clipPath></defs><g id="F8_Logo"><g><path class="cls-3" d="M97.2,115.69v-13.59h2.73l3.22,9.65c.32,.88,.48,1.53,.64,2.01l.72-2.17,3.3-9.49h2.41v13.59h-1.77v-11.42l-3.94,11.42h-1.61l-3.94-11.58v11.58h-1.77Z"/><path class="cls-3" d="M119.31,114.48c-.64,.56-1.21,.88-1.77,1.13s-1.21,.32-1.85,.32c-1.05,0-1.93-.24-2.49-.8-.56-.56-.88-1.21-.88-2.01,0-.48,.08-.88,.32-1.29,.24-.4,.48-.72,.88-.96,.32-.24,.72-.4,1.21-.56,.32-.08,.8-.16,1.45-.24,1.37-.16,2.33-.32,2.97-.56v-.4c0-.72-.16-1.13-.48-1.45-.4-.4-1.05-.56-1.93-.56-.8,0-1.37,.16-1.77,.4s-.64,.8-.8,1.45l-1.61-.24c.16-.72,.4-1.29,.72-1.69s.8-.72,1.45-.96c.64-.24,1.37-.32,2.25-.32,.8,0,1.53,.08,2.09,.32,.56,.16,.88,.48,1.13,.72,.24,.32,.4,.64,.48,1.13,.08,.32,.08,.8,.08,1.53v2.25c0,1.53,0,2.57,.08,2.97s.24,.8,.4,1.21h-1.77c0-.56-.08-.96-.16-1.37m-.16-3.78c-.64,.24-1.53,.48-2.73,.64-.72,.08-1.21,.24-1.45,.32-.32,.16-.48,.32-.64,.56-.16,.24-.24,.48-.24,.8,0,.48,.16,.8,.48,1.13,.32,.32,.8,.48,1.45,.48s1.21-.16,1.69-.4,.88-.64,1.13-1.13c.16-.4,.24-.96,.24-1.69v-.72h.08Z"/><path class="cls-3" d="M123.49,115.69v-9.89h1.53v1.37c.72-1.13,1.77-1.61,3.14-1.61,.56,0,1.13,.08,1.61,.32s.88,.48,1.13,.8,.4,.72,.48,1.21c.08,.32,.08,.88,.08,1.61v6.03h-1.69v-6.03c0-.72-.08-1.21-.16-1.53-.16-.32-.4-.64-.72-.8s-.72-.32-1.13-.32c-.72,0-1.29,.24-1.85,.64-.48,.48-.8,1.29-.8,2.57v5.39h-1.61v.24Z"/><path class="cls-3" d="M140.53,115.69v-1.45c-.8,1.13-1.85,1.69-3.14,1.69-.56,0-1.13-.08-1.61-.32s-.88-.48-1.13-.8c-.24-.32-.4-.72-.48-1.21-.08-.32-.08-.88-.08-1.53v-6.11h1.69v5.47c0,.88,0,1.45,.08,1.77,.08,.4,.32,.8,.64,1.05,.32,.24,.8,.4,1.29,.4s.96-.16,1.45-.4,.72-.64,.96-1.05c.16-.48,.24-1.13,.24-1.93v-5.31h1.69v9.89h-1.61v-.16Z"/><path class="cls-3" d="M145.03,115.69v-8.6h-1.45v-1.29h1.45v-1.05c0-.64,.08-1.13,.16-1.45,.16-.4,.48-.8,.88-1.05s.96-.4,1.69-.4c.48,0,.96,.08,1.53,.16l-.24,1.45c-.32-.08-.64-.08-.96-.08-.48,0-.88,.08-1.05,.32-.24,.24-.32,.64-.32,1.21v.88h1.93v1.29h-1.93v8.6h-1.69Z"/><path class="cls-3" d="M156.37,114.48c-.64,.56-1.21,.88-1.77,1.13s-1.21,.32-1.85,.32c-1.05,0-1.93-.24-2.49-.8-.56-.56-.88-1.21-.88-2.01,0-.48,.08-.88,.32-1.29,.24-.4,.48-.72,.88-.96,.32-.24,.72-.4,1.21-.56,.32-.08,.8-.16,1.45-.24,1.37-.16,2.33-.32,2.97-.56v-.4c0-.72-.16-1.13-.48-1.45-.4-.4-1.05-.56-1.93-.56-.8,0-1.37,.16-1.77,.4s-.64,.8-.8,1.45l-1.61-.24c.16-.72,.4-1.29,.72-1.69s.8-.72,1.45-.96c.64-.24,1.37-.32,2.25-.32,.8,0,1.53,.08,2.09,.32,.56,.16,.88,.48,1.13,.72,.24,.32,.4,.64,.48,1.13,.08,.32,.08,.8,.08,1.53v2.25c0,1.53,0,2.57,.08,2.97s.24,.8,.4,1.21h-1.77c0-.56-.16-.96-.16-1.37m-.16-3.78c-.64,.24-1.53,.48-2.73,.64-.72,.08-1.21,.24-1.45,.32-.32,.16-.48,.32-.64,.56-.16,.24-.24,.48-.24,.8,0,.48,.16,.8,.48,1.13,.32,.32,.8,.48,1.45,.48s1.21-.16,1.69-.4,.88-.64,1.13-1.13c.16-.4,.24-.96,.24-1.69v-.72h.08Z"/><path class="cls-3" d="M166.9,112.07l1.61,.24c-.16,1.13-.64,2.01-1.37,2.65-.72,.64-1.69,.96-2.73,.96-1.37,0-2.41-.4-3.3-1.29-.8-.88-1.21-2.17-1.21-3.78,0-1.05,.16-2.01,.56-2.81,.32-.8,.88-1.37,1.61-1.77s1.53-.56,2.33-.56c1.05,0,1.93,.24,2.65,.8s1.13,1.29,1.29,2.33l-1.61,.24c-.16-.64-.4-1.13-.8-1.53-.4-.32-.88-.48-1.45-.48-.88,0-1.53,.32-2.09,.88-.56,.64-.8,1.53-.8,2.89,0,1.29,.24,2.25,.72,2.89,.48,.56,1.21,.88,2.01,.88,.64,0,1.21-.24,1.61-.56,.56-.56,.88-1.21,.96-2.01"/><path class="cls-3" d="M173.65,114.16l.24,1.45c-.48,.08-.88,.16-1.29,.16-.64,0-1.05-.08-1.45-.32-.32-.16-.56-.48-.72-.72-.16-.32-.24-.96-.24-2.01v-5.71h-1.21v-1.29h1.21v-2.41l1.69-.96v3.46h1.69v1.29h-1.69v5.79c0,.48,0,.8,.08,.88,.08,.16,.16,.24,.32,.32,.16,.08,.32,.16,.56,.16,.24,0,.48,0,.8-.08"/><path class="cls-3" d="M181.77,115.69v-1.45c-.8,1.13-1.85,1.69-3.14,1.69-.56,0-1.13-.08-1.61-.32s-.88-.48-1.13-.8-.4-.72-.48-1.21c-.08-.32-.08-.88-.08-1.53v-6.11h1.69v5.47c0,.88,0,1.45,.08,1.77,.08,.4,.32,.8,.64,1.05s.8,.4,1.29,.4,.96-.16,1.45-.4c.48-.24,.72-.64,.96-1.05,.16-.48,.24-1.13,.24-1.93v-5.31h1.69v9.89h-1.61v-.16Z"/><path class="cls-3" d="M185.87,115.69v-9.89h1.53v1.53c.4-.72,.72-1.13,1.05-1.37,.32-.24,.72-.32,1.05-.32,.56,0,1.13,.16,1.69,.56l-.56,1.53c-.4-.24-.8-.4-1.21-.4s-.72,.08-.96,.32c-.32,.24-.48,.56-.64,.88-.16,.56-.24,1.21-.24,1.93v5.15h-1.69v.08Z"/><path class="cls-3" d="M198.98,112.47l1.69,.24c-.24,1.05-.8,1.77-1.53,2.33-.72,.56-1.69,.8-2.81,.8-1.45,0-2.57-.48-3.46-1.37-.88-.88-1.29-2.17-1.29-3.78,0-1.69,.4-2.97,1.29-3.86,.88-.88,1.93-1.37,3.3-1.37,1.29,0,2.41,.48,3.22,1.37s1.29,2.17,1.29,3.78v.48h-7.4c.08,1.13,.4,1.93,.88,2.49,.56,.56,1.21,.88,2.09,.88,.64,0,1.13-.16,1.61-.48,.48-.32,.88-.8,1.13-1.53m-5.47-2.65h5.55c-.08-.8-.32-1.45-.64-1.85-.56-.64-1.21-.96-2.09-.96-.8,0-1.45,.24-1.93,.8-.56,.4-.88,1.13-.88,2.01"/><path class="cls-3" d="M202.76,115.69v-9.89h1.53v1.53c.4-.72,.72-1.13,1.05-1.37,.32-.24,.72-.32,1.05-.32,.56,0,1.13,.16,1.69,.56l-.56,1.53c-.4-.24-.8-.4-1.21-.4s-.72,.08-.96,.32c-.32,.24-.48,.56-.64,.88-.16,.56-.24,1.21-.24,1.93v5.15h-1.69v.08Z"/><path class="cls-3" d="M213.77,110.7c0-1.85,.48-3.22,1.53-4.1,.88-.72,1.85-1.13,3.14-1.13,1.37,0,2.49,.48,3.3,1.37,.88,.88,1.29,2.09,1.29,3.7,0,1.29-.16,2.25-.56,2.97-.4,.72-.96,1.29-1.69,1.69-.72,.4-1.53,.56-2.41,.56-1.37,0-2.49-.4-3.38-1.37-.72-.72-1.21-2.01-1.21-3.7m1.77,0c0,1.29,.24,2.25,.8,2.81,.56,.64,1.21,.96,2.09,.96,.8,0,1.53-.32,2.09-.96,.56-.64,.8-1.61,.8-2.89,0-1.21-.24-2.17-.8-2.73-.56-.64-1.21-.96-2.09-.96-.8,0-1.53,.32-2.09,.96-.56,.64-.8,1.61-.8,2.81"/><path class="cls-3" d="M225.43,115.69v-8.6h-1.45v-1.29h1.45v-1.05c0-.64,.08-1.13,.16-1.45,.16-.4,.48-.8,.88-1.05s.96-.4,1.69-.4c.48,0,.96,.08,1.53,.16l-.24,1.45c-.32-.08-.64-.08-.96-.08-.48,0-.88,.08-1.05,.32-.24,.24-.32,.64-.32,1.21v.88h1.93v1.29h-1.93v8.6h-1.69Z"/><path class="cls-4" d="M430.43,111.35h4.58c.8,0,1.29-.08,1.61-.32s.56-.64,.72-1.29l.64-2.49c.08-.32,.16-.64,.16-.8,0-.64-.48-.96-1.45-.96h-4.74l-1.53,5.87Zm1.29,4.26h-2.41l-1.93,7.32c-.16,.56-.24,1.21-.24,1.93,0,.4,.08,.8,.24,1.29h-11.09c.48-.72,.8-1.29,1.05-1.85,.24-.56,.48-1.29,.72-2.33l4.42-17.2c.16-.56,.24-1.21,.24-1.93,0-.4-.08-.8-.24-1.29h18.41c1.37,0,2.33,.08,2.89,.16,.48,.08,1.05,.32,1.53,.64,.64,.4,1.13,.96,1.53,1.69s.64,1.37,.64,2.01c0,.48-.08,1.05-.24,1.61l-1.05,4.18c-.32,1.13-.56,1.77-.64,2.01-.08,.24-.32,.48-.56,.8-.8,.72-1.85,1.05-3.3,1.05h-.64l1.53,7.8c.16,.64,.32,1.21,.48,1.53,.24,.4,.56,.8,1.05,1.29h-10.45l-1.93-10.69Zm-23.96-10.05l-1.53,6.03h9.16c.96,0,1.77-.16,2.41-.4l-1.29,4.98c-.64-.4-1.61-.56-2.89-.56h-8.52l-1.69,6.43h9.65c.96,0,1.85-.16,2.65-.56l-1.85,4.58h-21.79c.48-.72,.8-1.29,1.05-1.85,.24-.56,.48-1.29,.72-2.33l4.42-17.2c.16-.56,.24-1.21,.24-1.93,0-.4-.08-.8-.24-1.29h21.95l-.56,4.66c-.48-.24-.88-.4-1.29-.48s-.96-.08-1.61-.08h-9Zm-11.42-4.02l-.56,4.82c-.72-.32-1.21-.48-1.61-.64-.4-.08-.96-.16-1.69-.16h-6.51c-1.13,0-1.77,.08-2.17,.32-.32,.24-.64,.72-.8,1.53l-3.22,12.38c-.16,.56-.24,.88-.24,1.13,0,.56,.24,.88,.8,1.05,.32,.08,.8,.08,1.61,.08h6.27c1.61,0,2.81-.32,3.78-.88l-2.01,4.9h-12.7c-1.85,0-3.05-.08-3.46-.08-.4-.08-.88-.16-1.37-.4-.8-.32-1.37-.88-1.85-1.53-.48-.72-.72-1.45-.72-2.33,0-.48,.16-1.21,.4-2.25l3.38-13.02c.56-2.01,1.53-3.38,2.97-4.18,.72-.4,1.45-.64,2.01-.72,.64-.08,1.85-.16,3.62-.16h14.07v.16Zm-42.13,9.81h4.58c.8,0,1.29-.08,1.61-.32s.56-.64,.72-1.29l.64-2.49c.08-.32,.16-.64,.16-.8,0-.64-.48-.96-1.45-.96h-4.74l-1.53,5.87Zm1.29,4.26h-2.41l-1.85,7.32c-.16,.56-.24,1.21-.24,1.93,0,.4,.08,.8,.24,1.29h-11.09c.48-.72,.8-1.29,1.05-1.85,.24-.56,.48-1.29,.72-2.33l4.42-17.2c.16-.56,.24-1.21,.24-1.93,0-.4-.08-.8-.24-1.29h18.41c1.37,0,2.33,.08,2.89,.16s1.05,.32,1.53,.64c.64,.4,1.13,.96,1.53,1.69s.56,1.37,.56,2.01c0,.48-.08,1.05-.24,1.61l-1.13,4.18c-.32,1.13-.48,1.77-.64,2.01-.08,.24-.32,.48-.56,.8-.8,.72-1.85,1.05-3.3,1.05h-.64l1.53,7.8c.16,.64,.32,1.21,.48,1.53,.16,.4,.56,.8,1.05,1.29h-10.45l-1.85-10.69Zm-29.75-7.64l-3.05,11.9c-.16,.64-.24,1.05-.24,1.21,0,.4,.24,.72,.64,.88,.24,.08,.8,.16,1.45,.16h3.54c.8,0,1.29-.08,1.53-.32s.48-.8,.72-1.85l3.14-11.98c.08-.32,.16-.48,.16-.64,.08-.32,.16-.56,.16-.72,0-.72-.64-1.05-1.85-1.05h-3.46c-.88,0-1.53,.16-1.85,.4-.32,.32-.56,.96-.88,2.01m-1.13-6.43h11.98c1.21,0,2.17,.08,2.89,.24,.64,.16,1.29,.48,1.77,.88,1.21,.96,1.85,2.25,1.85,3.86,0,.56-.08,1.29-.32,2.17l-3.14,12.14c-.24,1.05-.56,1.85-.88,2.41s-.72,1.05-1.29,1.53c-.64,.48-1.37,.88-2.25,1.13-.8,.24-1.93,.32-3.3,.32h-12.62c-1.45,0-2.41-.08-3.05-.16-.56-.16-1.13-.4-1.69-.88-1.13-.96-1.69-2.25-1.69-3.7,0-.56,.16-1.29,.48-2.33l3.14-12.14c.32-1.21,.64-2.09,1.13-2.81,.4-.64,1.05-1.21,1.69-1.61,1.37-.72,3.05-1.05,5.31-1.05m-22.11,4.02l-1.53,5.87h8.36c1.61-.08,2.49-.08,2.73-.16,.24,0,.72-.16,1.37-.4l-1.29,5.06c-.56-.24-1.05-.4-1.37-.4-.32-.08-.88-.08-1.69-.08h-9.16l-1.93,7.48c-.16,.64-.24,1.29-.24,1.93,0,.4,.08,.8,.24,1.29h-11.09c.48-.72,.8-1.29,1.05-1.85,.24-.56,.48-1.29,.72-2.33l4.42-17.2c.16-.56,.24-1.21,.24-1.93,0-.4-.08-.8-.24-1.29h22.03l-.56,4.82c-.4-.32-.88-.48-1.37-.56s-1.29-.16-2.49-.16h-8.2v-.08Zm-27.66-4.02l6.59,19.05,4.1-15.76c.16-.56,.24-1.21,.24-1.93,0-.4-.08-.8-.24-1.29h5.63c-.48,.72-.8,1.37-1.05,1.85-.24,.56-.48,1.29-.72,2.33l-5.31,20.42h-10.45l-6.35-18.65-4.02,15.44c-.16,.64-.24,1.29-.24,1.93,0,.4,.08,.8,.24,1.29h-5.63c.48-.72,.8-1.29,1.05-1.85,.24-.56,.48-1.29,.72-2.33l4.42-17.2c.16-.56,.24-1.21,.24-1.93,0-.4-.08-.8-.24-1.29h11.01v-.08Zm-25.57,4.02l-1.53,6.03h9.25c.96,0,1.77-.16,2.41-.4l-1.29,4.98c-.64-.4-1.61-.56-2.89-.56h-8.52l-1.69,6.43h9.65c.96,0,1.85-.16,2.65-.56l-1.85,4.58h-21.79c.48-.72,.8-1.29,1.05-1.85,.24-.56,.48-1.29,.72-2.33l4.42-17.2c.16-.56,.24-1.21,.24-1.93,0-.4-.08-.8-.24-1.29h21.87l-.56,4.66c-.48-.24-.88-.4-1.29-.48s-.96-.08-1.69-.08h-8.92Z"/><path class="cls-4" d="M453.02,105.8l.56,1.05h.96l-.96-1.61c.48,0,.88-.32,.88-.96,0-.88-.56-1.13-1.45-1.13v.64c.32,0,.64,.08,.64,.4,0,.4-.24,.48-.56,.48h-.08v1.13m0,2.65v-.8c1.29-.08,2.41-1.13,2.41-2.65s-1.13-2.65-2.41-2.65v-.8c1.77,0,3.38,1.29,3.38,3.46s-1.61,3.46-3.38,3.46m-.56-3.22h.32l.24,.48v-1.13h-.56v-.88h.56v-.64h-1.45v3.7h.88v-1.53Zm.56-3.7v.8h-.08c-1.37,0-2.49,1.05-2.49,2.65s1.13,2.65,2.49,2.65h.08v.8h-.08c-1.77,0-3.46-1.29-3.46-3.46s1.69-3.46,3.54-3.46h0Z"/><path class="cls-8" d="M467.82,27.33l1.13,2.17h2.01l-2.01-3.3c.96,0,1.85-.56,1.85-2.01,0-1.69-1.13-2.25-2.97-2.25v1.29c.56,0,1.29,.16,1.29,.88,0,.88-.4,.96-1.13,.96h-.16v2.25m0,5.39v-1.53c2.57-.16,4.82-2.25,4.82-5.39s-2.25-5.23-4.82-5.39v-1.53c3.54,0,6.83,2.57,6.83,6.99s-3.3,6.83-6.83,6.83m-1.13-6.43h.72l.4,.96v-2.25h-1.13v-1.85h1.13v-1.29h-2.89v7.56h1.69v-3.14h.08Zm1.13-7.48v1.53h-.16c-2.73,0-4.98,2.17-4.98,5.39s2.25,5.39,4.98,5.39h.16v1.53h-.16c-3.54,0-6.99-2.57-6.99-6.99s3.38-6.99,6.99-6.99h.16v.16Z"/><path class="cls-8" d="M29.26,0H453.02c16.08,0,29.26,13.18,29.26,29.26v28.7c0,16.08-13.18,29.26-29.26,29.26H29.26C13.1,87.23,0,74.04,0,57.96V29.26C-.08,13.18,13.1,0,29.26,0"/><path class="cls-8" d="M29.26,1.85H453.02c15.11,0,27.41,12.38,27.41,27.49v28.7c0,15.11-12.38,27.49-27.41,27.49H29.26c-15.11,0-27.49-12.38-27.49-27.49V29.34C1.77,14.23,14.15,1.85,29.26,1.85"/><path class="cls-9" d="M29.26,1.85H453.02c15.11,0,27.41,12.38,27.41,27.49v28.7c0,15.11-12.38,27.49-27.41,27.49H29.26c-15.11,0-27.49-12.38-27.49-27.49V29.34C1.77,14.23,14.15,1.85,29.26,1.85"/><g class="cls-7"><g class="cls-2"><g><g class="cls-5"><path class="cls-4" d="M470.79,30.63l1.13,2.09h2.01l-2.01-3.3c.96,0,1.85-.56,1.85-2.01,0-1.69-1.13-2.25-2.97-2.25v1.29c.56,0,1.29,.16,1.29,.88,0,.88-.4,.96-1.13,.96h-.16v2.33m0,5.39v-1.53c2.57-.16,4.82-2.25,4.82-5.39s-2.25-5.23-4.82-5.39v-1.53c3.54,0,6.83,2.57,6.83,6.91s-3.3,6.91-6.83,6.91m-1.13-6.35h.72l.4,.96v-2.25h-1.13v-1.85h1.13v-1.29h-2.89v7.48h1.69v-3.05h.08Zm1.13-7.56v1.53h-.16c-2.73,0-4.98,2.17-4.98,5.39s2.25,5.39,4.98,5.39h.16v1.53h-.16c-3.54,0-6.91-2.57-6.91-6.91s3.38-6.91,6.91-6.91h.16Z"/></g><g class="cls-6"><path class="cls-4" d="M37.71,71.31h-5.23v-18.57h5.71c.64,4.1,2.33,7.24,4.9,9.57s5.79,3.46,9.65,3.46c2.57,0,4.66-.48,6.11-1.53,1.53-1.05,2.25-2.41,2.25-4.18,0-2.97-3.54-5.31-10.69-7.07-.56-.16-.96-.24-1.29-.32-6.75-1.69-11.34-3.54-13.67-5.71-2.33-2.09-3.54-5.06-3.54-8.76,0-4.42,1.61-8.04,4.74-10.77s7.32-4.1,12.54-4.1c2.49,0,4.82,.4,6.91,1.05,2.09,.72,4.18,1.85,6.19,3.38l1.61-3.22h4.9v17.2h-5.63c-.4-3.94-1.85-6.91-4.18-9.08-2.33-2.09-5.47-3.22-9.33-3.22-2.33,0-4.1,.48-5.55,1.53-1.37,.96-2.01,2.33-2.01,3.94,0,2.97,3.3,5.23,9.97,6.83,1.45,.32,2.49,.64,3.3,.8,6.11,1.61,10.29,3.46,12.62,5.63s3.46,5.06,3.46,8.76c0,4.74-1.61,8.52-4.9,11.26-3.3,2.81-7.8,4.18-13.43,4.18-2.73,0-5.23-.4-7.48-1.13-2.25-.8-4.5-1.93-6.59-3.62l-1.37,3.7ZM118.26,24.76v17.93h-5.47c-.32-4.9-1.21-8.2-2.57-9.81-1.45-1.61-4.58-2.41-9.41-2.41h-8.68v13.59h2.49c2.41,0,3.94-.48,4.74-1.37,.8-.88,1.21-2.97,1.21-6.27h5.31v22.03h-5.39v-2.09c0-2.41-.4-4.1-1.29-5.06-.88-.96-2.41-1.45-4.66-1.45h-2.49v15.6h8.04c4.98,0,8.2-.88,9.73-2.73,1.61-1.85,2.57-5.47,2.89-10.93h5.47v19.38h-43.65v-5.63h2.49c1.93,0,3.05-.24,3.54-.72s.72-1.69,.72-3.54v-26.37c0-1.85-.24-3.05-.72-3.54-.48-.48-1.61-.72-3.54-.72h-2.49v-5.63h43.73v-.24Zm48.88,28.3c-.08,6.11-1.69,10.85-4.82,14.23s-7.48,4.98-13.18,4.98c-7.32,0-13.1-2.25-17.53-6.67-4.34-4.5-6.51-10.37-6.51-17.77s2.17-12.94,6.43-17.53c4.34-4.66,9.65-6.91,16.16-6.91,2.33,0,4.58,.4,6.59,1.05,2.01,.72,4.1,1.85,6.27,3.46l1.21-3.7h5.39v18.81h-5.79c-.4-4.34-1.53-7.72-3.54-10.05s-4.74-3.46-8.2-3.46c-3.78,0-6.75,1.61-8.92,4.82-2.17,3.22-3.22,7.72-3.22,13.51s1.13,10.37,3.3,13.59c2.17,3.22,5.23,4.82,9.16,4.82,3.3,0,5.87-1.13,7.96-3.46,2.01-2.33,3.22-5.55,3.54-9.73h5.71Zm30.23-23.56c-3.78,0-6.75,1.61-8.92,4.82s-3.22,7.72-3.22,13.51,1.13,10.37,3.3,13.59,5.23,4.82,9.08,4.82,6.75-1.61,8.92-4.9c2.17-3.22,3.22-7.8,3.22-13.51s-1.13-10.29-3.3-13.51c-2.17-3.22-5.23-4.82-9.08-4.82m.08,42.77c-7.4,0-13.35-2.25-17.85-6.75-4.5-4.5-6.75-10.37-6.75-17.69s2.25-13.18,6.75-17.69,10.45-6.67,17.85-6.67,13.27,2.25,17.85,6.67c4.5,4.5,6.75,10.37,6.75,17.69s-2.25,13.18-6.83,17.69c-4.5,4.5-10.45,6.75-17.77,6.75m30.55-22.11h18.33v8.84h-18.33v-8.84Zm46.95-25.4v5.63h-2.97c-1.93,0-3.05,.24-3.54,.72s-.72,1.69-.72,3.54v30.63h7.07c4.5,0,7.56-.88,9-2.65,1.45-1.77,2.33-5.47,2.65-11.01h5.47v19.38h-41.72v-5.63h2.49c1.93,0,3.05-.24,3.54-.72,.48-.48,.72-1.69,.72-3.54v-26.37c0-1.85-.24-3.05-.72-3.54s-1.61-.72-3.54-.72h-2.49v-5.63h24.76v-.08Zm46.07,25.65l-4.9-14.95-4.9,14.95h9.81Zm19.54,14.87h1.77v5.63h-23.72v-5.63h2.41c1.69,0,2.73-.16,3.3-.48,.48-.32,.8-.88,.8-1.77,0-.24-.08-.48-.16-.88s-.24-.8-.4-1.37l-1.69-4.82h-13.59l-1.69,4.98c-.16,.56-.32,1.05-.4,1.37-.08,.32-.08,.64-.08,.8,0,.8,.24,1.29,.64,1.61,.4,.24,1.29,.4,2.65,.4h2.81v5.63h-20.02v-5.63h2.17c1.21,0,2.25-.32,2.97-.96,.72-.64,1.45-1.93,2.09-3.94l11.74-35.7h11.34l11.82,35.86c.64,2.01,1.29,3.3,1.85,3.86,.72,.8,1.77,1.05,3.38,1.05m9.08-30.63c0-1.85-.24-3.05-.72-3.54-.48-.48-1.61-.72-3.54-.72h-2.49v-5.63h27.49c5.63,0,9.89,.96,12.54,2.81,2.73,1.85,4.02,4.74,4.02,8.68,0,2.73-.88,4.98-2.65,6.83-1.77,1.85-4.42,3.14-7.88,4.02,2.73,.64,4.66,1.61,5.79,2.97,1.13,1.37,1.77,3.46,1.85,6.19l.16,4.82c0,1.77,.16,2.97,.48,3.54,.24,.64,.72,.88,1.45,.88,.8,0,1.29-.4,1.61-1.21s.48-2.97,.48-6.43h4.66c0,.24,.08,.56,.08,.8v1.37c0,3.94-.8,6.99-2.49,9.08-1.69,2.09-4.1,3.14-7.24,3.14-3.38,0-5.87-.88-7.4-2.65-1.53-1.77-2.33-4.66-2.41-8.76l-.08-4.74c-.08-2.33-.56-4.02-1.61-5.15s-2.65-1.61-4.82-1.61h-6.35v11.5c0,1.85,.24,3.05,.72,3.54s1.61,.72,3.54,.72h2.97v5.63h-24.76v-5.63h2.49c1.93,0,3.05-.24,3.54-.72s.72-1.69,.72-3.54v-26.21h-.16Zm10.85,9.33h3.94c4.5,0,7.48-.48,9-1.53,1.45-1.05,2.25-2.81,2.25-5.47,0-2.41-.72-4.1-2.17-5.06-1.45-.96-4.34-1.53-8.68-1.53h-4.26v13.59h-.08Zm96.23-19.21v5.63h-2.49c-1.85,0-3.05,.24-3.46,.72-.48,.48-.64,1.69-.64,3.54v26.37c0,1.93,.24,3.05,.64,3.54,.48,.48,1.61,.72,3.46,.72h2.49v5.63h-23.23v-5.63h2.09c1.85,0,3.05-.24,3.46-.72,.48-.48,.64-1.69,.64-3.54v-28.22l-11.98,38.11h-7.32l-11.82-38.11v28.22c0,1.93,.24,3.05,.64,3.54,.48,.48,1.61,.72,3.46,.72h1.93v5.63h-20.02v-5.63h2.41c1.93,0,3.05-.24,3.54-.72s.72-1.69,.72-3.54v-26.37c0-1.85-.24-3.05-.72-3.54-.48-.48-1.61-.72-3.54-.72h-2.41v-5.63h21.87l9.16,29.67,9.41-29.67h21.71Z"/></g></g></g></g><path class="cls-8" d="M467.58,27.33l1.13,2.09h2.01l-2.01-3.22c.96,0,1.85-.56,1.85-2.01,0-1.69-1.13-2.25-2.97-2.25v1.29c.56,0,1.29,.16,1.29,.88,0,.88-.4,.96-1.13,.96h-.16v2.25m0,5.39v-1.53c2.57-.16,4.82-2.25,4.82-5.39s-2.25-5.23-4.82-5.39v-1.53c3.54,0,6.83,2.57,6.83,6.91-.08,4.42-3.3,6.91-6.83,6.91m-1.21-6.35h.72l.4,.96v-2.25h-1.13v-1.85h1.13v-1.29h-2.89v7.48h1.69v-3.05h.08Zm1.21-7.48v1.53h-.16c-2.73,0-4.98,2.17-4.98,5.39s2.25,5.39,4.98,5.39h.16v1.53h-.16c-3.54,0-6.91-2.57-6.91-6.91s3.38-6.91,6.91-6.91h.16Z"/><path class="cls-8" d="M34.41,68.01h-5.23v-18.57h5.71c.64,4.1,2.33,7.24,4.9,9.57s5.79,3.46,9.65,3.46c2.57,0,4.66-.48,6.11-1.53,1.53-1.05,2.25-2.41,2.25-4.18,0-2.97-3.54-5.31-10.69-7.07-.56-.16-.96-.24-1.29-.32-6.75-1.69-11.34-3.54-13.67-5.71-2.33-2.09-3.54-5.06-3.54-8.76,0-4.42,1.61-8.04,4.74-10.77s7.32-4.1,12.54-4.1c2.49,0,4.82,.32,6.91,1.05,2.09,.72,4.18,1.85,6.19,3.38l1.61-3.22h4.9v17.2h-5.63c-.4-3.94-1.85-6.91-4.18-9.08-2.33-2.09-5.47-3.22-9.33-3.22-2.33,0-4.1,.48-5.47,1.53-1.37,.96-2.09,2.33-2.09,3.94,0,2.97,3.3,5.23,9.97,6.83,1.45,.32,2.49,.64,3.3,.8,6.11,1.61,10.29,3.46,12.62,5.63s3.46,5.06,3.46,8.76c0,4.74-1.61,8.52-4.9,11.26-3.3,2.81-7.8,4.18-13.43,4.18-2.73,0-5.23-.4-7.48-1.13-2.33-.8-4.5-1.93-6.59-3.62l-1.37,3.7ZM115.05,21.47v17.93h-5.55c-.24-4.9-1.13-8.2-2.57-9.81s-4.58-2.41-9.33-2.41h-8.68v13.59h2.49c2.41,0,3.94-.48,4.74-1.37,.72-.96,1.21-2.97,1.21-6.27h5.31v22.03h-5.39v-2.09c0-2.41-.48-4.1-1.29-5.06-.88-.96-2.41-1.45-4.66-1.45h-2.49v15.6h8.04c4.98,0,8.2-.88,9.81-2.73s2.57-5.47,2.89-10.93h5.47v19.38h-43.73v-5.63h2.49c1.93,0,3.05-.24,3.54-.72,.48-.48,.72-1.69,.72-3.54V31.6c0-1.85-.24-3.05-.72-3.54-.48-.48-1.61-.72-3.54-.72h-2.49v-5.63h43.73v-.24Zm48.8,28.3c-.08,6.11-1.69,10.85-4.74,14.23-3.14,3.38-7.48,4.98-13.18,4.98-7.32,0-13.1-2.25-17.53-6.67-4.34-4.5-6.51-10.37-6.51-17.77s2.17-12.94,6.43-17.53c4.34-4.66,9.65-6.91,16.16-6.91,2.33,0,4.58,.32,6.59,1.05,2.01,.72,4.1,1.85,6.27,3.46l1.21-3.7h5.39v18.81h-5.79c-.32-4.34-1.53-7.72-3.54-10.05s-4.74-3.46-8.2-3.46c-3.78,0-6.75,1.61-8.92,4.82-2.17,3.22-3.22,7.72-3.22,13.51s1.13,10.37,3.3,13.59c2.17,3.22,5.23,4.82,9.16,4.82,3.3,0,5.95-1.13,7.96-3.46s3.22-5.55,3.54-9.73h5.63Zm30.23-23.56c-3.78,0-6.75,1.61-8.92,4.82s-3.22,7.72-3.22,13.51,1.13,10.37,3.3,13.59,5.23,4.82,9.08,4.82,6.75-1.61,8.92-4.9c2.17-3.22,3.22-7.8,3.22-13.51s-1.13-10.29-3.3-13.51c-2.17-3.22-5.23-4.82-9.08-4.82m.08,42.77c-7.4,0-13.35-2.25-17.85-6.75-4.5-4.5-6.75-10.37-6.75-17.69s2.25-13.18,6.75-17.69c4.5-4.5,10.45-6.67,17.85-6.67s13.27,2.25,17.85,6.67c4.5,4.5,6.75,10.37,6.75,17.69s-2.25,13.18-6.83,17.69c-4.42,4.5-10.37,6.75-17.77,6.75m30.55-22.11h18.33v8.84h-18.33v-8.84Zm46.95-25.4v5.63h-2.97c-1.93,0-3.05,.24-3.54,.72s-.72,1.69-.72,3.54v30.63h7.07c4.5,0,7.56-.88,9-2.65,1.45-1.77,2.33-5.47,2.65-11.01h5.47v19.38h-41.72v-5.63h2.49c1.93,0,3.05-.24,3.54-.72,.48-.48,.72-1.69,.72-3.54V31.43c0-1.85-.24-3.05-.72-3.54s-1.61-.72-3.54-.72h-2.49v-5.63h24.76v-.08Zm46.07,25.65l-4.9-14.95-4.9,14.95h9.81Zm19.54,14.95h1.77v5.63h-23.72v-5.63h2.41c1.69,0,2.73-.16,3.3-.48,.48-.32,.8-.88,.8-1.69,0-.24-.08-.48-.16-.88s-.24-.8-.4-1.37l-1.69-4.82h-13.59l-1.69,4.98c-.16,.56-.32,1.05-.4,1.37-.08,.32-.08,.64-.08,.8,0,.8,.24,1.29,.64,1.61,.4,.24,1.29,.4,2.65,.4h2.81v5.63h-20.02v-5.63h2.17c1.21,0,2.25-.32,2.97-.96,.72-.64,1.45-1.93,2.09-3.94l11.74-35.7h11.34l11.82,35.86c.64,2.01,1.29,3.3,1.85,3.86,.72,.64,1.85,.96,3.38,.96m9.17-30.63c0-1.85-.24-3.05-.72-3.54-.48-.48-1.61-.72-3.54-.72h-2.49v-5.63h27.41c5.63,0,9.81,.96,12.54,2.81s4.02,4.74,4.02,8.68c0,2.73-.88,4.98-2.65,6.83-1.77,1.85-4.42,3.14-7.88,4.02,2.73,.64,4.66,1.61,5.79,2.97,1.13,1.37,1.77,3.46,1.85,6.19l.16,4.82c0,1.77,.16,2.97,.48,3.54,.24,.64,.72,.88,1.45,.88,.8,0,1.29-.4,1.61-1.21s.48-2.97,.48-6.43h4.66c0,.24,.08,.56,.08,.8v1.37c0,3.94-.8,6.99-2.49,9.08-1.69,2.09-4.1,3.14-7.24,3.14-3.38,0-5.87-.88-7.4-2.65-1.53-1.77-2.33-4.66-2.41-8.76l-.08-4.74c-.08-2.33-.56-4.02-1.61-5.06-1.05-1.13-2.65-1.61-4.82-1.61h-6.35v11.5c0,1.85,.24,3.05,.72,3.54s1.61,.72,3.54,.72h2.97v5.63h-24.76v-5.63h2.49c1.93,0,3.05-.24,3.54-.72s.72-1.69,.72-3.54V31.43h-.08Zm10.85,9.25h3.94c4.5,0,7.48-.48,9-1.53,1.45-1.05,2.25-2.81,2.25-5.47,0-2.41-.72-4.1-2.17-5.06-1.45-.96-4.34-1.53-8.68-1.53h-4.26v13.59h-.08Zm96.15-19.21v5.63h-2.49c-1.85,0-3.05,.24-3.46,.72-.48,.48-.64,1.69-.64,3.54v26.37c0,1.93,.24,3.05,.64,3.54,.48,.48,1.61,.72,3.46,.72h2.49v5.63h-23.23v-5.63h2.09c1.85,0,3.05-.24,3.46-.72,.48-.48,.64-1.69,.64-3.54V29.59l-11.98,38.11h-7.32l-11.66-38.11v28.22c0,1.93,.24,3.05,.64,3.54,.48,.48,1.61,.72,3.46,.72h1.93v5.63h-19.94v-5.63h2.41c1.93,0,3.05-.24,3.54-.72s.72-1.69,.72-3.54V31.43c0-1.85-.24-3.05-.72-3.54-.48-.48-1.61-.72-3.54-.72h-2.41v-5.63h21.87l9.16,29.67,9.41-29.67h21.47v-.08Z"/></g></g></svg>