<?xml version="1.0" encoding="UTF-8"?><svg id="Layer_2" xmlns="http://www.w3.org/2000/svg" viewBox="0 0 458.67 52.58"><defs><style>.cls-1{fill:#f84832;}.cls-2{fill:#2f292b;}</style></defs><g id="F8_Logo"><g id="fortinet"><path class="cls-1" d="M109.51,0c.01,4.34,.02,8.69,.04,13.03,0,.73-.41,.82-.98,.82-3.03,0-6.07,0-9.1,0-3.18,0-6.37,0-9.55,0-.66,0-1-.18-.99-.91,.03-4.31,.03-8.63,.03-12.94h20.55Z"/><path class="cls-1" d="M127.9,0c5.46,2.33,7.47,6.96,8.28,12.36,.2,1.36,.03,1.48-1.37,1.48-6.16,0-12.32,0-18.48,0-1.23,0-1.25-.03-1.25-1.26,0-4.19,.01-8.39,.02-12.58h12.8Z"/><path class="cls-1" d="M83.37,0c0,4.31,0,8.62,.03,12.93,0,.72-.3,.93-.97,.93-6.33-.01-12.67-.02-19,0-.79,0-1.1-.28-1.02-1.05,.56-5.71,2.7-10.39,8.35-12.81h12.62Z"/><path class="cls-2" d="M145.22,26.25c0-8.09,0-16.17,0-24.26q0-1.48,1.51-1.48c12.44,0,24.87,0,37.31,0,3.49,0,6.97,.16,10.32,1.26,5.09,1.68,7.76,5.33,8.36,10.53,.38,3.22,.41,6.46,.07,9.68-.28,2.65-1.62,4.85-3.43,6.78-.22,.23-.67,.43-.07,.79,2.19,1.3,3.01,3.42,3.06,5.77,.11,5.27,.04,10.54,.06,15.81,0,.67-.28,.88-.92,.87-3.48-.02-6.97-.03-10.45,0-.83,0-1-.33-1-1.07,.02-5.27,.01-10.54,.01-15.81,0-2.15-.66-2.9-2.8-3.15-.65-.08-1.32-.12-1.97-.12-8.68,0-17.36,0-26.04,0-1.19,0-1.19,0-1.19,1.2,0,5.9,0,11.8,0,17.7,0,1.24,0,1.24-1.26,1.24-3.45,0-6.91,0-10.36,0-1.17,0-1.2-.02-1.2-1.22,0-8.18,0-16.35,0-24.53Zm27.64-5.62h0c4.09,0,8.17,0,12.26,0,.96,0,1.92,.02,2.87-.16,1.26-.23,2.14-1.07,2.21-2.34,.06-1.19,.06-2.4,0-3.59-.07-1.15-.92-2.06-2.01-2.24-.62-.11-1.25-.19-1.88-.19-9.1-.01-18.2,0-27.31-.02-.76,0-.99,.26-.97,.99,.03,2.16,.05,4.31,0,6.47-.02,.88,.29,1.12,1.14,1.11,4.57-.03,9.13-.02,13.7-.02Z"/><path class="cls-2" d="M351.03,26.33c0-8.18,0-16.35,0-24.53,0-1.28,0-1.28,1.32-1.28,16.04,0,32.08,0,48.12,0,1.32,0,1.33,0,1.33,1.36,0,3.02-.03,6.05,.02,9.07,.02,.92-.28,1.17-1.18,1.16-11.84-.03-23.67-.02-35.51-.02q-1.39,0-1.39,1.36c0,1.98,0,3.95,0,5.93,0,1.25,0,1.25,1.24,1.25,7.93,0,15.86,0,23.79,0q1.46,0,1.46,1.42c0,2.88-.03,5.75,.02,8.63,.01,.89-.26,1.19-1.18,1.18-8.02-.03-16.04-.02-24.06-.02q-1.26,0-1.26,1.22c0,2.07,.04,4.13-.02,6.2-.03,.93,.3,1.16,1.19,1.16,11.87-.03,23.73-.02,35.6-.02q1.6,0,1.6,1.58c0,2.96,0,5.93,0,8.89,0,1.12-.08,1.21-1.15,1.21-16.28,0-32.56,0-48.85,.02-.9,0-1.1-.35-1.09-1.17,.02-8.21,.01-16.41,.01-24.62Z"/><path class="cls-2" d="M284.69,26.26c0-8.18,0-16.35,0-24.53,0-1.21,0-1.22,1.19-1.22,13.22,0,26.44-.03,39.66,.03,4.18,.02,8.09,1.1,11.38,3.84,2.69,2.23,4,5.25,4.82,8.54,.5,1.98,.7,4.01,.7,6.05,.02,10.57,0,21.15,0,31.72,0,1.31,0,1.31-1.28,1.32-3.42,0-6.85,0-10.27,0-1.27,0-1.28,0-1.28-1.32,0-10.93,0-21.86,0-32.8,0-.87,0-1.73-.18-2.59-.42-2.05-1.72-3.18-3.83-3.2-3.24-.02-6.49,0-9.73,0-5.77,0-11.54,.02-17.3-.02-.92,0-1.17,.26-1.16,1.17,.03,12.46,.02,24.92,.02,37.38q0,1.39-1.37,1.39c-3.33,0-6.67,0-10,0q-1.36,0-1.36-1.4c0-8.12,0-16.23,0-24.35Z"/><path class="cls-2" d="M28.51,.5c9.01,0,18.03,0,27.04,0q1.39,0,1.39,1.38c0,2.88,0,5.75,0,8.63q0,1.58-1.54,1.58c-13.73,0-27.46,0-41.19,0q-1.46,0-1.46,1.46c0,1.98,.04,3.96-.02,5.93-.03,.92,.27,1.17,1.18,1.17,11.75-.03,23.5-.02,35.24-.02,.33,0,.66,0,.99,0,.45,0,.65,.23,.65,.67,0,3.29,0,6.59,0,9.88,0,.45-.23,.65-.67,.65-.3,0-.6,0-.9,0-11.72,0-23.44,0-35.15,0q-1.31,0-1.32,1.34c0,5.81,0,11.62,0,17.43q0,1.36-1.32,1.36c-3.46,0-6.91-.02-10.37,.01-.77,0-1.05-.22-1.05-1.02C.02,34.51,.02,18.04,0,1.56,0,.62,.41,.49,1.2,.49c9.1,.02,18.21,.01,27.31,.01Z"/><path class="cls-2" d="M233.1,.51c7.42,0,14.84,0,22.25,0,1.3,0,1.3,0,1.3,1.3,0,2.99,0,5.99,0,8.98,0,1.3,0,1.3-1.28,1.31-6.61,0-13.21,0-19.82,0-1.77,0-1.62-.2-1.62,1.66,0,12.25,0,24.49,0,36.74q0,1.5-1.46,1.5c-3.33,0-6.67,0-10,0q-1.37,0-1.37-1.41c0-12.16,0-24.31,0-36.47,0-.27,0-.54,0-.81,0-1.21,0-1.21-1.18-1.21-2.91,0-5.83,0-8.74,0-2.1,0-1.84,.24-1.85-1.89-.01-2.84,.03-5.69-.02-8.53-.02-.91,.28-1.18,1.18-1.18,7.54,.03,15.08,.02,22.61,.02Z"/><path class="cls-2" d="M431.64,.51c7.45,0,14.9,0,22.35,0,1.29,0,1.3,.01,1.3,1.31,0,3.05-.02,6.11,.01,9.16,.01,.85-.27,1.13-1.14,1.13-6.82-.03-13.64-.02-20.46-.02q-1.25,0-1.25,1.22c0,12.43,0,24.86,0,37.29q0,1.39-1.36,1.4c-3.24,0-6.49,0-9.73,0q-1.63,0-1.63-1.59c0-12.31,0-24.62,0-36.93q0-1.39-1.35-1.39c-3.15,0-6.31-.03-9.46,.02-.84,.01-1.09-.29-1.08-1.09,.03-3.11,0-6.23,.01-9.34,0-1.12,.04-1.17,1.17-1.17,7.54,0,15.08,0,22.62,0Z"/><path class="cls-2" d="M275.41,26.33c0,8.14,0,16.29,0,24.43,0,1.33-.02,1.35-1.37,1.35-3.39,0-6.79-.02-10.18,.02-.88,0-1.19-.25-1.19-1.17,.03-16.41,.02-32.82,.02-49.22,0-1.18,.02-1.2,1.21-1.2,3.42,0,6.85,0,10.27,0,1.21,0,1.23,.02,1.23,1.28,0,8.17,0,16.35,0,24.52Z"/><path class="cls-1" d="M125.72,19.37c3.12,0,6.25,.02,9.37-.02,.86-.01,1.15,.27,1.14,1.13-.04,3.86-.03,7.73,0,11.59,0,.85-.26,1.17-1.13,1.17-6.31-.02-12.62-.02-18.93,0-.82,0-1.1-.3-1.09-1.11,.03-3.89,.03-7.79,0-11.68,0-.81,.25-1.1,1.09-1.09,3.18,.04,6.37,.02,9.55,.02Z"/><path class="cls-1" d="M72.86,33.12c-3.12,0-6.25-.02-9.37,.01-.82,0-1.09-.26-1.09-1.08,.03-3.89,.03-7.78,0-11.67,0-.8,.28-1.02,1.05-1.02,6.31,.02,12.61,.02,18.92,0,.78,0,1.05,.25,1.05,1.03-.03,3.89-.03,7.78,0,11.67,0,.84-.3,1.08-1.1,1.07-3.15-.03-6.31-.01-9.46-.01Z"/><path class="cls-1" d="M99.14,52.52c-3.03,0-6.06-.03-9.09,.02-.87,.01-1.14-.29-1.13-1.14,.03-3.83,.04-7.66,0-11.49-.01-.93,.33-1.16,1.21-1.16,6.09,.03,12.18,.03,18.28,0,.92,0,1.18,.3,1.17,1.19-.04,3.8-.02,7.6-.02,11.4,0,1.17-.01,1.18-1.23,1.18-3.06,0-6.12,0-9.18,0Z"/><path class="cls-1" d="M125.65,38.66c3.12,0,6.24,0,9.36,0,1.1,0,1.28,.11,1.18,1.17-.46,4.74-2.1,8.89-6.17,11.75-.95,.67-1.99,.99-3.2,.97-3.54-.06-7.08-.05-10.62,0-.88,0-1.13-.3-1.12-1.15,.03-3.83,.01-7.66,.02-11.49,0-1.18,.06-1.24,1.3-1.24,3.09,0,6.18,0,9.27,0Z"/><path class="cls-1" d="M73.01,38.66c3.03,0,6.06,0,9.09,0,1.23,0,1.29,.06,1.29,1.25,0,3.83-.02,7.66,.02,11.49,0,.85-.25,1.15-1.13,1.14-3.24-.04-6.49-.15-9.72,.03-2.4,.13-4.23-.78-5.77-2.38-2.72-2.82-4.16-6.25-4.37-10.17-.07-1.35-.01-1.37,1.32-1.37,3.09,0,6.18,0,9.27,0Z"/><path class="cls-2" d="M452.33,51.98c-3.47,0-6.28-2.82-6.28-6.3,0-3.46,2.88-6.34,6.31-6.31,3.45,.03,6.35,2.95,6.31,6.34-.04,3.48-2.87,6.28-6.34,6.28Zm0-.95c3.05,0,5.44-2.39,5.42-5.4-.02-2.93-2.48-5.33-5.46-5.32-2.98,0-5.32,2.38-5.31,5.41,0,3.07,2.27,5.32,5.34,5.32Z"/><path class="cls-2" d="M449.88,45.48c0-.87,.01-1.73,0-2.6,0-.58,.19-.9,.83-.87,.9,.03,1.8-.02,2.7,.02,1.65,.07,2.49,1.59,1.62,2.99-.23,.38-.29,.61-.05,1.02,.47,.8,.27,1.75,.43,2.63,.05,.28-.18,.35-.4,.37-.29,.03-.55-.03-.65-.35-.15-.49-.21-.99-.21-1.5,0-.74-.41-1.06-1.12-1.12-2.02-.16-2.02-.16-2.04,1.86,0,.12,0,.24,0,.36,0,.38-.04,.75-.56,.73-.5-.01-.55-.39-.55-.76,0-.93,0-1.85,0-2.78h0Zm2.57-2.47v-.02c-.24,0-.48,.01-.71,0-.79-.05-.75,.49-.74,1.01,0,.53-.11,1.13,.75,1.1,.56-.02,1.13,.01,1.7-.04,.6-.05,.75-.5,.76-1.02,0-.53-.18-.95-.77-1.01-.32-.04-.65,0-.98,0Z"/></g></g></svg>