<?xml version="1.0" encoding="UTF-8"?><svg id="Layer_2" xmlns="http://www.w3.org/2000/svg" viewBox="0 0 360.87 87.46"><defs><style>.cls-1{fill:#1d1d1d;}</style></defs><g id="F8_Logo"><g id="mikrotik"><path class="cls-1" d="M0,85.16c1.52-4.69,2.58-9.5,3.83-14.26,3.63-13.79,7.22-27.59,10.79-41.4,.3-1.15,.8-1.63,2.03-1.59,2.21,.09,4.42,.09,6.63,0,1.29-.06,1.8,.42,2.05,1.67,2.26,11.08,4.58,22.14,6.88,33.2,1.06,5.1,2.11,10.2,3.18,15.29,.09,.43,0,1.08,.56,1.17,.45,.07,.63-.49,.87-.83,12.08-16.41,24.15-32.82,36.2-49.25,.65-.89,1.37-1.28,2.47-1.25,2.21,.07,4.42,.01,6.63,.02,1.65,0,1.71,.08,1.29,1.7-2.28,8.86-4.57,17.71-6.86,26.57-2.43,9.4-4.87,18.8-7.24,28.22-.33,1.32-.95,1.77-2.25,1.67-1.17-.09-2.35-.07-3.53,0-1.14,.06-1.38-.35-1.08-1.42,1.76-6.33,3.48-12.66,5.21-19,2.7-9.86,5.4-19.72,8.09-29.59,.13-.47,.42-.95,.15-1.69-1.24,1.67-2.42,3.22-3.57,4.79-11.15,15.17-22.31,30.33-33.43,45.52-.74,1.01-1.55,1.51-2.82,1.4-1.17-.1-2.35-.08-3.52,0-1.16,.07-1.66-.37-1.9-1.52-2.21-10.65-4.48-21.3-6.72-31.94-1.23-5.83-2.46-11.66-3.7-17.48-.1-.48-.1-1.01-.48-1.45-.48,.37-.45,.92-.57,1.39-4.04,16.3-8.08,32.6-12.12,48.9-.52,2.09-.52,2.1-2.72,2.09-1.46,0-2.91-.05-4.37-.07v-.84Z"/><path class="cls-1" d="M323.69,56.09c4.15-3.59,8.03-6.85,11.78-10.24,1.61-1.45,3.21-2.24,5.5-2.18,6.11,.18,12.22,.06,18.34,.07,.5,0,1.03-.15,1.56,.22-.26,.6-.84,.86-1.3,1.21-6.59,4.92-13.16,9.85-19.79,14.72-.96,.7-1.1,1.25-.55,2.31,3.81,7.38,7.57,14.79,11.34,22.19,.84,1.65,.83,1.69-.96,1.69-5.92,0-11.85-.03-17.77,.03-1.22,.01-1.84-.41-2.32-1.53-1.77-4.09-3.68-8.12-5.43-12.22-.54-1.27-.97-1.18-2.02-.51-2.17,1.35-3.44,3.1-3.84,5.68-.37,2.4-1.19,4.73-1.73,7.1-.24,1.06-.71,1.47-1.82,1.46-5.55-.04-11.1-.04-16.64,0-1.24,0-1.41-.45-1.14-1.53,4.6-18.38,9.19-36.76,13.75-55.15,.28-1.12,.8-1.51,1.95-1.49,5.41,.05,10.81,.02,16.22,.02,1.7,0,1.78,.11,1.36,1.8-2,8.11-4,16.21-6,24.31-.13,.54-.25,1.08-.47,2.04Z"/><path class="cls-1" d="M248.19,27.94c9.36,0,18.72,0,28.08,0,2.15,0,2.16,.02,1.63,2.15-1.04,4.14-2.1,8.27-3.08,12.43-.27,1.14-.73,1.63-1.99,1.62-19.09-.03-38.19-.03-57.28,0-1.2,0-1.58-.26-1.25-1.53,1.14-4.36,2.2-8.73,3.23-13.12,.27-1.17,.82-1.58,2.03-1.57,9.55,.04,19.09,.02,28.64,.02Z"/><path class="cls-1" d="M242.23,51.63c3.15,0,6.3,.03,9.45-.01,1.08-.01,1.43,.31,1.15,1.41-2.68,10.59-5.33,21.19-7.96,31.79-.24,.95-.71,1.28-1.67,1.28-6.3-.03-12.6-.03-18.9,0-1.09,0-1.41-.34-1.14-1.42,2.66-10.6,5.29-21.2,7.91-31.8,.24-.97,.78-1.26,1.71-1.25,3.15,.03,6.3,.01,9.45,.01Z"/><path class="cls-1" d="M187.45,87.46c-4.52-.2-8.74-.73-12.56-2.96-4.7-2.74-7.32-6.9-7.8-12.2-.75-8.34,1.71-15.71,7.69-21.68,4.97-4.95,11.13-7.34,18.12-7.75,4.08-.24,8.05,.11,11.92,1.54,7.23,2.69,11.17,9.3,10.38,16.98-.54,5.29-1.91,10.22-4.94,14.62-4.67,6.79-11.28,10.26-19.37,11.15-1.21,.13-2.43,.21-3.44,.29Zm21.35-25.27c.02-7.82-2.83-12.16-8.14-13.89-3.97-1.3-8.04-1.37-12.07-.25-10.04,2.79-15.98,13.47-15.21,22.91,.38,4.6,2.4,8.33,6.8,10.25,5.19,2.26,10.58,2.42,15.73,.04,8.82-4.06,12.23-11.64,12.9-19.06Z"/><path class="cls-1" d="M278.96,86.07c-2.77,0-5.55-.04-8.32,.02-1.21,.02-1.44-.43-1.17-1.53,2.63-10.51,5.25-21.02,7.83-31.54,.27-1.08,.81-1.42,1.87-1.41,5.5,.03,11,.04,16.5,0,1.3-.01,1.49,.48,1.2,1.62-2.63,10.51-5.24,21.02-7.83,31.54-.23,.95-.66,1.33-1.63,1.32-2.82-.04-5.64-.01-8.46-.01Z"/><path class="cls-1" d="M106.21,64c.61,.14,.87-.18,1.16-.38,8.91-6.19,17.83-12.37,26.73-18.58,1.01-.7,2.01-1.09,3.26-1.05,2.04,.08,4.08,.02,6.13,.02l.1,.34c-.78,.56-1.55,1.14-2.34,1.68-6.49,4.4-12.99,8.79-19.49,13.19-1.57,1.07-1.57,1.07-.61,2.7,4.44,7.51,8.89,15.02,13.33,22.54,.87,1.46,.79,1.59-.91,1.61-1.13,0-2.27-.09-3.38,.03-1.33,.13-2.04-.47-2.67-1.56-3.8-6.53-7.66-13.02-11.5-19.53-.89-1.51-.9-1.51-2.39-.47-2.7,1.88-5.38,3.78-8.1,5.63-.76,.51-1.15,1.15-1.37,2.02-1.03,4.14-2.14,8.26-3.15,12.41-.27,1.1-.76,1.6-1.93,1.5-1.03-.09-2.07-.01-3.1-.02-1.68-.01-1.73-.08-1.33-1.67,1.26-4.95,2.53-9.91,3.79-14.86,2.03-7.95,4.1-15.89,6.08-23.86,.32-1.3,.88-1.83,2.21-1.7,1.03,.1,2.07,.06,3.1,0,1.2-.06,1.46,.42,1.16,1.53-1.13,4.21-2.22,8.44-3.31,12.66-.5,1.93-.97,3.87-1.46,5.82Z"/><path class="cls-1" d="M151.27,52.8c.39-.5,.74-.97,1.1-1.43,4.84-6.24,11.36-8.46,19.04-7.91,.71,.05,1.06,.32,.84,1.07-.03,.09-.04,.18-.06,.28q-.83,4-4.89,4.03c-9.07,.07-16.04,5.6-18.51,14.82-1.85,6.88-3.61,13.79-5.34,20.7-.32,1.26-.82,1.87-2.19,1.74-1.02-.1-2.07-.07-3.1,0-1.24,.08-1.53-.32-1.2-1.55,1.92-7.25,3.77-14.52,5.65-21.79,1.47-5.67,2.97-11.34,4.37-17.03,.31-1.26,.8-1.89,2.18-1.73,.93,.11,1.88,.06,2.82,.02,1.02-.04,1.21,.43,.97,1.31-.59,2.17-1.15,4.35-1.71,6.53-.07,.26-.26,.52,.04,.96Z"/><path class="cls-1" d="M289.38,44.12c-2.73,0-5.45-.04-8.18,.02-1.17,.02-1.63-.26-1.3-1.53,1.16-4.44,2.27-8.9,3.37-13.37,.23-.92,.67-1.32,1.65-1.32,5.59,.03,11.19,.03,16.78,0,1.06,0,1.44,.29,1.16,1.41-1.15,4.5-2.27,9-3.35,13.52-.23,.96-.71,1.29-1.67,1.28-2.82-.04-5.64-.01-8.46-.01h0Z"/><path class="cls-1" d="M82.16,86.07q-3.12,0-2.34-3.05c3.22-12.43,6.47-24.85,9.64-37.29,.35-1.36,.95-1.89,2.32-1.75,.93,.09,1.88,.01,2.82,.02,1.62,.02,1.7,.13,1.3,1.71-1.42,5.49-2.84,10.98-4.27,16.46-1.87,7.21-3.74,14.42-5.61,21.63q-.59,2.26-2.87,2.26c-.33,0-.66,0-.99,0Z"/><path class="cls-1" d="M124.16,36.46c-7.41,3.38-19.32,2.5-28.12-6.02-8.67-8.4-9.87-20.13-7.01-27.67,2.82,20.67,14.6,31.76,35.14,33.69Z"/><path class="cls-1" d="M126.87,26.91c-6.62,3.13-16.78,1.61-23.4-5.23-6.13-6.33-7.39-15.89-5.03-21.68,1.31,7.35,3.5,14.05,8.9,19.24,5.44,5.22,12.26,6.98,19.53,7.67Z"/></g></g></svg>