<?xml version="1.0" encoding="utf-8"?>
<!-- Generator: Adobe Illustrator 26.3.1, SVG Export Plug-In . SVG Version: 6.00 Build 0)  -->
<svg version="1.1" id="Layer_2_00000166640472374314237730000009516735570216633481_"
	 xmlns="http://www.w3.org/2000/svg" xmlns:xlink="http://www.w3.org/1999/xlink" x="0px" y="0px" viewBox="0 0 376.9 110.7"
	 style="enable-background:new 0 0 376.9 110.7;" xml:space="preserve">
<style type="text/css">
	.st0{fill:#0D0D0D;}
	.st1{fill:#39A2E1;}
	.st2{fill:url(#SVGID_1_);}
	.st3{fill:#4F4C4D;}
</style>
<g>
	<g transform="matrix(1.33333 0 0 -1.33333 0 138.461)">
		<path class="st0" d="M71.6,57.9l1.8,5.8v40c-20.9,0-23.1-8-23.1-15.7V44.1c0-2.3-0.2-4.7-0.7-7C60.7,39.1,68,45.9,71.6,57.9"/>
		<g>
			<path class="st1" d="M18.1,94.5h-4.6v4.6h4.6V94.5z M22.7,87.7h-4.6v4.6h4.6V87.7z M18.1,81.9h-4.6v4.6h4.6V81.9z M13.5,75.1H8.9
				v4.6h4.6V75.1z M4.3,99.1h-4.6v4.6h4.6V99.1z"/>
			<path class="st1" d="M8.9,70.5h4.6V60.3h4.6v17h4.6V44.1c0-15.8,13.8-23.4,13.8-23.4c-23.2,0-36.9,14.1-36.9,32.8v37.6h4.6V65.9
				h4.6L8.9,70.5z"/>
		</g>
		<g transform="matrix(1.33333 0 0 -1.33333 0 138.461)">
			
				<linearGradient id="SVGID_1_" gradientUnits="userSpaceOnUse" x1="-187.2565" y1="315.3174" x2="-185.2105" y2="315.3174" gradientTransform="matrix(31.413 0 0 31.413 5901.1924 -9830.5225)">
				<stop  offset="0" style="stop-color:#656263"/>
				<stop  offset="1" style="stop-color:#A7A5A6"/>
			</linearGradient>
			<path class="st2" d="M29.8,77.9c-4.6-0.2-8.2-1.4-10.9-3.1c1.9,8.1,8.8,12.1,9.2,12.3l2.1,1.1C45.9,87.2,55.1,77,55.1,63.7v-2.9
				C51.3,73.1,42.6,78.5,29.8,77.9"/>
		</g>
	</g>
	<g transform="matrix(1.33333 0 0 -1.33333 0 138.461)">
		<path class="st3" d="M213,55.6c-3.9,0-7,1.1-9.1,3.2c-2.1,2.2-3.2,5.3-3.1,9.4l0,18.9h0c1,0,4.5-0.2,4.5-3.4l0-16.5
			c0.1-4.9,2.9-7.7,7.7-7.7c4.8,0,7.6,2.8,7.7,7.7v16.5c0,3.2,3.4,3.4,4.5,3.4h0l0-18.9c0.1-4-1-7.2-3.1-9.4
			C219.9,56.7,216.9,55.6,213,55.6 M108.9,55.6c-3.9,0-7,1.1-9.1,3.2c-2.1,2.2-3.2,5.3-3.1,9.4l0.1,18.9h0c1,0,4.5-0.2,4.5-3.4
			l-0.1-16.5c0.1-4.9,2.9-7.7,7.7-7.7c4.8,0,7.6,2.8,7.7,7.7l0.1,16.5c0,3.2,3.4,3.4,4.5,3.4h0l-0.1-18.9c0.1-4-1-7.2-3.1-9.4
			C115.9,56.7,112.8,55.6,108.9,55.6 M181,59.5c-7.7,0-8.8,7.4-8.8,11.8c0,3.5,0.9,11.9,8.8,11.9c7.7,0,8.8-7.5,8.8-11.9
			C189.8,67.7,188.9,59.5,181,59.5 M198.3,56.2c0,0.5-0.1,2.1-1,3c-0.5,0.5-1.1,0.8-1.9,0.8h-5.3c2.8,2.8,4.4,6.8,4.4,11.3
			c0,7.6-3.6,15.8-13.5,15.8c-10,0-13.5-8.2-13.5-15.8c0-7.6,3.5-15.7,13.5-15.7l0,0c0.8,0,1.6,0.1,2.4,0.2c0.5,0.1,1,0.1,1.5,0.2
			l0.8,0.1L198.3,56.2z M232.8,55.9l0,27.8c0,3.2,3.4,3.4,4.5,3.4h0V56.4c0-0.3-0.2-0.5-0.5-0.5L232.8,55.9z M157.1,55.8l0,27.9
			c0,3.2,3.4,3.4,4.5,3.4h0V56.3c0-0.3-0.2-0.5-0.5-0.5L157.1,55.8z M268.7,55.9v27.8c0,3.2,3.4,3.4,4.5,3.4h0V56.4
			c0-0.3-0.2-0.5-0.5-0.5L268.7,55.9z M241.8,87v-3.9h9.2V55.9h4c0.3,0,0.5,0.2,0.5,0.5v26.7h8.4c0.3,0,0.5,0.2,0.5,0.5V87L241.8,87
			z"/>
		<path class="st3" d="M241.9,87v-3.9h9.2V55.9h4c0.3,0,0.5,0.2,0.5,0.5v26.7h8.4c0.3,0,0.5,0.2,0.5,0.5V87L241.9,87z M140.8,59.8
			h-7.2V70h6.7c2.1,0,5.6-0.9,5.6-5.1C145.9,61,142.9,59.9,140.8,59.8 M144.7,78.5c0-1.7-0.5-3-1.6-3.7c-0.7-0.5-1.8-0.7-3.2-0.8
			h-6.7V83h6.4C143.3,82.9,144.7,81.4,144.7,78.5 M145.2,72l-0.4,0.1l0.4,0.2c2.6,1.1,4.2,3.8,4.2,6.5c0,5-3.6,8.2-9.8,8.2h-10.8
			V55.9h10.8c0.3,0,0.6,0,0.9,0c1.2,0,2.9,0.1,4.3,0.6c3.4,1.3,5.5,4.3,5.5,7.6C150.3,66.9,149,70.9,145.2,72 M97.3,46.5H99l4.1-6.6
			h0v6.6h1.5v-9H103l-4.1,6.6h0v-6.6h-1.5V46.5z M121.6,46.5h6.5v-1.4h-4.9v-2.4h4.5v-1.3h-4.5v-2.6h5v-1.4h-6.6V46.5z M144,46.5
			h7.3v-1.4h-2.9v-7.7h-1.6v7.7H144V46.5z M167,46.5h1.6l1.6-6.9h0l1.8,6.9h1.6l1.8-6.9h0l1.7,6.9h1.6l-2.5-9h-1.6l-1.8,6.9h0
			l-1.8-6.9h-1.6L167,46.5z M198.5,45.4c-0.4,0-0.9-0.1-1.2-0.3c-0.3-0.2-0.6-0.5-0.9-0.8c-0.2-0.3-0.4-0.7-0.5-1.1
			c-0.2-0.8-0.2-1.7,0-2.5c0.1-0.4,0.3-0.8,0.5-1.1c0.2-0.3,0.5-0.6,0.9-0.8c0.4-0.2,0.8-0.3,1.2-0.3c0.5,0,0.9,0.1,1.2,0.3
			c0.3,0.2,0.6,0.5,0.9,0.8c0.2,0.3,0.4,0.7,0.5,1.1c0.1,0.4,0.2,0.8,0.2,1.3c0,0.4-0.1,0.9-0.2,1.3c-0.1,0.4-0.3,0.8-0.5,1.1
			c-0.2,0.3-0.5,0.6-0.9,0.8C199.4,45.3,199,45.4,198.5,45.4 M198.5,46.7c0.7,0,1.3-0.1,1.8-0.4c0.5-0.2,1-0.6,1.4-1
			c0.4-0.4,0.7-0.9,0.9-1.5c0.2-0.6,0.3-1.2,0.3-1.8c0-0.6-0.1-1.3-0.3-1.8c-0.2-0.6-0.5-1.1-0.9-1.5c-0.4-0.4-0.8-0.8-1.4-1
			c-0.5-0.2-1.1-0.4-1.8-0.4c-0.7,0-1.3,0.1-1.8,0.4c-0.5,0.2-1,0.6-1.4,1c-0.4,0.4-0.7,0.9-0.9,1.5s-0.3,1.2-0.3,1.8
			c0,0.6,0.1,1.2,0.3,1.8c0.2,0.6,0.5,1.1,0.9,1.5C196.1,46.2,197.3,46.8,198.5,46.7 M220.9,42.4h2.6c0.5,0,0.9,0.1,1.2,0.4
			c0.3,0.2,0.4,0.6,0.4,1.1c0,0.2,0,0.5-0.1,0.7c-0.1,0.2-0.2,0.3-0.3,0.4c-0.2,0.1-0.3,0.2-0.5,0.2c-0.2,0-0.4,0-0.6,0h-2.6V42.4z
			 M219.4,46.5h4.3c1,0,1.7-0.2,2.2-0.6c0.5-0.4,0.7-1,0.7-1.8c0-0.4-0.1-0.8-0.2-1.1s-0.3-0.5-0.4-0.7c-0.1-0.2-0.3-0.3-0.5-0.4
			c-0.1-0.1-0.2-0.1-0.4-0.2v0c0.1,0,0.3-0.1,0.4-0.1c0.2-0.1,0.3-0.2,0.4-0.3c0.1-0.1,0.2-0.3,0.3-0.6c0.1-0.2,0.1-0.5,0.1-0.9
			c0-0.5,0-1,0.1-1.4c0.1-0.4,0.2-0.7,0.4-0.9h-1.7c-0.1,0.2-0.2,0.4-0.2,0.6c0,0.2,0,0.5,0,0.7c0,0.4,0,0.8-0.1,1.1
			c-0.1,0.3-0.1,0.5-0.3,0.7c-0.1,0.2-0.3,0.3-0.6,0.4c-0.3,0.1-0.6,0.1-0.9,0.1h-2.3v-3.7h-1.6V46.5z M243.4,46.5h1.6v-4.1l4,4.1
			h1.9l-3.6-3.6l3.9-5.4h-2l-3,4.3l-1.3-1.3v-3h-1.6V46.5z M267.9,40.5c0-0.3,0.1-0.6,0.2-0.9c0.1-0.2,0.3-0.4,0.5-0.6
			c0.2-0.2,0.5-0.3,0.7-0.3c0.3-0.1,0.6-0.1,0.9-0.1c0.3,0,0.6,0,0.9,0.1s0.4,0.2,0.6,0.3c0.2,0.1,0.3,0.3,0.3,0.4
			c0.1,0.2,0.1,0.3,0.1,0.5c0,0.3-0.1,0.6-0.2,0.8c-0.1,0.2-0.3,0.3-0.5,0.3c-0.4,0.1-0.7,0.2-1.1,0.3c-0.4,0.1-1,0.2-1.6,0.4
			c-0.3,0.1-0.7,0.2-1,0.4c-0.2,0.1-0.4,0.3-0.6,0.6c-0.2,0.2-0.3,0.4-0.3,0.6c-0.1,0.2-0.1,0.5-0.1,0.7c0,0.8,0.4,1.6,1,2
			c0.3,0.2,0.7,0.4,1.1,0.5c0.4,0.1,0.8,0.2,1.2,0.2c0.5,0,0.9-0.1,1.3-0.2c0.4-0.1,0.8-0.3,1.1-0.5c0.3-0.2,0.6-0.5,0.8-0.9
			c0.2-0.4,0.3-0.8,0.3-1.2h-1.6c0,0.6-0.2,1-0.6,1.2s-0.8,0.4-1.4,0.4c-0.2,0-0.4,0-0.6-0.1c-0.2,0-0.4-0.1-0.5-0.2
			c-0.2-0.1-0.3-0.2-0.4-0.4c-0.1-0.2-0.2-0.4-0.2-0.6c0-0.3,0.1-0.6,0.3-0.8c0.2-0.2,0.5-0.3,0.8-0.4c0,0,0.2,0,0.4-0.1l0.8-0.2
			l0.8-0.2c0.3-0.1,0.5-0.1,0.6-0.2c0.3-0.1,0.6-0.2,0.8-0.4s0.4-0.3,0.5-0.5c0.1-0.2,0.3-0.4,0.3-0.7c0.1-0.2,0.1-0.5,0.1-0.7
			c0-0.5-0.1-0.9-0.3-1.3c-0.2-0.4-0.5-0.7-0.8-0.9c-0.4-0.2-0.7-0.4-1.1-0.5c-0.4-0.1-0.9-0.2-1.3-0.2c-0.5,0-1,0.1-1.5,0.2
			c-0.4,0.1-0.8,0.3-1.2,0.6c-0.3,0.3-0.6,0.6-0.8,1c-0.2,0.4-0.3,0.9-0.3,1.4L267.9,40.5z M278.9,84.4h0.5c0.5,0,0.9,0,0.9,0.6
			c0,0.4-0.4,0.5-0.7,0.5h-0.7L278.9,84.4z M278.3,85.8h1.3c0.8,0,1.2-0.3,1.2-1c0-0.6-0.4-0.9-0.9-0.9l1-1.5h-0.6l-0.9,1.4h-0.6
			v-1.4h-0.5V85.8z M279.5,81.7c1.3,0,2.4,1.1,2.4,2.5c0,1.4-1,2.4-2.4,2.4c-1.3,0-2.4-1.1-2.4-2.4
			C277.1,82.8,278.1,81.7,279.5,81.7 M279.5,87c1.6,0,2.9-1.2,2.9-2.9c0-1.7-1.3-2.9-2.9-2.9c-1.6,0-2.9,1.2-2.9,2.9
			C276.6,85.8,277.9,87,279.5,87"/>
	</g>
	<path class="st1" d="M18,18h-5.6v-5.6H18L18,18z"/>
</g>
</svg>
