<?xml version="1.0" encoding="UTF-8"?><svg id="Layer_2" xmlns="http://www.w3.org/2000/svg" viewBox="0 0 349.84 80.74"><defs><style>.cls-1{fill:#8ac142;}.cls-2{fill:#494c50;}</style></defs><g id="F8_Logo"><g><polygon class="cls-2" points="175.94 .06 133.09 31.65 154.19 80.68 131.22 80.74 116.88 43.78 99.98 57.07 94.67 80.68 0 80.74 2.62 65.7 57.71 14.4 17.08 14.4 19.76 .06 85.4 0 82.61 13.41 24.78 66.4 79.92 66.34 95.02 0 113.97 .06 105.57 34.8 149.65 0 175.94 .06"/><path class="cls-1" d="M259.01,79.11h-37.83l5.71-25.36h27.05l-2.27,10.14h-16.21l-1.17,5.07h26.99l-2.27,10.14Zm6.88-30.43h-37.83l2.27-10.14h37.83l-2.27,10.14Z"/><g><path class="cls-1" d="M302.91,68.96c-.52,2.33-1.05,3.91-1.52,4.9-.82,1.69-2.04,2.91-3.67,3.79-1.92,.99-4.61,1.52-7.99,1.52h-16.21c-3.5,0-5.95-.52-7.46-1.63-1.22-.87-1.81-2.22-1.81-4.02,0-.64,.06-1.4,.23-2.16,.06-.35,.23-1.11,.52-2.33l3.44-15.22h10.84l-3.44,15.22h16.21l1.17-5.07h10.78l-1.11,5.01Zm3.44-15.22h-10.78l1.17-5.07h-26.99c.52-2.27,.99-3.91,1.52-4.84,.82-1.69,2.04-2.97,3.61-3.79,1.92-.99,4.61-1.52,7.99-1.52h16.21c3.5,0,5.95,.52,7.4,1.63,1.22,.93,1.81,2.27,1.81,4.02,0,.64-.06,1.4-.23,2.22-.06,.29-.23,1.11-.47,2.27l-1.22,5.07Z"/><path class="cls-1" d="M344.53,68.96c-.52,2.27-1.05,3.91-1.52,4.9-.82,1.69-2.04,2.91-3.67,3.79-1.92,.99-4.61,1.52-7.93,1.52h-16.21c-3.5,0-5.95-.52-7.46-1.63-1.17-.87-1.81-2.22-1.81-4.02,0-.64,.06-1.4,.23-2.16,.06-.35,.23-1.11,.52-2.33l3.44-15.22h10.78l-3.44,15.22h16.21l4.61-20.29h-27.05c.52-2.27,.99-3.91,1.52-4.84,.82-1.69,2.04-2.97,3.67-3.79,1.92-.99,4.61-1.52,7.99-1.52h16.21c3.5,0,5.95,.52,7.4,1.63,1.17,.93,1.81,2.27,1.81,4.02,0,.64-.06,1.4-.23,2.22-.06,.29-.23,1.11-.52,2.27l-4.55,20.23Z"/><polygon class="cls-1" points="175.88 .06 246.36 0 241.75 14.57 215.64 14.57 195.82 80.62 178.04 80.68 197.1 14.46 156.23 14.57 175.88 .06"/></g></g></g></svg>