<svg viewBox="0 0 1000 100" fill="none" xmlns="http://www.w3.org/2000/svg">
  <g clip-path="url(#clip0_0_3)">
    <path opacity="0.5"
      d="M-7.59443e-06 96L-7.60659e-08 9.99998C166.7 10 166.7 96.4 333.3 96.4C499.9 96.4 500 10 666.7 10C833.4 10.0001 833.3 96.0001 1000 96.0001L-7.59443e-06 96Z"
      fill="#1F2937" />
    <path
      d="M-7.62939e-06 100L1000 100L1000 48.0001C937.5 72.0001 875 96.0001 750 96.0001C500 96 500 3.25826e-05 250 1.07269e-05C125 -2.0099e-07 62.5 24 -3.08341e-06 48L-7.62939e-06 100Z"
      fill="#1F2937" />
    <path opacity="0.5" d="M383 99L383 13C628 -19 616 99 804 99.0001L383 99Z" fill="#1F2937" />
    <path opacity="0.5" d="M1000 99.0001L1000 7.62939e-05C865.7 6.45531e-05 846.3 99.0001 704 99.0001L1000 99.0001Z"
      fill="#1F2937" />
  </g>
  <defs>
    <clipPath id="clip0_0_3">
      <rect width="1000" height="100" fill="white" transform="translate(1000 100) rotate(-180)" />
    </clipPath>
  </defs>
</svg>